<svg width="316" height="258" viewBox="0 0 316 258" fill="none" xmlns="http://www.w3.org/2000/svg">
<path d="M196.311 187.132L170.771 201.712L160.111 185.742L185.651 171.162L196.311 187.132Z" fill="#ED9F43"/>
<path d="M168.91 188.952C168.91 188.952 172.71 189.082 179.45 190.992L177.48 194.762L174.02 194.412L168.91 188.952Z" fill="#FCBD75"/>
<path d="M176.541 136.372L268.331 156.502C268.331 156.502 281.001 158.332 279.731 169.172C278.461 180.012 273.801 179.312 260.431 178.322L261.711 169.172C261.231 168.132 254.201 160.982 233.661 164.942C209.381 169.622 182.311 154.102 182.311 154.102C182.311 154.102 172.171 142.132 172.461 141.712C172.751 141.292 176.541 136.362 176.541 136.362V136.372Z" fill="#E2B130" stroke="#231F20" stroke-width="2" stroke-miterlimit="10"/>
<path d="M182.131 143.652C182.131 143.652 189.921 150.642 191.891 152.162C193.861 153.682 196.961 155.452 198.841 156.212C200.721 156.972 202.781 157.812 205.881 158.092C208.981 158.372 218.831 160.652 219.771 160.542C220.711 160.432 224.831 160.742 227.601 160.492C230.371 160.242 233.561 159.962 235.351 160.062C237.141 160.162 240.421 160.742 242.301 160.492C244.181 160.242 251.691 160.492 251.691 160.492C251.691 160.492 258.821 161.652 260.321 161.752C261.821 161.852 264.821 162.972 265.481 164.472C266.141 165.972 266.701 167.192 266.321 168.512C265.941 169.832 264.911 171.702 264.721 171.982C264.531 172.262 263.311 174.332 263.311 174.332L262.751 176.392L260.431 177.312L256.651 175.082C256.651 175.082 246.891 172.262 246.331 172.262C245.771 172.262 236.101 171.132 235.541 171.042C234.981 170.952 223.811 169.762 223.811 169.762L204.481 167.572L198.191 164.752L192.001 161.652L190.781 161.272C190.781 161.272 186.451 148.622 182.141 143.632L182.131 143.652Z" fill="#C3952C"/>
<path d="M289.54 206.762L293.76 211.262L261.94 234.352C261.94 234.352 256.51 243.082 252.33 215.632L273.04 216.902L289.53 206.762H289.54Z" fill="#888888" stroke="#231F20" stroke-width="2" stroke-miterlimit="10"/>
<path d="M259.411 181.002L275.802 224.302L295.042 217.032L299.112 215.492C299.112 215.492 297.702 220.282 300.242 225.632C302.782 230.982 273.052 237.702 273.052 237.702C273.052 237.702 264.682 246.012 253.602 209.352C242.522 172.702 227.602 175.792 227.602 175.792C227.602 175.792 250.122 168.472 259.422 181.002H259.411Z" fill="#888888" stroke="#231F20" stroke-width="2" stroke-miterlimit="10"/>
<path d="M302.771 209.182C302.771 209.182 309.531 203.822 309.251 212.972C308.971 222.122 307.671 221.172 311.781 225.272C315.891 229.372 317.691 240.322 308.961 241.312C300.231 242.302 290.381 241.992 298.821 232.212L296.851 224.662L295.031 218.162L302.761 209.182H302.771Z" fill="#0D0D0D" stroke="#231F20" stroke-miterlimit="10"/>
<path d="M193.09 227.242L178.39 233.372C177.82 233.782 178.11 234.682 178.81 234.682L188.99 232.662C188.99 232.662 167.01 249.462 193.76 235.682C193.76 235.682 190.19 259.532 200.14 236.062C200.14 236.062 210.18 259.422 205.12 234.362C205.12 234.362 223.93 238.022 209.01 230.422L193.09 227.242Z" fill="#FCBD75" stroke="#231F20" stroke-width="1.5" stroke-miterlimit="10"/>
<path d="M166.221 176.922L170.301 171.012L183.391 191.002H179.451L166.221 176.922Z" fill="#C7BCA1" stroke="#231F20" stroke-miterlimit="10"/>
<path d="M198.32 196.352L181.19 191.492L179.45 191.002L177.48 194.772L198.32 200.572V196.352Z" fill="#C7BCA1" stroke="#231F20" stroke-miterlimit="10"/>
<path d="M159.182 203.392C159.182 203.392 216.062 206.492 245.902 234.362C245.902 234.362 248.872 228.352 251.362 219.432C253.892 210.362 255.922 198.282 253.792 186.492C253.792 186.492 238.872 175.792 234.362 176.922C229.852 178.052 252.102 173.822 259.422 181.002L260.832 169.032C260.832 169.032 255.202 161.712 239.152 164.242C223.102 166.772 201.422 165.652 181.152 154.102L182.282 158.602L176.372 167.052L172.152 167.892L170.322 170.992L183.412 190.982L198.332 196.332V200.552L177.492 194.752L163.132 196.332L159.192 203.372L159.182 203.392Z" fill="#C22030" stroke="#231F20" stroke-width="2" stroke-miterlimit="10"/>
<path d="M176.352 167.062C176.352 167.062 200.282 192.962 201.692 192.122C203.102 191.282 189.021 225.062 189.021 225.062C189.021 225.062 201.971 232.942 209.011 230.412L212.952 197.752L215.202 187.612C215.202 187.612 195.491 163.112 182.261 158.612L176.352 167.062Z" fill="#C22030" stroke="#231F20" stroke-width="2" stroke-miterlimit="10"/>
<path d="M117.51 221.182L128.49 241.732H143.69C143.69 241.732 125.67 213.012 122.29 213.012L117.5 221.182H117.51Z" fill="#C22030" stroke="#231F20" stroke-width="2" stroke-miterlimit="10"/>
<path d="M259.461 150.161C259.461 150.161 264.251 149.601 264.251 150.721V155.601L259.461 154.552V150.161Z" fill="#CC9B2B" stroke="#231F20" stroke-width="1.5" stroke-miterlimit="10"/>
<path d="M19.5918 155.642C20.7218 158.222 28.9418 170.422 39.4818 176.632C50.0218 182.842 51.6517 185.912 51.6517 185.912C51.6517 185.912 24.4617 163.692 22.3917 154.612L19.5918 155.632V155.642Z" fill="#432613" stroke="#231F20" stroke-width="2" stroke-miterlimit="10"/>
<path d="M16.3711 150.042C16.3711 150.042 30.2211 164.612 37.4711 166.322C44.7211 168.022 61.521 184.462 61.521 184.462L53.781 163.672L42.191 149.152L25.661 139.062C25.661 139.062 20.371 150.422 16.381 150.042H16.3711Z" fill="#271711" stroke="#231F20" stroke-width="2" stroke-miterlimit="10"/>
<path d="M168.671 124.962C168.671 124.962 165.061 117.662 167.731 108.272C167.731 108.272 170.261 96.1517 179.261 96.1717C179.261 96.1717 176.401 73.1717 170.481 67.3717C164.561 61.5617 143.001 32.8517 125.031 31.7617C125.031 31.7617 140.501 12.1717 119.921 30.9017C119.921 30.9017 101.861 4.58165 115.271 32.6617C115.271 32.6617 116.071 25.0817 95.4309 24.3217C95.4309 24.3217 87.5009 25.5616 91.9209 12.8017C96.3309 0.0416498 68.2309 2.04166 68.2309 2.04166C68.2309 2.04166 80.7709 6.86165 82.4209 7.74165C84.0709 8.62165 83.4108 21.2716 84.8908 23.2516C86.3708 25.2316 94.2309 30.5917 94.2309 30.5917C94.2309 30.5917 66.3809 26.6017 57.7409 30.0417C49.1009 33.4717 53.6708 34.8517 53.6708 34.8517L62.8908 34.4617C62.8908 34.4617 49.5009 30.2417 30.6209 47.7617C11.7409 65.2817 5.12092 107.082 5.12092 107.082C5.12092 107.082 1.06091 126.652 1.73091 128.872C2.41091 131.092 5.64082 146.232 5.64082 146.232C5.64082 146.232 5.16092 156.702 4.24092 160.702C3.32092 164.712 21.7508 155.952 23.6308 154.182C25.5108 152.412 37.4209 130.212 44.8709 122.862C52.3209 115.512 46.2909 112.762 68.3509 102.282C90.4109 91.7916 100.501 87.4617 106.721 64.7417L114.111 41.3217C114.111 41.3217 103.831 53.0016 113.731 71.8316C123.621 90.6617 132.561 101.802 149.881 110.972C167.211 120.142 165.431 124.532 168.681 124.972L168.671 124.962Z" fill="#432613" stroke="#231F20" stroke-width="3" stroke-miterlimit="10"/>
<path d="M30.4219 141.242C30.4219 141.242 35.3519 155.712 52.3219 168.672C52.3219 168.672 56.9019 171.642 64.1719 187.192C64.1719 187.192 75.0519 221.952 129.672 209.272C129.672 209.272 194.302 191.532 171.802 125.552C171.802 125.552 189.202 133.102 182.152 99.3024C181.722 97.2524 180.682 95.3324 179.032 94.0324C177.332 92.6924 174.822 91.7824 171.442 93.2324C167.922 94.7424 165.522 98.0524 164.782 101.812C164.242 104.512 164.192 107.722 166.012 110.002L164.722 99.7924L161.652 117.462C161.652 117.462 136.232 106.832 123.392 89.8424C123.392 89.8424 111.092 77.0724 108.312 63.8424C108.012 62.4324 106.062 62.2724 105.532 63.6024C102.092 72.2024 94.4019 86.5224 79.5419 93.9424C57.4219 104.972 63.0919 94.5524 39.7019 124.282L30.4319 141.262L30.4219 141.242Z" fill="#FCBD74" stroke="#231F20" stroke-width="3" stroke-miterlimit="10"/>
<path d="M119.531 62.0723L138.121 71.5223C138.121 71.5223 133.731 55.8823 141.271 61.6423C141.271 61.6423 137.681 52.5423 140.611 48.8223C140.611 48.8223 127.001 39.1623 122.511 39.0723C122.511 39.0723 134.191 48.1623 122.771 51.3823L119.531 62.0723Z" fill="white" stroke="#231F20" stroke-width="2" stroke-miterlimit="10"/>
<path d="M104.13 37.9724C104.13 37.9724 90.0304 28.6124 69.9804 39.4724C69.9804 39.4724 91.2803 43.0824 74.4703 48.7824C74.4703 48.7824 79.4003 57.7324 67.8103 62.5724C67.8103 62.5724 66.4603 67.3324 90.8203 61.8724C90.8203 61.8724 87.0503 55.3124 93.3403 53.9624C99.6303 52.6224 84.9003 45.2424 104.14 37.9724H104.13Z" fill="white" stroke="#231F20" stroke-width="2" stroke-miterlimit="10"/>
<path d="M113.951 39.7324C113.751 42.0424 113.391 44.3124 112.981 46.5624C112.581 48.8124 112.101 51.0424 111.621 53.2724C111.101 55.4924 110.601 57.7124 110.041 59.9124L108.351 66.5724C108.091 64.2524 108.251 61.9224 108.511 59.6424C108.761 57.3424 109.191 55.0824 109.671 52.8424C110.191 50.6024 110.761 48.3824 111.471 46.1924C112.171 44.0024 112.951 41.8324 113.951 39.7424V39.7324Z" fill="#231F20"/>
<path d="M182.36 109.362C182.802 105.41 180.816 101.944 177.924 101.62C175.031 101.296 172.328 104.237 171.885 108.189C171.443 112.14 173.429 115.606 176.321 115.93C179.214 116.254 181.917 113.313 182.36 109.362Z" fill="#F1A244"/>
<path d="M177.921 118.682C176.391 118.082 175.031 117.122 173.841 115.962C172.661 114.802 171.631 113.412 171.031 111.762C170.421 110.132 170.291 108.222 170.891 106.562C171.441 104.882 172.611 103.542 173.961 102.652C173.211 104.112 172.581 105.512 172.401 106.932C172.181 108.342 172.431 109.732 172.901 111.072C173.391 112.412 174.151 113.702 175.021 114.952C175.901 116.202 176.881 117.412 177.911 118.682H177.921Z" fill="#231F20"/>
<path d="M171.352 110.852C171.752 110.002 172.612 109.422 173.572 109.182C174.542 108.942 175.612 109.122 176.482 109.552C177.382 109.962 178.052 110.642 178.602 111.362C178.852 111.742 179.071 112.132 179.261 112.542C179.411 112.972 179.562 113.392 179.622 113.852C179.192 113.642 178.842 113.402 178.492 113.162C178.152 112.922 177.792 112.722 177.492 112.482C176.832 112.072 176.232 111.642 175.612 111.362C174.392 110.762 173.162 110.512 171.352 110.862V110.852Z" fill="#231F20"/>
<path d="M148.871 198.382C148.871 198.382 172.391 175.002 167.951 144.232C163.511 113.462 170.771 128.082 170.771 128.082C170.771 128.082 189.971 171.852 148.881 198.372L148.871 198.382Z" fill="#F1A244"/>
<path d="M166.881 113.552L164.721 122.602C164.721 122.602 139.871 108.052 134.181 105.232L137.151 116.332C137.151 116.332 113.591 91.2316 98.7213 123.942C98.7213 123.942 95.0612 114.612 102.501 100.692C102.501 100.692 92.4712 103.412 81.5012 106.282C70.5312 109.152 52.8213 112.692 47.6613 130.132C42.5713 147.322 42.1213 143.332 42.1213 143.332C42.1213 143.332 45.3912 158.192 50.1312 159.822C50.1312 159.822 47.1613 140.732 76.1813 143.262C76.1813 143.262 91.5413 153.272 90.8113 159.742C90.0913 166.212 65.0413 172.962 65.0413 172.962L54.4313 167.932C54.4313 167.932 41.4712 160.342 31.5312 141.332C31.5312 141.332 40.4512 124.882 44.2612 120.612C44.2612 120.612 51.7712 110.642 57.4012 105.332C58.5712 104.222 63.2012 100.952 64.7612 100.562C71.6512 98.8116 93.8213 92.2816 104.671 68.6716C104.711 68.5816 104.741 68.4816 104.791 68.3916L107.321 63.1816C107.821 63.4716 108.161 63.9616 108.281 64.5216C109.151 68.6616 112.891 87.3616 140.721 107.922L162.861 119.692L164.441 110.582L166.901 113.582L166.881 113.552Z" fill="#F1A244"/>
<path d="M99.7302 210.132C99.7302 210.132 81.7702 202.712 74.9502 191.722C68.1302 180.722 63.2402 180.212 64.4202 183.902C65.8302 188.322 73.1402 207.342 99.7302 210.142V210.132Z" fill="#FED5A3"/>
<path d="M9.17102 113.892C9.17102 113.892 16.0811 75.9721 33.0811 61.2921C50.0811 46.6121 60.701 37.9121 60.701 37.9121C60.701 37.9121 46.311 35.8821 33.631 50.9121C33.631 50.9121 8.68102 69.7621 7.04102 113.612C7.04102 113.612 7.77103 120.302 9.18103 113.892H9.17102Z" fill="#6E4019"/>
<path d="M98.4512 63.3022C98.6012 62.1522 98.9012 61.1022 99.2212 60.0722C99.5612 59.0422 99.9312 58.0522 100.341 57.0722C100.751 56.0922 101.191 55.1322 101.641 54.1822C102.101 53.2222 102.581 52.2922 103.051 51.2422C103.411 52.3622 103.311 53.5422 103.141 54.6422C102.951 55.7522 102.611 56.8222 102.181 57.8322C101.751 58.8522 101.241 59.8222 100.631 60.7422C100.011 61.6522 99.3312 62.5422 98.4512 63.2922V63.3022Z" fill="#231F20"/>
<path d="M99.2215 46.4424C98.7115 45.9224 98.7814 45.0624 99.0714 44.4424C99.3714 43.8024 99.8714 43.3124 100.411 42.9724C100.951 42.6424 101.541 42.4424 102.151 42.3724C102.761 42.3124 103.371 42.3624 104.001 42.6224C103.571 43.1724 103.121 43.5124 102.701 43.8424C102.271 44.1624 101.861 44.4324 101.461 44.6624L100.331 45.3624C99.9715 45.6124 99.5715 45.8524 99.2215 46.4324V46.4424Z" fill="#231F20"/>
<path d="M132.33 98.9619C132.33 98.9619 140.9 100.282 150.15 98.0219C155.7 96.6619 165.48 93.4219 165.48 93.4219L161.28 117.862C161.28 117.862 141.96 108.602 132.34 98.9619H132.33Z" fill="#271710"/>
<path d="M122.631 149.752C125.371 148.062 127.741 146.072 129.681 143.772C131.611 141.472 133.061 138.882 134.021 136.102C134.381 134.672 134.851 133.262 134.991 131.762C135.311 130.292 135.261 128.782 135.391 127.252C135.491 126.492 135.331 125.722 135.341 124.952L135.281 122.612C135.121 121.062 134.931 119.492 134.871 117.862C135.571 119.302 136.151 120.812 136.731 122.332C137.081 123.902 137.571 125.482 137.731 127.122C137.871 128.762 138.051 130.422 137.821 132.092C137.721 132.922 137.731 133.772 137.491 134.582L136.871 137.042C135.761 140.242 133.861 143.192 131.341 145.402C128.861 147.632 125.821 149.212 122.631 149.742V149.752Z" fill="#231F20"/>
<path d="M103.041 164.582C107.151 172.482 107.061 179.802 104.921 180.912C102.781 182.022 104.871 173.362 99.3406 166.502C93.0606 158.702 87.7505 154.352 89.8905 153.232C92.0305 152.112 98.9305 156.672 103.041 164.572V164.582Z" fill="#F1A244"/>
<path d="M92.2715 154.722C94.2915 155.492 96.1116 156.742 97.7416 158.162C99.3916 159.582 100.832 161.232 102.062 163.032C102.382 163.472 102.652 163.942 102.922 164.422C103.182 164.902 103.492 165.352 103.722 165.852C104.172 166.842 104.672 167.812 104.982 168.862C105.732 170.902 106.092 173.062 106.182 175.212C105.282 173.242 104.532 171.312 103.552 169.472C102.632 167.622 101.571 165.852 100.411 164.162C99.2915 162.442 98.0015 160.832 96.6515 159.262C95.2915 157.702 93.8515 156.192 92.2815 154.722H92.2715Z" fill="#231F20"/>
<ellipse opacity="0.8" cx="106.373" cy="98.3121" rx="26.8436" ry="14.9131" transform="rotate(-44.7534 106.373 98.3121)" fill="url(#paint0_radial_1891_1780)"/>
<path d="M110.362 0.0119629C111.982 1.05196 113.522 2.19196 114.892 3.60196C115.552 4.32196 116.232 5.08196 116.592 6.18196C116.762 6.72196 116.782 7.46197 116.412 8.06197C116.052 8.66197 115.512 8.99196 115.022 9.24196C114.002 9.69196 112.982 9.83195 112.032 9.97195C111.062 10.112 110.092 10.202 109.132 10.272C107.212 10.412 105.292 10.452 103.452 10.612C102.542 10.702 101.652 10.832 100.892 11.052C100.532 11.172 100.212 11.322 100.012 11.482C99.8116 11.642 99.7617 11.762 99.7317 11.892C99.6517 12.162 99.7617 12.902 100.042 13.642C100.302 14.352 100.722 15.302 101.062 16.172C102.432 19.722 103.682 23.322 104.482 27.132L104.212 27.252C101.912 24.122 100.062 20.772 98.3217 17.382C97.9017 16.502 97.4817 15.742 97.0917 14.672C96.7717 13.642 96.3917 12.402 96.9617 10.842C97.2717 10.082 97.8917 9.45196 98.4917 9.12196C99.1017 8.77196 99.6917 8.61196 100.242 8.48196C101.342 8.26196 102.352 8.23195 103.332 8.22195C105.302 8.21195 107.182 8.32195 109.062 8.33195C110.002 8.33195 110.932 8.32196 111.852 8.26196C112.782 8.20196 113.682 8.13195 114.432 7.86195C115.192 7.57195 115.552 7.22195 115.412 6.47195C115.272 5.72195 114.742 4.92197 114.192 4.20197C113.042 2.76197 111.642 1.45195 110.192 0.251953L110.362 0.00195312V0.0119629Z" fill="#231F20"/>
<path d="M109.922 65.9219C109.922 65.9219 113.282 92.9119 124.282 103.032C124.282 103.032 117.732 85.5319 117.452 80.6519L109.922 65.9319V65.9219Z" fill="#432613" stroke="#231F20" stroke-width="2" stroke-miterlimit="10"/>
<path d="M37.6202 122.132C37.6202 122.132 23.4401 151.632 20.9701 152.612C18.5001 153.592 7.09012 159.292 7.09012 159.292C7.09012 159.292 6.9301 152.522 9.3201 151.842C11.7101 151.162 13.8701 152.902 17.6501 149.252C21.4301 145.602 23.7801 142.772 24.7201 140.922C25.6501 139.072 29.5001 134.052 30.6601 132.192C31.8201 130.332 37.63 122.132 37.63 122.132H37.6202Z" fill="#6E4019"/>
<path d="M114.74 158.382C116.38 155.452 118.33 152.712 120.42 150.082C122.51 147.452 124.77 144.962 127.21 142.632C129.67 140.332 132.29 138.162 135.22 136.412C136.68 135.532 138.21 134.772 139.82 134.192C141.43 133.632 143.13 133.252 144.82 133.332C141.53 134.062 138.74 135.832 136.08 137.712C134.76 138.682 133.48 139.692 132.24 140.772C130.99 141.832 129.77 142.932 128.59 144.082C126.18 146.332 123.89 148.712 121.6 151.102L114.75 158.382H114.74Z" fill="#231F20"/>
<path d="M75.0608 187.101C75.8208 184.881 76.8708 182.791 78.0508 180.781C79.2208 178.761 80.5708 176.851 82.0608 175.031C83.5808 173.241 85.2308 171.531 87.1908 170.151C88.1608 169.451 89.2108 168.851 90.3208 168.401C91.4408 167.981 92.6608 167.692 93.8308 167.832C91.5708 168.452 89.8208 169.871 88.1708 171.371C87.3608 172.141 86.5508 172.922 85.8108 173.772C85.0508 174.602 84.3008 175.441 83.5908 176.321C82.1208 178.051 80.7508 179.861 79.3308 181.661C77.9308 183.471 76.5408 185.302 75.0508 187.112L75.0608 187.101Z" fill="#231F20"/>
<ellipse opacity="0.8" cx="52.373" cy="149.312" rx="26.8436" ry="14.9131" transform="rotate(-44.7534 52.373 149.312)" fill="url(#paint1_radial_1891_1780)"/>
<path d="M128.521 153.832C129.631 152.802 130.892 152.002 132.192 151.302C133.502 150.602 134.872 150.032 136.302 149.592C137.722 149.142 139.231 148.892 140.761 148.852C142.261 148.822 143.931 149.032 145.151 149.992C143.651 149.832 142.302 150.112 140.942 150.402C139.582 150.712 138.241 151.092 136.881 151.512L132.781 152.742C131.401 153.152 130.001 153.542 128.521 153.832Z" fill="#231F20"/>
<path d="M84.6816 188.952C84.9416 187.762 85.4416 186.692 86.0016 185.662C86.5716 184.642 87.2416 183.682 88.0016 182.792C88.7616 181.902 89.6217 181.082 90.6117 180.392C91.5917 179.722 92.7016 179.112 93.9316 179.012C93.0816 179.872 92.3816 180.702 91.6616 181.552L89.5216 184.092C88.0516 185.762 86.5917 187.462 84.6917 188.942L84.6816 188.952Z" fill="#231F20"/>
<path d="M82.2014 100.382C82.2014 100.382 99.5414 97.692 104.511 93.582L106.101 98.802C106.101 98.802 90.3714 111.902 82.1914 100.382H82.2014Z" fill="#432613" stroke="#231F20" stroke-width="2" stroke-miterlimit="10"/>
<path d="M49.8203 140.552L53.9003 143.732C53.9003 143.732 67.4803 130.422 56.8303 122.712C56.8303 122.712 54.5103 137.232 49.8203 140.552Z" fill="#432613" stroke="#231F20" stroke-width="2" stroke-miterlimit="10"/>
<path d="M59.8518 155.222L63.6317 148.932C64.8517 146.872 65.9918 144.802 66.9318 142.702C67.8618 140.592 68.6218 138.442 68.8518 136.222C69.1418 134.002 68.7318 131.742 67.7018 129.432C68.7218 130.182 69.5418 131.212 70.1718 132.382C70.7718 133.562 71.1218 134.902 71.2118 136.232C71.4218 138.932 70.7218 141.572 69.6718 143.912C68.6118 146.272 67.1817 148.402 65.5317 150.302C63.8617 152.182 62.0118 153.912 59.8418 155.212L59.8518 155.222Z" fill="#231F20"/>
<ellipse opacity="0.8" cx="136.862" cy="143.36" rx="40.5406" ry="22.5225" transform="rotate(-44.7534 136.862 143.36)" fill="url(#paint2_radial_1891_1780)"/>
<ellipse opacity="0.8" cx="72.4573" cy="121.36" rx="40.5406" ry="22.5225" transform="rotate(-44.7534 72.4573 121.36)" fill="url(#paint3_radial_1891_1780)"/>
<ellipse opacity="0.8" cx="92.1796" cy="178.717" rx="40.5406" ry="22.5225" transform="rotate(-30.0999 92.1796 178.717)" fill="url(#paint4_radial_1891_1780)"/>
<path d="M174.02 194.412C174.02 194.412 160.63 183.302 168.46 177.132C168.46 177.132 187.42 169.762 189 163.182C189 163.182 170.28 150.352 167.12 130.412C167.12 130.412 157.45 131.132 143.65 144.452C129.85 157.772 114.25 154.072 114.25 154.072C114.25 154.072 89.4801 157.222 91.6201 172.952C93.7601 188.682 95.89 193.652 88.02 206.902C80.15 220.152 84.4999 216.822 84.4999 216.822C84.4999 216.822 107.82 217.762 113.5 228.952C113.5 228.952 124.54 219.552 127.61 211.622C130.68 203.692 151.04 217.312 158.02 213.852C165 210.382 177.04 202.482 174.03 194.402L174.02 194.412Z" fill="#631011" stroke="#231F20" stroke-width="3" stroke-miterlimit="10"/>
<path d="M189.272 163.491C191.46 162.014 188.465 153.747 182.582 145.024C176.699 136.302 170.155 130.428 167.967 131.904C165.778 133.38 168.773 141.648 174.657 150.37C180.54 159.093 187.083 164.967 189.272 163.491Z" fill="#F7B528" stroke="#231F20" stroke-width="2" stroke-miterlimit="10"/>
<path d="M113.432 230.265C114.324 227.963 108.302 223.482 99.9805 220.256C91.659 217.03 84.1897 216.28 83.2974 218.582C82.405 220.884 88.4275 225.365 96.749 228.591C105.07 231.817 112.54 232.567 113.432 230.265Z" fill="#F7B528" stroke="#231F20" stroke-width="2" stroke-miterlimit="10"/>
<path d="M148.701 214.282C148.701 214.282 153.831 196.902 170.791 192.052L165.441 186.172C165.441 186.172 144.571 194.252 140.861 211.862L148.701 214.282Z" fill="#C7BCA1" stroke="#231F20" stroke-width="2" stroke-miterlimit="10"/>
<path d="M144.391 203.152L151.591 207.862" stroke="#231F20" stroke-miterlimit="10"/>
<path d="M156.83 190.662L162.58 195.822" stroke="#231F20" stroke-miterlimit="10"/>
<path d="M137.061 206.172C137.061 206.172 138.061 192.282 156.911 185.692L137.061 206.172Z" fill="#F7B528"/>
<path d="M137.061 206.172C137.061 206.172 138.061 192.282 156.911 185.692" stroke="#231F20" stroke-width="2" stroke-miterlimit="10"/>
<path d="M101.321 198.272C100.441 197.502 99.7512 196.642 99.1012 195.752C98.4612 194.862 97.8911 193.922 97.3811 192.962C96.8711 192.002 96.4211 191.002 96.0411 189.972C95.6711 188.932 95.3412 187.872 95.2012 186.712C96.0812 187.482 96.7711 188.342 97.4211 189.232C98.0611 190.122 98.6311 191.062 99.1411 192.022C99.6511 192.982 100.101 193.982 100.481 195.012C100.851 196.052 101.181 197.112 101.321 198.272Z" fill="#231F20"/>
<path d="M122.32 157.492C123.56 157.032 124.81 156.772 126.06 156.582C127.31 156.392 128.57 156.272 129.82 156.222C131.08 156.172 132.34 156.202 133.6 156.302C134.86 156.402 136.13 156.572 137.4 156.942C136.16 157.402 134.91 157.662 133.66 157.862C132.41 158.052 131.15 158.182 129.9 158.222C128.64 158.272 127.38 158.232 126.12 158.132C124.86 158.032 123.59 157.862 122.32 157.492Z" fill="#231F20"/>
<path d="M132.644 161.602C132.686 159.691 131.525 158.116 130.051 158.083C128.577 158.051 127.348 159.573 127.305 161.483C127.263 163.394 128.424 164.969 129.898 165.002C131.372 165.034 132.602 163.512 132.644 161.602Z" fill="#F7B528" stroke="#231F20" stroke-miterlimit="10"/>
<path d="M101.655 190.98C101.794 189.662 101.046 188.503 99.986 188.392C98.9259 188.281 97.9545 189.26 97.8164 190.578C97.6784 191.896 98.4258 193.055 99.4859 193.166C100.546 193.277 101.517 192.298 101.655 190.98Z" fill="#F7B528" stroke="#231F20" stroke-miterlimit="10"/>
<path d="M135.631 167.442C153.421 180.552 128.281 206.612 110.961 193.012C89.0613 177.052 115.161 152.782 135.631 167.442Z" fill="#F7B528" stroke="#231F20" stroke-width="2" stroke-miterlimit="10"/>
<path d="M166.871 172.772L155.431 163.152L150.911 153.852L144.611 148.552C144.611 148.552 152.211 172.562 166.871 172.772Z" fill="#F7B528"/>
<path d="M147.701 147.802C148.481 150.232 149.411 152.552 150.471 154.802C151.531 157.042 152.721 159.212 154.111 161.242C155.461 163.292 156.971 165.242 158.661 167.052C160.301 168.922 162.181 170.542 164.061 172.292C161.741 171.242 159.491 169.902 157.571 168.162C156.551 167.362 155.701 166.372 154.801 165.432C154.361 164.952 153.991 164.412 153.581 163.912L152.981 163.142L152.441 162.332C151.721 161.252 151.091 160.112 150.491 158.962C149.961 157.782 149.421 156.602 149.021 155.372C148.201 152.932 147.661 150.362 147.701 147.802Z" fill="#231F20"/>
<path d="M118.611 216.582L109.481 207.702L100.141 204.552L95.1113 199.662C95.1113 199.662 119.531 204.442 118.601 216.582H118.611Z" fill="#F7B528"/>
<path d="M98.041 202.271C98.041 202.271 112.221 202.271 119.191 212.561" stroke="#231F20" stroke-width="2" stroke-miterlimit="10"/>
<path d="M132.561 193.542L130.671 195.072L105.141 170.692L107.021 169.172L132.561 193.542Z" fill="#631011"/>
<path d="M132.561 193.542L130.731 195.122L130.681 195.162L130.631 195.112L124.111 189.162L117.641 183.162L104.801 171.052L104.391 170.662L104.841 170.302L106.731 168.782L107.071 168.512L107.381 168.812C111.651 172.942 115.971 177.062 120.151 181.212L132.581 193.532L132.561 193.542ZM132.561 193.542L119.451 181.492C115.121 177.522 110.931 173.512 106.681 169.522L107.331 169.552L105.461 171.082L105.491 170.332L118.191 182.592L124.491 188.782L130.741 195.012H130.641L132.571 193.542H132.561Z" fill="#231F20"/>
<path d="M137.592 189.233L135.661 190.803L110.102 166.453L112.021 164.893L137.592 189.233Z" fill="#631011"/>
<path d="M137.592 189.232L135.722 190.852L135.672 190.892L135.622 190.842L129.092 184.892L122.612 178.902L109.762 166.802L109.342 166.412L109.782 166.052L111.712 164.502L112.052 164.232L112.362 164.532C116.632 168.662 120.962 172.772 125.152 176.922L137.592 189.232ZM137.592 189.232L124.472 177.202C120.142 173.242 115.942 169.232 111.692 165.242L112.342 165.272L110.432 166.842L110.462 166.092L123.172 178.332L129.472 184.512L135.732 190.742H135.632L137.602 189.232H137.592Z" fill="#231F20"/>
<path d="M140.512 183.462L138.832 185.812L116.262 164.002L118.582 163.082L140.512 183.462Z" fill="#631011"/>
<path d="M140.511 183.462L138.911 185.872L138.852 185.972L138.761 185.892C136.841 184.122 134.892 182.372 132.992 180.572L127.261 175.212L115.911 164.372L115.352 163.832L116.072 163.552L118.401 162.642L118.692 162.532L118.911 162.742C122.571 166.202 126.292 169.632 129.872 173.132C133.482 176.602 137.041 180.062 140.511 183.482V183.462ZM140.511 183.462C136.671 180.082 132.922 176.752 129.222 173.432C125.492 170.132 121.901 166.772 118.251 163.432L118.761 163.522L116.452 164.462L116.612 163.642L127.832 174.612L133.381 180.152C135.241 181.992 137.061 183.872 138.891 185.732H138.742L140.501 183.452L140.511 183.462Z" fill="#231F20"/>
<path d="M126.172 196.712L124.082 197.432L102.742 176.902L103.112 174.242L126.172 196.712Z" fill="#631011"/>
<path d="M126.171 196.712L124.111 197.522L124.051 197.542L124.001 197.492C122.181 195.822 120.341 194.182 118.541 192.492L113.121 187.452L102.391 177.262L102.201 177.082L102.241 176.832L102.631 174.172L102.771 173.222L103.451 173.892C107.311 177.712 111.231 181.522 114.991 185.372L126.181 196.712H126.171ZM126.171 196.712L114.301 185.572C110.371 181.932 106.601 178.252 102.771 174.582L103.581 174.302L103.231 176.972L103.081 176.542L113.691 186.872L118.941 192.092C120.701 193.822 122.411 195.602 124.151 197.352L124.051 197.332C124.721 197.122 125.441 196.952 126.181 196.722L126.171 196.712Z" fill="#231F20"/>
<path d="M104.641 172.422C106.791 174.152 108.861 175.962 110.921 177.782C112.991 179.592 115.001 181.462 117.021 183.332C119.021 185.222 121.011 187.112 122.961 189.052L125.871 191.972C126.821 192.972 127.791 193.952 128.711 194.972C127.631 194.112 126.591 193.212 125.531 192.332L122.431 189.612C120.361 187.802 118.351 185.932 116.331 184.062C114.331 182.172 112.341 180.282 110.391 178.342C108.441 176.402 106.501 174.452 104.641 172.422Z" fill="#631011"/>
<path d="M123.342 163.752C125.002 165.142 126.572 166.612 128.142 168.102C129.712 169.572 131.232 171.102 132.752 172.632C134.252 174.182 135.752 175.722 137.202 177.332L139.362 179.742C140.062 180.572 140.782 181.372 141.452 182.222C140.612 181.532 139.822 180.802 139.012 180.082L136.652 177.872C135.082 176.402 133.562 174.872 132.042 173.342C130.542 171.792 129.042 170.252 127.602 168.642C126.152 167.052 124.712 165.442 123.352 163.762L123.342 163.752Z" fill="#631011"/>
<path d="M108.432 167.652C110.792 169.592 113.082 171.602 115.362 173.632C117.642 175.652 119.872 177.732 122.102 179.812C124.312 181.912 126.532 184.002 128.682 186.162L131.922 189.392C132.972 190.492 134.052 191.572 135.082 192.702C133.892 191.742 132.752 190.732 131.582 189.752L128.152 186.722C125.872 184.702 123.642 182.622 121.412 180.542C119.202 178.442 116.982 176.352 114.832 174.192C112.662 172.042 110.512 169.892 108.432 167.652Z" fill="#631011"/>
<path d="M115.461 166.552C117.681 168.352 119.821 170.232 121.951 172.122C124.091 174.002 126.171 175.952 128.261 177.892C130.331 179.852 132.391 181.812 134.411 183.832L137.431 186.862C138.411 187.902 139.421 188.912 140.381 189.962C139.261 189.072 138.191 188.132 137.101 187.212L133.891 184.392C131.751 182.512 129.671 180.562 127.581 178.622C125.511 176.662 123.451 174.702 121.431 172.682C119.411 170.672 117.401 168.652 115.471 166.552H115.461Z" fill="#631011"/>
<path d="M103.641 181.292C106.541 183.382 109.231 185.692 111.871 188.052C114.491 190.442 117.061 192.882 119.431 195.552C116.531 193.472 113.841 191.162 111.201 188.792C108.581 186.402 106.011 183.962 103.641 181.292Z" fill="#631011"/>
<path d="M109.522 223.961C109.522 223.961 113.612 218.641 108.812 216.361C104.012 214.081 93.6317 210.101 93.6317 210.101C93.6317 210.101 92.0018 203.181 98.4318 207.361C104.862 211.541 105.922 213.591 108.282 214.361C110.642 215.131 110.712 216.981 115.902 214.191C121.092 211.401 121.552 210.601 123.682 210.511C125.812 210.421 127.372 211.251 127.372 211.251C127.372 211.251 124.572 219.991 114.082 228.071C114.082 228.071 111.112 225.251 109.522 223.971V223.961Z" fill="#411312"/>
<path d="M88.1816 207.902C88.1816 207.902 110.262 213.832 120.032 223.752" stroke="#231F20" stroke-width="2" stroke-miterlimit="10"/>
<path d="M169.472 176.662C169.472 176.662 166.892 172.062 171.302 170.612C175.712 169.162 176.812 171.112 175.712 169.162C174.612 167.212 156.992 150.522 157.712 145.482C158.432 140.442 153.142 135.732 158.172 138.322C163.212 140.902 162.282 138.592 164.362 142.772C166.452 146.952 167.462 149.662 169.422 152.312C171.382 154.962 173.742 156.082 174.812 158.442C175.882 160.802 177.462 162.842 178.162 163.462C178.862 164.082 176.042 166.202 179.262 164.712L182.472 163.222L187.152 164.732C187.152 164.732 188.592 168.812 169.452 176.652L169.472 176.662Z" fill="#411312"/>
<path d="M183.051 170.772C183.051 170.772 158.431 157.052 157.561 134.122" stroke="#231F20" stroke-width="2" stroke-miterlimit="10"/>
<path d="M152.991 214.162C152.991 214.162 158.221 204.702 163.501 201.832C168.781 198.962 169.411 198.572 170.581 197.792L172.991 196.182L170.181 193.172C170.181 193.172 157.021 195.682 150.141 213.212L152.991 214.162Z" fill="#411312"/>
<path d="M180.599 150.573C181.276 150.105 180.94 148.444 179.848 146.862C178.756 145.281 177.321 144.378 176.644 144.846C175.967 145.313 176.303 146.974 177.396 148.556C178.488 150.137 179.922 151.04 180.599 150.573Z" fill="#631011"/>
<path d="M100.404 225.683C100.696 224.967 99.8128 223.93 98.4317 223.368C97.0507 222.805 95.6947 222.93 95.4031 223.646C95.1114 224.362 95.9946 225.398 97.3756 225.961C98.7566 226.523 100.113 226.399 100.404 225.683Z" fill="#631011" stroke="#231F20" stroke-miterlimit="10"/>
<path d="M86.6211 219.972C88.1711 220.392 89.671 220.952 91.151 221.542C92.631 222.152 94.0911 222.792 95.4911 223.572C93.9411 223.152 92.4411 222.592 90.9611 222.002C89.4911 221.392 88.0211 220.752 86.6211 219.972Z" fill="#231F20"/>
<path d="M92.4219 218.972C92.9819 219.452 93.4119 220.022 93.8119 220.602C94.2019 221.202 94.5519 221.812 94.7819 222.512C94.2219 222.032 93.7918 221.462 93.3918 220.882C93.0018 220.282 92.6519 219.672 92.4219 218.972Z" fill="#231F20"/>
<path d="M98.0912 221.012C98.2212 221.332 98.2111 221.612 98.1611 221.892C98.0911 222.162 97.9912 222.432 97.7412 222.672C97.6112 222.352 97.6211 222.072 97.6711 221.792C97.7411 221.522 97.8412 221.252 98.0912 221.012Z" fill="#231F20"/>
<path d="M96.5811 220.342C96.7911 220.722 96.8411 221.112 96.8711 221.502C96.8711 221.892 96.841 222.282 96.661 222.672C96.451 222.292 96.4011 221.902 96.3711 221.512C96.3711 221.122 96.4011 220.732 96.5811 220.342Z" fill="#231F20"/>
<path d="M100.351 221.982C100.201 222.382 99.9614 222.662 99.6914 222.922C99.4114 223.172 99.1014 223.392 98.6914 223.492C98.8414 223.092 99.0814 222.812 99.3514 222.552C99.6314 222.302 99.9414 222.082 100.351 221.982Z" fill="#231F20"/>
<path d="M103.621 223.052C103.091 223.362 102.531 223.521 101.961 223.651C101.391 223.761 100.811 223.832 100.201 223.762C100.731 223.452 101.291 223.291 101.861 223.161C102.431 223.051 103.011 222.982 103.621 223.052Z" fill="#231F20"/>
<path d="M100.781 224.632C101.761 224.442 102.731 224.412 103.711 224.412C104.691 224.432 105.661 224.482 106.641 224.692C105.661 224.882 104.691 224.912 103.711 224.912C102.731 224.892 101.761 224.842 100.781 224.632Z" fill="#231F20"/>
<path d="M101.74 226.212C103.12 226.522 104.45 226.962 105.76 227.442C107.07 227.942 108.37 228.472 109.61 229.142C108.23 228.842 106.9 228.392 105.59 227.912C104.28 227.412 102.99 226.882 101.74 226.212Z" fill="#231F20"/>
<path d="M100.951 226.172C101.561 226.602 102.051 227.132 102.511 227.682C102.961 228.242 103.381 228.832 103.691 229.512C103.081 229.082 102.591 228.552 102.131 228.002C101.681 227.442 101.261 226.852 100.951 226.172Z" fill="#231F20"/>
<path d="M100.811 226.242C101.241 226.692 101.541 227.212 101.801 227.742C102.051 228.282 102.261 228.842 102.341 229.462C101.911 229.012 101.611 228.492 101.351 227.962C101.101 227.422 100.891 226.862 100.811 226.242Z" fill="#231F20"/>
<path d="M99.5109 227.062C99.7409 227.302 99.821 227.562 99.861 227.822C99.891 228.082 99.881 228.352 99.721 228.642C99.491 228.402 99.411 228.152 99.371 227.882C99.351 227.622 99.3609 227.352 99.5109 227.062Z" fill="#231F20"/>
<path d="M98.4915 226.792C98.7215 227.032 98.8014 227.292 98.8414 227.552C98.8714 227.812 98.8614 228.082 98.7014 228.372C98.4714 228.132 98.3915 227.882 98.3515 227.612C98.3315 227.352 98.3415 227.082 98.4915 226.792Z" fill="#231F20"/>
<path d="M97.7418 226.362C97.8518 226.682 97.8118 226.952 97.7418 227.222C97.6518 227.482 97.5317 227.732 97.2617 227.932C97.1517 227.612 97.1917 227.342 97.2617 227.072C97.3517 226.812 97.4718 226.562 97.7418 226.362Z" fill="#231F20"/>
<path d="M95.2714 224.882C93.9814 224.572 92.7414 224.132 91.5114 223.652C90.2914 223.152 89.0914 222.622 87.9414 221.952C89.2314 222.262 90.4714 222.702 91.7014 223.182C92.9214 223.682 94.1214 224.212 95.2714 224.882Z" fill="#231F20"/>
<path d="M96.5909 226.412C96.0709 226.542 95.5709 226.532 95.0809 226.472C94.5909 226.402 94.1009 226.292 93.6309 226.042C94.1509 225.912 94.6509 225.922 95.1409 225.982C95.6309 226.052 96.1209 226.162 96.5909 226.412Z" fill="#231F20"/>
<path d="M170.762 133.722C171.932 135.432 172.962 137.202 173.962 139.002C174.952 140.802 175.902 142.632 176.732 144.522C175.562 142.812 174.532 141.042 173.532 139.242C172.542 137.442 171.592 135.612 170.762 133.722Z" fill="#231F20"/>
<path d="M177.241 137.302C177.371 138.242 177.351 139.172 177.291 140.102C177.221 141.032 177.111 141.952 176.851 142.862C176.721 141.922 176.741 140.992 176.801 140.062C176.871 139.132 176.981 138.212 177.241 137.302Z" fill="#231F20"/>
<path d="M181.241 143.932C181.101 144.322 180.861 144.592 180.591 144.842C180.311 145.072 180.011 145.282 179.611 145.382C179.751 144.992 179.991 144.722 180.261 144.472C180.541 144.242 180.841 144.032 181.241 143.932Z" fill="#231F20"/>
<path d="M180.271 142.021C180.141 142.541 179.891 142.981 179.621 143.401C179.331 143.811 179.001 144.201 178.561 144.501C178.691 143.971 178.931 143.531 179.211 143.121C179.501 142.711 179.831 142.321 180.271 142.021Z" fill="#231F20"/>
<path d="M182.732 146.732C182.282 146.972 181.822 147.052 181.352 147.112C180.882 147.142 180.412 147.142 179.932 146.992C180.382 146.752 180.842 146.662 181.312 146.612C181.782 146.582 182.252 146.582 182.732 146.732Z" fill="#231F20"/>
<path d="M185.131 150.462C184.391 150.302 183.721 150.012 183.061 149.692C182.411 149.352 181.781 148.982 181.221 148.472C181.961 148.632 182.631 148.922 183.291 149.242C183.941 149.582 184.571 149.952 185.131 150.462Z" fill="#231F20"/>
<path d="M181.121 149.842C182.201 150.482 183.181 151.232 184.141 152.012C185.091 152.802 186.011 153.622 186.841 154.562C185.761 153.922 184.781 153.172 183.821 152.392C182.871 151.602 181.951 150.772 181.121 149.842Z" fill="#231F20"/>
<path d="M180.852 152.242C181.932 153.692 182.892 155.222 183.812 156.772C184.722 158.332 185.602 159.902 186.342 161.552C185.252 160.102 184.301 158.572 183.381 157.022C182.471 155.462 181.592 153.892 180.852 152.242Z" fill="#231F20"/>
<path d="M180.101 151.572C180.321 152.512 180.391 153.452 180.421 154.392C180.431 155.332 180.421 156.272 180.241 157.222C180.021 156.282 179.951 155.342 179.921 154.402C179.911 153.462 179.921 152.522 180.101 151.572Z" fill="#231F20"/>
<path d="M179.912 151.542C179.942 152.342 179.832 153.112 179.682 153.882C179.512 154.642 179.312 155.392 178.962 156.122C178.932 155.322 179.042 154.552 179.192 153.782C179.362 153.022 179.562 152.272 179.912 151.542Z" fill="#231F20"/>
<path d="M178.01 151.352C178.01 151.752 177.88 152.072 177.73 152.382C177.55 152.682 177.35 152.962 177.01 153.162C177.01 152.762 177.13 152.442 177.29 152.132C177.47 151.832 177.67 151.552 178.01 151.352Z" fill="#231F20"/>
<path d="M177.211 150.262C177.211 150.662 177.081 150.982 176.931 151.292C176.751 151.592 176.551 151.872 176.211 152.072C176.211 151.672 176.331 151.352 176.491 151.042C176.671 150.742 176.871 150.462 177.211 150.262Z" fill="#231F20"/>
<path d="M176.801 149.222C176.641 149.582 176.381 149.832 176.111 150.052C175.831 150.252 175.521 150.422 175.121 150.472C175.281 150.102 175.531 149.862 175.811 149.642C176.101 149.442 176.401 149.272 176.801 149.222Z" fill="#231F20"/>
<path d="M175.511 145.712C174.511 144.332 173.651 142.872 172.811 141.392C171.991 139.912 171.201 138.402 170.551 136.832C171.551 138.212 172.411 139.672 173.251 141.152C174.071 142.632 174.861 144.142 175.511 145.712Z" fill="#231F20"/>
<path d="M175.62 148.362C175.04 148.042 174.57 147.612 174.12 147.162C173.69 146.702 173.28 146.212 172.98 145.622C173.56 145.942 174.03 146.372 174.48 146.822C174.91 147.282 175.32 147.772 175.62 148.362Z" fill="#231F20"/>
<path d="M130.601 247.372C130.601 247.372 111.881 260.042 128.491 241.742H143.691C143.691 241.742 167.061 241.182 143.691 244.272C143.691 244.272 167.901 260.042 141.441 247.932C141.441 247.932 152.141 269.362 134.401 247.102C134.401 247.102 120.321 268.482 130.601 247.372Z" fill="#FCBD75" stroke="#231F20" stroke-width="1.5" stroke-miterlimit="10"/>
<path d="M289.541 206.762C289.541 206.762 295.481 199.442 300.391 200.572C305.301 201.702 302.771 209.022 302.771 209.022L295.041 217.032L293.761 211.272L289.541 206.772V206.762Z" fill="#0D0D0D" stroke="#231F20" stroke-miterlimit="10"/>
<path d="M174.91 194.012C174.91 194.012 179.51 194.032 181.48 196.182L175.23 196.082L174.9 194.012H174.91Z" fill="#C7BCA1" stroke="#231F20" stroke-miterlimit="10"/>
<path d="M189.111 140.222C189.111 140.222 188.021 144.142 192.721 146.192C197.421 148.242 194.481 147.672 199.591 148.682C204.701 149.692 208.141 149.992 210.051 150.302C211.961 150.612 220.501 152.002 221.271 152.562C222.041 153.122 226.881 153.892 228.351 154.492C229.821 155.092 230.841 154.942 234.931 155.352C239.021 155.762 238.891 154.332 241.441 155.372C243.991 156.412 245.201 153.622 245.201 153.622L243.221 152.402L189.111 140.222Z" fill="#FFD76B"/>
<path d="M183.98 139.672L182.73 140.702L183.98 142.862L185.98 143.272L187.19 142.242L187.57 140.702L183.98 139.672Z" fill="#FFD76B"/>
<path d="M191.98 140.222C191.52 141.312 191.04 142.392 190.56 143.462L190.37 143.022C198.1 144.532 205.73 146.442 213.31 148.512C217.1 149.552 220.88 150.642 224.63 151.822C228.38 152.992 232.12 154.222 235.81 155.622C231.92 154.972 228.07 154.152 224.24 153.272C220.41 152.402 216.6 151.432 212.8 150.432C205.21 148.402 197.66 146.212 190.22 143.622L189.83 143.492L190.03 143.182C190.67 142.192 191.32 141.202 191.99 140.232L191.98 140.222Z" fill="#231F20"/>
<path d="M211 201.072L204.94 218.282C204.64 219.022 199.92 227.942 200.72 227.962L207.83 228.962C208.41 223.262 208.98 222.772 211.01 201.072H211Z" fill="#921A1D"/>
<path d="M190.791 165.082C190.791 165.082 206.491 177.702 213.471 187.752C214.121 188.682 212.771 192.332 212.771 192.332" fill="#921A1D"/>
<path d="M233.08 180.042C233.08 180.042 247.45 178.702 251.62 190.912L233.08 180.042Z" fill="#921A1D"/>
<path d="M259.282 172.331L259.752 169.371C259.752 169.371 254.122 163.641 242.762 164.871C231.402 166.091 233.612 166.091 230.002 166.371C226.392 166.651 214.652 166.751 207.712 165.081C200.772 163.411 191.142 160.271 191.142 160.271C191.142 160.271 191.282 161.301 191.142 162.051C191.002 162.801 204.372 171.011 216.392 186.971C216.392 186.971 216.012 190.421 215.922 190.991C215.832 191.561 214.232 201.701 214.142 202.081C214.052 202.461 213.062 211.561 213.062 211.561L214.422 210.721C214.422 210.721 215.922 201.781 216.392 200.571C216.862 199.361 217.422 199.101 217.522 196.841C217.622 194.581 218.362 189.321 218.362 189.321C218.362 189.321 219.602 187.691 217.012 185.041C214.422 182.391 215.712 183.361 214.512 181.521C213.312 179.681 210.002 176.671 210.002 176.671L206.342 173.531L203.622 170.771L198.832 165.901L198.792 165.421C198.792 165.421 203.422 165.741 203.802 165.901C204.182 166.061 223.322 170.811 226.982 169.591C230.642 168.371 236.742 168.531 238.712 168.621C240.682 168.711 242.282 169.431 245.752 169.621C249.222 169.811 250.072 170.091 251.662 170.751C253.252 171.411 259.262 172.351 259.262 172.351L259.282 172.331Z" fill="#921A1D"/>
<path d="M251.61 199.232C252.13 199.902 252.36 200.682 252.49 201.452C252.61 202.222 252.6 203.012 252.46 203.782C252.18 205.302 251.46 206.802 250.08 207.752C250.03 206.902 250.13 206.192 250.19 205.482C250.28 204.782 250.37 204.102 250.5 203.432C250.63 202.762 250.76 202.092 250.94 201.402C251.12 200.712 251.31 200.012 251.63 199.242L251.61 199.232Z" fill="#921A1D"/>
<path d="M184.48 173.672C184.48 173.672 199.78 190.072 200.63 190.072C201.48 190.072 203.63 191.202 203.07 192.322C202.51 193.452 200.63 200.222 200.63 200.222L191.81 222.352H193.41C193.41 222.352 195.47 220.192 195.8 219.632C196.13 219.072 197.16 216.622 197.63 216.112C198.1 215.602 200.64 207.162 200.64 207.162C200.64 207.162 204.39 194.382 204.58 194.012C204.77 193.642 206.55 190.912 201.58 187.822C196.61 184.732 191.82 178.062 191.82 178.062L185.67 171.172L184.5 173.672H184.48Z" fill="#EF384A"/>
<path d="M164.95 201.622C164.95 201.622 172.17 228.302 196.67 204.372C221.17 180.442 250.03 193.532 250.03 193.532C250.03 193.532 274.81 201.552 285.65 190.712C296.49 179.872 291.7 162.132 282.83 154.532C273.96 146.932 272.41 146.412 263.68 149.782L260.07 149.642C260.07 149.642 269.74 137.492 283.53 150.872C297.33 164.242 295.07 181.702 295.07 181.702C295.07 181.702 290.14 204.512 261 200.002C233.18 195.702 236.41 187.422 212.51 197.462C210.29 198.392 208.12 199.602 206.53 201.402C191.12 218.932 174.67 215.922 174.67 215.922C172.87 215.322 166.07 216.172 162.03 204.722C162.03 204.722 161.83 202.612 164.93 201.632L164.95 201.622Z" fill="#8D7978" stroke="#231F20" stroke-width="1.5" stroke-miterlimit="10"/>
<path d="M126.531 219.972L140.861 240.192H135.111L126.531 219.972Z" fill="#921A1D"/>
<path d="M123.951 221.052L120.621 224.442L128.771 240.062L123.951 221.052Z" fill="#EF384A"/>
<path d="M290.151 220.202C290.151 220.202 285.891 225.362 285.931 225.642C285.971 225.922 277.301 230.332 276.081 230.142C274.861 229.952 272.981 230.552 270.921 228.962C268.861 227.372 267.451 210.432 262.191 207.742C258.741 205.972 263.971 222.522 262.281 221.222C260.591 219.922 258.241 219.542 258.901 221.702C259.561 223.862 264.301 240.652 273.051 237.702C281.801 234.752 290.151 231.792 290.151 231.792L297.351 228.472L294.491 218.392C294.491 218.392 291.681 219.322 290.151 220.202Z" fill="#AFAFAE"/>
<path d="M274.16 217.382L289.33 208.122L291.95 210.782L274.16 217.382Z" fill="#AFAFAE"/>
<path d="M124.24 29.1221C127.66 27.9421 131.24 27.2821 134.95 27.2921C136.8 27.2921 138.7 27.4821 140.62 28.1821C142.68 28.9721 144.01 30.2721 145.4 31.3421C148.09 33.5421 150.79 35.5521 153.84 35.2521C154.22 35.2721 154.59 35.1021 154.97 35.0521C155.36 35.0021 155.72 34.8221 156.1 34.6821C156.88 34.4421 157.58 33.9621 158.32 33.5521C159.05 33.1121 159.72 32.5421 160.44 32.0421C161.1 31.4621 161.77 30.8821 162.49 30.3121C162.04 31.0921 161.55 31.8521 161.05 32.6221C160.47 33.3221 159.9 34.0521 159.24 34.7121C157.89 35.9921 156.23 37.1221 154.22 37.5821C152.21 38.0821 150.01 37.6421 148.24 36.8121C146.44 35.9821 144.93 34.8221 143.53 33.7021C142.14 32.5921 140.83 31.3721 139.56 30.8421C138.17 30.2221 136.5 29.8921 134.81 29.6521C131.41 29.2221 127.86 29.2021 124.26 29.1621L124.24 29.1221Z" fill="#231F20"/>
<path d="M91.9517 165.932C91.9217 166.942 91.6616 167.562 91.1816 167.602C89.5716 167.722 83.2517 174.022 79.4717 177.942C77.7417 179.732 76.5416 181.022 76.5416 181.022C76.5416 181.022 69.3216 178.762 62.1816 170.132C55.0516 161.492 61.3417 153.522 61.3417 153.522C61.3417 153.522 69.8816 141.792 80.3016 147.602C88.5816 152.232 92.0617 162.022 91.9517 165.932Z" fill="#EBDBD9" stroke="#231F20" stroke-width="2" stroke-miterlimit="10"/>
<path d="M91.9604 165.942C91.9304 166.952 91.6704 167.572 91.1904 167.612C90.8004 167.642 90.1304 168.032 89.2804 168.672C87.2704 170.192 84.2804 173.072 81.7104 175.672C80.9104 176.472 80.1605 177.252 79.4805 177.952C77.8205 176.922 76.2704 175.472 75.0004 173.662C73.6404 171.732 72.7804 169.642 72.4004 167.622C74.0604 164.102 76.1904 160.102 78.5704 156.932C82.5004 156.292 87.2004 158.552 90.2804 162.922C90.9604 163.902 91.5204 164.912 91.9604 165.942Z" fill="#5C2819" stroke="#231F20" stroke-width="1.5" stroke-miterlimit="10"/>
<path d="M68.6713 175.752C68.6713 175.752 76.4613 153.792 84.8113 151.162C84.8113 151.162 74.3013 140.182 63.3213 150.222C52.3413 160.262 66.1413 176.222 68.6713 175.752Z" fill="#E99641"/>
<path d="M68.5711 175.632C68.5111 175.662 68.5711 175.522 68.5711 175.462L68.6211 175.232L68.7211 174.762L68.9411 173.832C69.0811 173.212 69.2611 172.602 69.4411 171.992C69.8011 170.782 70.191 169.572 70.631 168.382C71.511 166.002 72.531 163.672 73.751 161.422C74.931 159.152 76.361 156.992 78.141 155.072C79.021 154.112 80.0011 153.222 81.0811 152.442C82.1611 151.672 83.341 151.002 84.661 150.632L84.431 151.542C81.501 148.352 76.9011 146.372 72.7111 146.962C72.1911 147.072 71.671 147.072 71.171 147.262L69.6911 147.732C69.2211 147.962 68.761 148.192 68.291 148.402C67.811 148.582 67.4111 148.952 66.9611 149.212C65.2511 150.362 63.601 151.792 62.551 153.462C60.311 156.762 60.3011 161.032 61.6211 165.072C62.2711 167.092 63.2211 169.062 64.3611 170.922C64.9211 171.862 65.561 172.752 66.251 173.612C66.601 174.032 66.9611 174.452 67.3611 174.812C67.5611 174.992 67.7611 175.172 67.9811 175.322C68.1911 175.502 68.4511 175.552 68.5811 175.652L68.5711 175.632ZM68.761 175.862C68.581 175.932 68.3111 175.942 68.1911 175.902C68.0211 175.882 67.8811 175.842 67.7311 175.792C67.4311 175.702 67.171 175.562 66.901 175.412C66.371 175.132 65.901 174.782 65.431 174.422C64.501 173.702 63.671 172.862 62.891 171.992C61.351 170.222 60.0311 168.232 59.0711 166.022C58.1211 163.822 57.471 161.382 57.561 158.842C57.621 156.312 58.4711 153.722 59.9911 151.692C60.3411 151.162 60.7911 150.712 61.1911 150.232C61.6411 149.802 62.081 149.342 62.561 148.972C63.551 148.262 64.441 147.442 65.561 146.902C66.111 146.632 66.6111 146.272 67.2011 146.082C67.7811 145.862 68.3711 145.672 68.9511 145.482C69.5511 145.352 70.171 145.262 70.771 145.162C71.371 145.052 72.0011 145.122 72.6011 145.092C75.0411 145.162 77.341 145.902 79.431 146.902C81.531 147.922 83.4111 149.232 85.2111 150.772L85.881 151.342L84.9811 151.682C83.9111 152.092 82.971 152.852 82.151 153.702C81.321 154.552 80.611 155.532 79.921 156.522C78.551 158.512 77.321 160.612 76.031 162.712L74.2011 165.932L72.421 169.202L70.641 172.502L69.7411 174.152L69.281 174.982L68.771 175.872L68.761 175.862Z" fill="#231F20"/>
<path d="M80.7202 166.202C82.8244 166.202 84.5302 164.496 84.5302 162.392C84.5302 160.288 82.8244 158.582 80.7202 158.582C78.616 158.582 76.9102 160.288 76.9102 162.392C76.9102 164.496 78.616 166.202 80.7202 166.202Z" fill="#FAF7F6"/>
<path d="M78.3251 168.421C78.5157 167.587 77.592 166.664 76.2621 166.361C74.9321 166.057 73.6996 166.487 73.5091 167.322C73.3185 168.156 74.2422 169.079 75.5721 169.383C76.902 169.686 78.1346 169.256 78.3251 168.421Z" fill="#FAF7F6"/>
<path d="M89.9603 167.872C87.6503 169.782 84.2202 173.402 81.2702 176.672C80.5102 176.082 79.8003 175.342 79.1603 174.472C76.2503 170.512 76.0403 165.392 78.7003 163.042C81.3603 160.692 85.8803 161.982 88.8003 165.942C89.2603 166.562 89.6403 167.212 89.9603 167.862V167.872Z" fill="#010101"/>
<path d="M137.64 130.743C137.64 132.703 137.43 134.613 137.04 136.423C136.79 136.573 136.53 136.723 136.27 136.883C136.07 137.003 135.86 137.133 135.66 137.263C132.01 139.563 127.98 142.863 124.36 146.083C123.6 146.763 122.85 147.443 122.13 148.103C120.18 149.903 118.42 151.603 116.99 153.013C107.77 151.753 100.6 142.263 100.6 130.743C100.6 118.353 108.89 108.312 119.12 108.312C129.35 108.312 137.64 118.353 137.64 130.743Z" fill="white" stroke="#231F20" stroke-width="2" stroke-miterlimit="10"/>
<path d="M136.261 136.882C131.701 139.652 126.451 144.112 122.121 148.102C117.771 146.782 114.011 142.772 112.681 137.392C111.941 134.402 112.051 131.432 112.851 128.842C117.941 126.502 124.121 124.542 131.291 123.822C133.391 125.762 135.021 128.462 135.811 131.642C136.251 133.422 136.391 135.192 136.261 136.882Z" fill="#472914" stroke="#231F20" stroke-miterlimit="10"/>
<path d="M126.31 132.782C128.552 132.782 130.37 130.777 130.37 128.302C130.37 125.828 128.552 123.822 126.31 123.822C124.068 123.822 122.25 125.828 122.25 128.302C122.25 130.777 124.068 132.782 126.31 132.782Z" fill="white" stroke="#231F20" stroke-width="0.25" stroke-miterlimit="10"/>
<path d="M136.14 123.513C119.33 123.573 108.16 130.562 101.54 135.622C101.24 134.052 101.09 132.423 101.09 130.743C101.09 118.353 109.38 108.312 119.61 108.312C127.75 108.312 133.66 114.673 136.14 123.513Z" fill="#ED9F43"/>
<path d="M136.26 123.602L133.92 124.012C133.01 124.132 132.31 124.272 131.53 124.412C130 124.642 128.51 125.002 127.01 125.302C124.02 125.972 121.1 126.842 118.26 127.882C115.41 128.932 112.61 130.092 109.82 131.362C107.03 132.632 104.33 134.162 101.83 135.992L101.2 136.452L101.08 135.702C100.65 133.132 100.5 130.532 100.66 127.922C100.8 125.312 101.26 122.692 102.14 120.172C103.01 117.652 104.36 115.262 106.15 113.192C107.93 111.132 110.14 109.362 112.69 108.202C115.23 107.042 118.12 106.512 120.92 106.792C122.33 106.922 123.72 107.252 125.04 107.752C126.35 108.282 127.59 108.972 128.7 109.802C130.93 111.482 132.63 113.672 133.87 116.012C134.48 117.192 135 118.412 135.39 119.662C135.59 120.282 135.76 120.912 135.91 121.552C135.99 121.862 136.06 122.182 136.12 122.502C136.2 122.842 136.23 123.292 136.26 123.592V123.602ZM136.02 123.422C135.86 123.112 135.72 122.942 135.61 122.672L135.21 121.802C134.94 121.232 134.66 120.662 134.35 120.112C133.73 119.012 133.09 117.942 132.35 116.962C130.9 114.972 129.17 113.242 127.17 112.012C123.22 109.492 118.2 109.292 113.94 111.072C111.8 111.952 109.84 113.332 108.18 115.052C106.53 116.772 105.16 118.802 104.05 120.982C101.83 125.342 100.96 130.602 102 135.532L101.24 135.242C103.7 133.312 106.15 131.322 108.81 129.572C111.46 127.812 114.34 126.382 117.36 125.362C120.38 124.352 123.5 123.602 126.67 123.292C128.25 123.132 129.83 123.022 131.41 123.052C132.19 123.072 133.03 123.032 133.68 123.152C134.38 123.232 135.15 123.362 136.01 123.422H136.02Z" fill="#231F20"/>
<path d="M120.821 137.45C122.189 136.729 122.632 134.881 121.811 133.322C120.989 131.764 119.214 131.085 117.846 131.806C116.478 132.527 116.035 134.375 116.856 135.933C117.678 137.492 119.453 138.171 120.821 137.45Z" fill="white"/>
<path d="M136.65 137.122C132.69 139.722 128.31 143.452 124.38 147.092C123.34 146.212 122.4 145.082 121.67 143.742C118.93 138.822 119.89 132.932 123.8 130.582C127.71 128.232 133.08 130.322 135.81 135.242C136.15 135.852 136.43 136.482 136.66 137.122H136.65Z" fill="#010101"/>
<path d="M128.251 112.392C126.581 111.362 124.841 110.742 123.131 110.332C121.411 109.962 119.711 109.882 118.031 110.032C114.671 110.332 111.391 111.572 108.181 113.172L108.701 112.722C107.301 114.322 105.871 115.662 104.271 116.922C102.681 118.172 100.951 119.292 99.0609 120.112C97.1809 120.932 95.091 121.492 92.981 121.292C91.941 121.212 90.9109 120.922 90.0009 120.472C89.0909 120.012 88.3009 119.372 87.6309 118.672C88.4909 119.142 89.3709 119.502 90.2709 119.722C91.1709 119.922 92.0909 119.932 92.9709 119.842C93.8509 119.742 94.7209 119.502 95.5409 119.152C96.3709 118.822 97.1609 118.402 97.9309 117.922C99.4509 116.942 100.861 115.772 102.191 114.492C103.491 113.222 104.781 111.802 105.841 110.422L106.001 110.212L106.361 109.972C108.031 108.862 109.861 107.952 111.831 107.302C113.791 106.662 115.901 106.312 118.021 106.412C120.131 106.512 122.251 107.062 124.051 108.112C125.851 109.132 127.411 110.582 128.291 112.372L128.251 112.392Z" fill="#231F20"/>
<path d="M179.541 194.902L181.191 191.492" stroke="#231F20" stroke-miterlimit="10"/>
<path d="M183.39 192.112L181.49 196.182" stroke="#231F20" stroke-miterlimit="10"/>
<path d="M186.191 192.912L184.631 196.762" stroke="#231F20" stroke-miterlimit="10"/>
<path d="M189 193.702L187.9 197.672" stroke="#231F20" stroke-miterlimit="10"/>
<path d="M190.791 198.021L191.561 194.771" stroke="#231F20" stroke-miterlimit="10"/>
<path d="M194.751 195.092L193.721 199.292" stroke="#231F20" stroke-miterlimit="10"/>
<path d="M176.352 194.232L176.641 195.782" stroke="#231F20" stroke-miterlimit="10"/>
<path d="M170.951 181.952L174.181 177.752" stroke="#231F20" stroke-miterlimit="10"/>
<path d="M172.451 183.552L175.861 178.832" stroke="#231F20" stroke-miterlimit="10"/>
<path d="M174.16 184.852L176.97 181.192" stroke="#231F20" stroke-miterlimit="10"/>
<path d="M175.861 186.762L179.031 183.552" stroke="#231F20" stroke-miterlimit="10"/>
<path d="M176.971 188.052L179.811 186.762" stroke="#231F20" stroke-miterlimit="10"/>
<path d="M178.391 189.872L181.191 188.052" stroke="#231F20" stroke-miterlimit="10"/>
<path d="M110.021 57.2717C110.021 57.2717 103.391 74.8117 104.521 90.5817C104.521 90.5817 100.021 85.1317 102.831 77.2417C102.831 77.2417 92.8509 89.4517 84.4009 94.8017C75.9509 100.152 76.5209 100.992 72.2909 102.122C68.0709 103.252 55.9609 112.542 55.9609 112.542C55.9609 112.542 57.5009 104.402 74.4309 97.7217C89.5409 91.7517 101.851 74.0917 101.851 74.0917L110.021 57.2617V57.2717Z" fill="#432613" stroke="#231F20" stroke-miterlimit="10"/>
<path d="M82.0404 116.272L88.7205 121.102C89.8205 121.882 91.0704 122.562 92.0204 123.342L92.2004 123.482L92.3304 123.572C92.4004 123.642 92.5504 123.692 92.6604 123.762C92.9104 123.892 93.1905 123.972 93.4905 124.062C94.0805 124.232 94.7404 124.332 95.4504 124.412L95.5204 124.602C94.9204 125.092 94.2004 125.362 93.4204 125.462C93.0304 125.522 92.6204 125.502 92.2104 125.462C92.0004 125.422 91.8104 125.392 91.5804 125.302L91.2405 125.172L90.9805 125.042C89.6205 124.342 88.7304 123.272 87.7104 122.332C86.7004 121.382 85.7205 120.412 84.7405 119.432C83.7905 118.432 82.8204 117.442 81.9004 116.412L82.0304 116.262L82.0404 116.272Z" fill="#231F20"/>
<path d="M68.5115 125.982C69.3515 126.672 70.0915 127.452 70.8315 128.252C71.5515 129.062 72.2416 129.912 72.8516 130.832C73.4516 131.742 74.2015 132.642 74.4515 133.762C74.7115 134.862 74.7915 136.082 74.3315 137.202H74.1315C73.4915 136.212 73.0315 135.352 72.5715 134.452C72.0915 133.572 71.8815 132.562 71.4515 131.612C71.0215 130.672 70.5315 129.752 70.0115 128.832C69.5015 127.902 68.9416 127.002 68.3516 126.112L68.5015 125.972L68.5115 125.982Z" fill="#231F20"/>
<path d="M138.372 161.382C138.372 161.382 151.822 174.702 137.592 189.232C123.362 203.762 119.512 198.322 108.072 196.862C93.9317 195.062 113.472 204.502 113.472 204.502C113.472 204.502 121.832 204.812 124.182 204.502C126.532 204.192 134.252 200.942 136.322 199.652C138.392 198.362 144.692 185.142 145.992 188.952C146.222 189.632 149.242 181.552 148.882 180.172C148.522 178.792 149.962 177.542 149.602 175.662C149.242 173.782 146.882 166.382 146.882 166.382L141.712 159.872C141.712 159.872 133.152 155.662 138.392 161.382H138.372Z" fill="#411312"/>
<path d="M138.741 165.062C160.861 181.372 129.601 213.772 108.061 196.862C80.8214 177.012 113.281 146.842 138.741 165.062Z" stroke="#231F20" stroke-width="2" stroke-miterlimit="10"/>
<defs>
<radialGradient id="paint0_radial_1891_1780" cx="0" cy="0" r="1" gradientUnits="userSpaceOnUse" gradientTransform="translate(106.373 98.3121) rotate(92.2069) scale(11.5234 20.7422)">
<stop stop-color="#EA3741" stop-opacity="0.9"/>
<stop offset="1" stop-color="#FF6D6D" stop-opacity="0"/>
</radialGradient>
<radialGradient id="paint1_radial_1891_1780" cx="0" cy="0" r="1" gradientUnits="userSpaceOnUse" gradientTransform="translate(52.373 149.312) rotate(92.2069) scale(11.5234 20.7422)">
<stop stop-color="#EA3741" stop-opacity="0.9"/>
<stop offset="1" stop-color="#FF6D6D" stop-opacity="0"/>
</radialGradient>
<radialGradient id="paint2_radial_1891_1780" cx="0" cy="0" r="1" gradientUnits="userSpaceOnUse" gradientTransform="translate(136.862 143.36) rotate(92.2069) scale(17.4033 31.3259)">
<stop stop-color="#EA3741" stop-opacity="0.9"/>
<stop offset="1" stop-color="#FF6D6D" stop-opacity="0"/>
</radialGradient>
<radialGradient id="paint3_radial_1891_1780" cx="0" cy="0" r="1" gradientUnits="userSpaceOnUse" gradientTransform="translate(72.4573 121.36) rotate(92.2069) scale(17.4033 31.3259)">
<stop stop-color="#EA3741" stop-opacity="0.9"/>
<stop offset="1" stop-color="#FF6D6D" stop-opacity="0"/>
</radialGradient>
<radialGradient id="paint4_radial_1891_1780" cx="0" cy="0" r="1" gradientUnits="userSpaceOnUse" gradientTransform="translate(92.1796 178.717) rotate(92.2069) scale(17.4033 31.3259)">
<stop stop-color="#EA3741" stop-opacity="0.9"/>
<stop offset="1" stop-color="#FF6D6D" stop-opacity="0"/>
</radialGradient>
</defs>
</svg>
