<svg width="209" height="406" viewBox="0 0 209 406" fill="none" xmlns="http://www.w3.org/2000/svg">
<path d="M104.852 212.212L119.462 200.982L135.632 203.792L135.802 216.982L134.752 227.772H126.062L104.852 212.212Z" fill="#F1A244"/>
<path d="M97.0605 308.672C97.0605 308.672 85.2305 313.172 85.2305 319.372C85.2305 325.572 90.0205 368.922 95.6505 379.342C95.6505 379.342 110.01 379.062 112.54 377.932L102.69 330.062C102.69 330.062 105.22 327.532 104.38 325.562C103.54 323.592 106.63 326.122 106.63 326.122L123.521 318.802C123.521 318.802 108.88 316.832 97.0505 308.662L97.0605 308.672Z" fill="#AFB0AE" stroke="#231F20" stroke-width="2" stroke-miterlimit="10"/>
<path d="M166.32 320.223L157.87 336.273C157.87 336.273 168.85 377.663 169.7 379.353L152.24 381.043C152.24 381.043 139.01 350.353 137.6 338.813C137.6 338.813 134.5 332.333 140.42 320.233C140.42 320.233 157.88 321.643 166.32 320.233V320.223Z" fill="#AFB0AE" stroke="#231F20" stroke-width="2" stroke-miterlimit="10"/>
<path d="M9.99023 117.503C9.99023 117.503 17.6702 135.613 23.7202 139.673C29.7802 143.723 39.5103 164.563 39.5103 164.563L39.5602 142.853L33.9302 125.563L22.2603 110.633C22.2603 110.633 13.5102 119.223 9.99023 117.503Z" fill="#271711" stroke="#231F20" stroke-width="2" stroke-miterlimit="10"/>
<path d="M150.081 141.513L115.251 90.6525C114.861 90.0825 114.141 89.8425 113.481 90.0525L32.9311 116.293C32.7611 116.353 25.9011 116.853 25.7211 116.853L2.69115 116.533C2.13115 116.533 1.81113 115.893 2.14113 115.443C3.88113 113.053 7.78115 107.053 7.62115 101.703C7.33115 92.3225 9.59116 80.0725 23.0712 57.9525C23.0912 57.9225 23.1111 57.8925 23.1211 57.8525C23.8511 56.3925 44.2312 23.5825 81.4012 21.6025C81.5512 21.6025 81.8012 21.6325 81.9412 21.6825L86.4412 22.8125L85.5511 22.0625C84.6311 21.8525 84.0911 21.4125 84.4811 20.5625C84.9011 19.6525 85.4812 19.7225 86.5912 20.1225C89.1212 21.0225 92.7112 22.2725 96.8312 23.7025C97.7512 24.0225 86.1612 2.58253 91.3412 9.28253C97.7112 17.5225 104.141 21.3625 103.751 19.0425C102.471 11.3525 106.421 0.602536 106.301 2.15254C104.631 24.3025 131.161 35.8325 137.001 38.5325C138.001 38.9925 139.141 38.2925 139.181 37.1925C139.401 31.4725 140.521 19.1125 146.111 38.0625C146.381 38.9925 147.361 39.5225 148.281 39.2425C153.001 37.8025 165.211 34.4825 152.761 42.9625C151.971 43.5025 151.851 44.6225 152.521 45.3125C158.841 51.8425 185.281 81.8925 173.181 116.693C173.151 116.773 173.131 116.853 173.121 116.933L170.131 135.263C170.041 135.833 169.631 136.313 169.081 136.493L151.811 142.113C151.151 142.323 150.431 142.083 150.041 141.513H150.081Z" fill="#432A17" stroke="#231F20" stroke-width="3" stroke-miterlimit="10"/>
<path d="M25.7214 116.863C25.7214 116.863 25.2615 131.823 36.3615 149.523C36.3615 149.523 39.5414 153.823 40.8514 170.563C40.8514 170.563 38.8615 206.153 93.2715 213.303C93.2715 213.303 158.581 219.273 160.652 151.083C160.652 151.083 173.991 163.983 179.161 130.583C179.471 128.553 179.181 126.443 178.111 124.683C177.041 122.923 175.031 121.173 171.431 121.343C167.831 121.513 164.351 123.723 162.381 126.913C160.961 129.203 159.811 132.123 160.691 134.843L163.021 125.043L154.141 140.183C154.141 140.183 134.501 121.703 128.581 101.723C128.581 101.723 121.701 85.7927 123.701 72.7127C123.911 71.3227 122.181 70.5027 121.231 71.5427C115.121 78.2327 103.151 88.7127 86.9915 90.4027C62.9315 92.9127 71.7115 85.3127 40.0615 104.503L25.7315 116.873L25.7214 116.863Z" fill="#FCBD74" stroke="black" stroke-width="3" stroke-miterlimit="10"/>
<path d="M134.752 72.3625L148.542 87.4125C148.542 87.4125 149.902 71.5725 154.832 79.4425C154.832 79.4425 154.672 69.8625 158.632 67.4725C158.632 67.4725 149.492 53.9425 145.402 52.3125C145.402 52.3125 152.972 64.6525 141.402 63.6825L134.752 72.3625Z" fill="white" stroke="#231F20" stroke-miterlimit="10"/>
<path d="M129.67 46.7721C129.67 46.7721 119.97 33.3521 97.8704 36.4021C97.8704 36.4021 116.14 47.0321 98.7804 46.4721C98.7804 46.4721 100.23 56.3621 87.9404 56.8121C87.9404 56.8121 85.0604 60.7121 109.26 64.0821C109.26 64.0821 108.06 56.7721 114.29 57.7021C120.52 58.6321 109.56 46.8021 129.68 46.7621L129.67 46.7721Z" fill="white" stroke="#231F20" stroke-miterlimit="10"/>
<path d="M122.962 72.6522C126.402 65.0222 137.322 49.9922 137.322 49.9922C137.322 49.9922 115.552 74.4222 93.5021 78.0822C71.4521 81.7422 64.4921 77.2422 55.0221 83.4322C45.5521 89.6222 24.6521 114.262 2.16211 115.462H24.7921C24.7921 115.462 47.9421 95.1222 63.5721 89.8222C72.6921 86.7322 94.6821 96.2522 119.212 71.7522L131.762 58.0122" fill="#271710"/>
<path d="M176.092 137.324C177.857 133.853 177.229 129.992 174.689 128.7C172.149 127.408 168.659 129.174 166.894 132.645C165.128 136.115 165.756 139.976 168.296 141.268C170.837 142.56 174.327 140.794 176.092 137.324Z" fill="#F1A244"/>
<path d="M168.79 144.313C167.59 143.243 166.67 141.893 165.97 140.433C165.29 138.963 164.82 137.333 164.83 135.613C164.83 133.913 165.37 132.113 166.49 130.783C167.57 129.433 169.11 128.613 170.66 128.263C169.48 129.343 168.43 130.423 167.77 131.663C167.09 132.883 166.84 134.233 166.82 135.623C166.82 137.013 167.06 138.453 167.42 139.903C167.79 141.353 168.27 142.803 168.77 144.313H168.79Z" fill="#231F20"/>
<path d="M165.452 134.883C166.112 134.233 167.102 133.993 168.062 134.103C169.042 134.213 169.962 134.743 170.612 135.443C171.292 136.133 171.682 136.993 171.932 137.833C172.022 138.263 172.092 138.703 172.122 139.143C172.112 139.593 172.102 140.023 171.992 140.473C171.662 140.133 171.422 139.793 171.182 139.463C170.952 139.133 170.692 138.823 170.492 138.493C170.022 137.893 169.622 137.293 169.152 136.833C168.242 135.873 167.212 135.213 165.432 134.893L165.452 134.883Z" fill="#231F20"/>
<path d="M114.602 209.933C114.602 209.933 144.182 196.593 150.692 166.883C157.202 137.173 158.822 153.053 158.822 153.053C158.822 153.053 161.362 199.753 114.602 209.933Z" fill="#F1A244"/>
<path d="M160.271 138.392L155.181 145.932C155.181 145.932 137.421 124.062 133.171 119.522C133.171 119.522 117.251 107.892 115.271 95.4522C114.941 93.3822 112.651 92.2822 110.831 93.3322C104.381 97.0322 92.3211 103.172 84.5511 102.372C73.5211 101.232 56.0712 98.3922 45.3412 112.592C34.7712 126.592 35.7211 122.782 35.7211 122.782L31.9412 137.602C31.9412 137.602 29.3412 133.622 26.7012 117.292C26.7012 117.292 40.5311 105.292 45.4811 102.682C45.4811 102.682 55.7912 96.1322 62.7712 93.2022C64.2212 92.5922 69.5912 91.1822 71.1512 91.3622C78.0612 92.1322 100.621 93.7622 118.681 75.8622C118.751 75.7922 118.811 75.7222 118.881 75.6522L122.991 71.7422C123.341 72.1822 123.491 72.7422 123.411 73.3022C122.781 77.3922 119.781 95.8122 138.211 124.212L154.441 142.602L159.021 134.802L160.241 138.392H160.271Z" fill="#F1A244"/>
<path d="M65.5517 203.792C65.5517 203.792 51.6417 190.822 49.1817 178.402C46.7117 165.982 42.4117 163.832 42.2217 167.612C41.9917 172.152 42.1517 192.082 65.5517 203.792Z" fill="#FED5A3"/>
<path d="M101.425 202.827C103.83 202.043 105.514 200.591 105.185 199.583C104.857 198.574 102.641 198.392 100.236 199.175C97.8306 199.959 96.1471 201.411 96.4754 202.419C96.8038 203.428 99.0198 203.61 101.425 202.827Z" fill="#F1A244"/>
<path d="M115.012 66.2522C115.542 65.2422 116.172 64.3822 116.822 63.5422C117.482 62.7122 118.162 61.9322 118.872 61.1722C119.582 60.4222 120.312 59.6922 121.062 58.9722C121.812 58.2522 122.572 57.5722 123.382 56.7822C123.332 57.9422 122.842 58.9922 122.302 59.9422C121.742 60.8922 121.072 61.7622 120.332 62.5422C119.592 63.3322 118.782 64.0422 117.902 64.6722C117.012 65.2922 116.092 65.8622 115.012 66.2422V66.2522Z" fill="#231F20"/>
<path d="M121.512 51.073C121.212 50.413 121.572 49.643 122.052 49.173C122.552 48.683 123.172 48.403 123.782 48.283C124.392 48.163 125.002 48.193 125.582 48.343C126.162 48.503 126.702 48.763 127.192 49.223C126.612 49.593 126.082 49.753 125.582 49.913C125.082 50.063 124.612 50.163 124.162 50.243L122.892 50.493C122.472 50.593 122.032 50.673 121.502 51.073H121.512Z" fill="#231F20"/>
<path d="M127.612 78.0725C127.612 78.0725 136.732 106.932 150.442 115.822C155.132 118.862 166.072 116.872 166.072 116.872L154.372 137.562C153.542 138.982 138.182 118.463 137.332 117.062C124.752 96.3725 126.222 80.8825 127.622 78.0625L127.612 78.0725Z" fill="#271710"/>
<path d="M85.7013 159.663C87.1513 168.953 84.3813 184.453 79.1313 177.443C77.2413 174.913 83.8813 170.013 80.5213 161.233C76.7113 151.263 71.1713 146.323 74.3113 145.943C77.4513 145.563 84.3813 151.173 85.7013 159.663Z" fill="#F1A244"/>
<path d="M77.9219 147.883C79.5119 149.283 80.7619 151.043 81.7719 152.903C82.7819 154.773 83.5719 156.773 84.0519 158.853C84.5519 160.923 84.8019 163.063 84.7219 165.193C84.7019 167.323 84.2919 169.433 83.6219 171.423C83.4619 169.313 83.4319 167.273 83.1619 165.263C82.9619 163.253 82.5619 161.273 82.1119 159.323C81.1919 155.403 79.7519 151.653 77.9219 147.883Z" fill="#231F20"/>
<path d="M106.332 150.072C106.882 148.992 107.732 148.122 108.682 147.392C109.642 146.672 110.762 146.132 111.962 145.822C113.162 145.512 114.482 145.532 115.682 145.852C116.902 146.152 117.952 146.912 118.722 147.812C117.512 147.632 116.492 147.362 115.442 147.412C114.412 147.412 113.422 147.522 112.432 147.772C110.442 148.262 108.522 149.142 106.332 150.072Z" fill="#231F20"/>
<path d="M107.481 109.082V104.202C107.481 104.202 98.0906 106.832 83.8306 100.452C83.8306 100.452 83.0806 105.332 87.2106 109.082C87.2106 109.082 95.8405 112.832 107.481 109.082Z" fill="#442915" stroke="#231F20" stroke-width="1.5" stroke-miterlimit="10"/>
<path d="M50.4106 102.322C50.4106 102.322 38.0206 121.472 33.1406 122.972C33.1406 122.972 34.2706 128.232 39.1506 127.102C44.0306 125.972 53.7006 115.332 53.7006 110.752C53.7006 106.172 54.9206 106.832 50.4206 102.322H50.4106Z" fill="#442915" stroke="#231F20" stroke-width="1.5" stroke-miterlimit="10"/>
<path d="M67.4713 160.483C66.2013 161.503 65.1213 162.173 64.2213 162.963C63.7613 163.353 63.3813 163.763 63.0013 164.243C62.5813 164.713 62.3114 165.313 61.8414 166.023C61.4614 165.303 61.3313 164.433 61.5613 163.603C61.7713 162.783 62.2613 161.993 62.9113 161.453C63.5513 160.903 64.3114 160.543 65.0914 160.363C65.8714 160.203 66.6813 160.183 67.4713 160.483Z" fill="#231F20"/>
<path d="M67.7219 155.133C65.8419 155.743 64.0219 156.493 62.2819 157.373C61.4019 157.793 60.542 158.253 59.702 158.723C58.852 159.183 58.022 159.673 57.202 160.183C56.392 160.703 55.6219 161.283 54.8719 161.893C54.1219 162.483 53.3219 162.993 52.4719 163.433C51.6019 163.843 50.7419 164.283 49.8019 164.633C48.8519 164.983 47.912 165.353 46.762 165.543L46.502 165.243C47.302 163.123 48.6619 161.473 50.2419 160.123C51.7819 158.693 53.872 158.123 55.762 157.333C57.662 156.553 59.6319 155.943 61.6219 155.483C63.6219 155.073 65.6319 154.723 67.6719 154.733L67.7219 155.133Z" fill="#F1A244"/>
<path d="M46.4611 151.743C51.1711 150.733 55.9911 150.243 60.8611 150.323C63.3011 150.373 65.7511 150.623 68.2211 151.273C69.4511 151.583 70.6911 152.133 71.8611 152.943C72.1511 153.133 72.3811 153.333 72.6611 153.593C72.8011 153.723 72.9411 153.863 73.1111 154.093L73.2511 154.323C73.3111 154.423 73.3711 154.583 73.4011 154.713C73.4311 154.823 73.4411 154.953 73.4411 155.083C73.4411 155.193 73.4311 155.343 73.3711 155.513C73.2511 155.863 73.0811 156.033 72.8711 156.203C72.7111 156.323 72.5811 156.373 72.4511 156.423C72.3611 156.453 72.2611 156.483 72.1711 156.503C72.0411 156.523 71.8911 156.553 71.7911 156.553C71.5711 156.573 71.3911 156.563 71.2211 156.563C70.8811 156.563 70.5611 156.533 70.2511 156.513C65.4811 155.983 60.8611 155.763 56.2811 156.633C51.7211 157.473 47.3811 159.453 43.6211 162.483C46.6311 158.703 51.0511 155.983 55.8411 154.733C58.2311 154.063 60.7111 153.793 63.1711 153.683C65.6311 153.603 68.1111 153.823 70.4511 154.023C70.7411 154.053 71.0211 154.073 71.2811 154.083C71.4011 154.083 71.5311 154.083 71.6111 154.083C71.6611 154.083 71.6611 154.083 71.6811 154.083C71.6611 154.083 71.6411 154.083 71.6211 154.103C71.5611 154.123 71.4911 154.153 71.4011 154.223C71.2511 154.333 71.1311 154.463 71.0311 154.733C70.9611 155.013 70.9611 155.123 71.0111 155.313C71.0111 155.373 71.0611 155.463 71.0811 155.493C71.0811 155.503 71.0911 155.523 71.1011 155.533C71.1011 155.523 71.0311 155.453 70.9511 155.373C70.7911 155.223 70.5711 155.013 70.3611 154.883C69.5711 154.323 68.6011 153.863 67.5211 153.533C65.3911 152.833 63.0611 152.533 60.7211 152.263C56.0311 151.823 51.2511 151.763 46.4411 151.743H46.4611Z" fill="#231F20"/>
<path d="M118.531 136.193C116.911 137.473 115.331 138.783 113.831 140.173C112.311 141.543 110.841 142.963 109.421 144.403C107.991 145.853 106.831 147.533 105.311 148.853C103.771 150.173 102.271 151.523 100.351 152.643L100.111 152.463C100.411 151.403 100.821 150.383 101.351 149.463C101.861 148.523 102.451 147.633 103.111 146.813C103.751 145.963 104.521 145.243 105.321 144.563L107.821 142.623C109.461 141.313 111.161 140.103 112.921 138.983C114.701 137.883 116.481 136.823 118.371 135.933L118.521 136.193H118.531Z" fill="#EA8A35"/>
<path d="M116.29 125.182C113.32 128.532 110.41 131.902 107.81 135.432C106.54 137.212 105.29 139.012 104.35 140.912C103.39 142.772 102.64 144.822 102.89 146.552L100.81 145.812C102.54 144.282 104.29 142.842 106.11 141.452C107.95 140.102 109.8 138.762 111.78 137.592C113.74 136.402 115.79 135.332 117.96 134.522C119.06 134.142 120.18 133.812 121.35 133.682C122.5 133.552 123.75 133.632 124.74 134.212C123.64 133.882 122.53 134.062 121.48 134.362C120.43 134.682 119.43 135.132 118.46 135.652C117.48 136.152 116.53 136.732 115.61 137.342C114.68 137.942 113.76 138.562 112.86 139.222C111.07 140.542 109.29 141.882 107.58 143.312C105.85 144.712 104.13 146.162 102.5 147.642L100.72 149.252L100.42 146.892C100.25 145.522 100.48 144.232 100.84 143.062C101.2 141.892 101.69 140.802 102.28 139.782C103.44 137.752 104.81 135.912 106.3 134.202C107.78 132.482 109.39 130.892 111.05 129.372C112.73 127.872 114.45 126.432 116.3 125.152L116.29 125.182Z" fill="#231F20"/>
<path d="M82.4514 190.802C82.4514 190.802 100.221 174.812 114.061 190.102C114.061 190.102 100.981 187.262 96.5714 196.322C92.1614 205.382 89.6514 199.252 89.6514 199.252C89.6514 199.252 83.8014 196.852 82.4414 190.802H82.4514Z" fill="#AF2225" stroke="#231F20" stroke-width="2.5" stroke-miterlimit="10"/>
<path d="M89.7109 191.472C89.7109 191.472 98.6509 176.462 112.561 189.342C112.561 189.342 100.751 187.332 96.3009 195.742C96.3009 195.742 92.0809 194.752 89.7109 191.472Z" fill="#951E1F"/>
<path d="M98.4219 192.912C98.4219 192.912 98.8919 186.092 104.612 186.082C104.612 186.082 106.992 185.432 112.572 189.342C112.572 189.342 103.372 187.822 98.4219 192.912Z" fill="#F26C6D"/>
<path d="M78.483 228.123C78.483 228.123 69.003 242.103 68.443 243.043C67.883 243.983 64.313 223.713 64.693 220.333C64.693 220.333 66.3829 221.933 67.2229 222.023C68.0629 222.113 53.613 214.423 66.003 192.553C66.003 192.553 70.223 187.863 73.323 189.453C73.323 189.453 78.113 187.573 80.643 190.393C80.643 190.393 84.023 188.703 85.613 192.173C85.613 192.173 91.243 191.613 90.683 196.393C90.683 196.393 95.753 200.333 91.243 204.093C86.733 207.853 85.803 204.283 87.203 201.373C88.603 198.463 84.103 202.783 84.483 207.473C84.863 212.163 85.893 219.763 79.793 221.743C73.693 223.723 74.633 223.523 74.633 223.523L77.0329 224.083L78.483 228.123Z" fill="#FCBD73" stroke="#231F20" stroke-width="1.5" stroke-miterlimit="10"/>
<path d="M68.4219 198.722C68.8419 196.872 69.4319 195.082 70.1919 193.322C70.5819 192.452 70.9019 191.502 71.5819 190.762C71.9319 190.402 72.3019 190.042 72.7619 189.772C73.2019 189.492 73.7719 189.312 74.2919 189.382L74.3219 189.532C73.6019 190.182 73.2619 190.912 72.7819 191.662C72.3519 192.422 71.7419 193.102 71.2519 193.882C70.2819 195.442 69.4119 197.102 68.5619 198.772L68.4219 198.722Z" fill="#020202"/>
<path d="M73.4121 200.023C74.1421 197.943 75.0721 195.943 76.2221 194.023C76.8021 193.073 77.3621 192.053 78.2821 191.303C78.7421 190.933 79.2422 190.603 79.8322 190.383C80.4022 190.163 81.0822 190.073 81.6522 190.313V190.463C80.6122 190.883 80.0222 191.633 79.3322 192.383C78.6922 193.163 77.8921 193.863 77.2221 194.703C76.5521 195.533 75.9221 196.423 75.3221 197.323C74.7021 198.213 74.1321 199.143 73.5621 200.083L73.4221 200.023H73.4121Z" fill="#020202"/>
<path d="M78.752 200.023C79.512 198.243 80.452 196.543 81.572 194.933C82.142 194.133 82.6719 193.253 83.5419 192.673C83.9719 192.383 84.4419 192.123 84.9819 191.983C85.5019 191.843 86.1319 191.813 86.6119 192.103L86.592 192.253C85.672 192.583 85.152 193.213 84.502 193.833C83.902 194.473 83.142 195.013 82.502 195.703C81.852 196.383 81.232 197.103 80.642 197.843C80.032 198.573 79.452 199.343 78.882 200.103L78.752 200.033V200.023Z" fill="#020202"/>
<path d="M82.3516 202.993C83.2316 201.313 84.2716 199.733 85.5416 198.273C86.1816 197.563 86.8116 196.743 87.8416 196.333C88.3416 196.143 88.9516 195.993 89.5716 196.163C90.2016 196.313 90.6516 196.843 90.7316 197.363L90.6116 197.453C89.6916 196.913 89.1916 197.273 88.5116 197.683C87.8716 198.133 87.0716 198.553 86.3816 199.143C85.6816 199.723 85.0216 200.363 84.3816 201.033C83.7216 201.693 83.1016 202.383 82.4816 203.083L82.3616 203.003L82.3516 202.993Z" fill="#020202"/>
<path d="M83.7629 208.003C83.7629 208.003 75.7829 216.953 74.5629 217.613C73.3429 218.273 70.4329 217.523 70.2429 219.673C70.0529 221.823 70.6229 224.083 69.4029 224.833C68.1829 225.583 69.2129 240.343 69.2129 240.343L77.7529 227.963L76.5829 224.753L74.1929 224.193C73.7929 224.013 73.6129 223.213 74.1029 223.023C81.3829 220.083 84.9929 221.423 83.7729 208.003H83.7629Z" fill="#F1A344"/>
<path d="M55.0128 212.213C53.8528 212.733 52.7129 213.253 51.5929 213.783C51.0429 214.063 50.4828 214.333 50.0028 214.653C49.7628 214.813 49.5229 214.983 49.3429 215.163C49.1529 215.343 49.0629 215.533 49.0829 215.583C49.0829 215.633 49.1929 215.803 49.4029 215.943C49.6129 216.093 49.8928 216.183 50.1428 216.313C50.6628 216.513 51.2028 216.593 51.7428 216.513C52.8128 216.323 53.7828 215.423 54.4528 214.363C54.1328 215.563 53.3428 216.833 51.9328 217.273C51.2428 217.493 50.4928 217.413 49.8228 217.213C49.5028 217.083 49.1828 216.973 48.8628 216.773C48.5728 216.573 48.1629 216.283 48.0829 215.683C48.0629 215.083 48.4129 214.733 48.6529 214.483C48.9229 214.223 49.2128 214.033 49.5028 213.873C50.0928 213.553 50.6828 213.293 51.2928 213.083C52.5028 212.653 53.7528 212.383 55.0128 212.233V212.213Z" fill="#231F20"/>
<path d="M52.9014 203.262C51.9114 203.062 50.9514 202.852 50.0114 202.762C49.5414 202.722 49.0714 202.693 48.6414 202.753C48.2014 202.783 47.8114 202.922 47.5714 203.152C47.5014 203.202 47.4414 203.262 47.4014 203.342C47.3614 203.412 47.2814 203.472 47.2714 203.562C47.1914 203.732 47.1714 203.863 47.2014 203.923C47.1814 204.073 47.6114 204.293 48.0514 204.383C48.9514 204.573 49.9414 204.612 50.9414 204.682C49.9914 205.022 48.9914 205.222 47.9314 205.152C47.6614 205.132 47.3814 205.082 47.1014 204.982C46.8314 204.852 46.4614 204.673 46.3114 204.253C46.1414 203.853 46.2614 203.462 46.3714 203.182C46.4114 203.022 46.5214 202.902 46.6014 202.762C46.6814 202.622 46.7914 202.502 46.9214 202.402C47.4214 201.982 48.0414 201.822 48.5814 201.812C49.1314 201.812 49.6614 201.863 50.1614 202.003C51.1614 202.253 52.0914 202.693 52.9114 203.273L52.9014 203.262Z" fill="#231F20"/>
<path d="M32.772 210.723C31.962 210.693 31.192 210.633 30.442 210.633C30.072 210.643 29.702 210.653 29.422 210.753C29.122 210.853 29.122 210.933 29.082 211.113C29.082 211.163 29.092 211.213 29.162 211.293C29.242 211.373 29.352 211.453 29.492 211.523C29.772 211.673 30.122 211.773 30.472 211.863C31.192 212.023 31.962 212.103 32.762 212.213C32.012 212.513 31.202 212.663 30.372 212.633C29.952 212.633 29.532 212.543 29.092 212.383C28.872 212.303 28.652 212.163 28.452 211.973C28.252 211.773 28.082 211.443 28.082 211.103C28.112 210.763 28.192 210.523 28.432 210.243C28.662 210.003 28.942 209.893 29.182 209.843C29.672 209.753 30.092 209.783 30.502 209.863C31.312 210.013 32.072 210.303 32.762 210.723H32.772Z" fill="#231F20"/>
<path d="M98.1407 214.962L92.5107 221.032C92.5107 221.032 92.1307 221.032 92.5107 230.422C92.8907 239.812 95.2407 251.072 95.2407 251.072L78.9907 228.922C78.9907 228.922 68.1007 248.072 62.4707 248.822C62.4707 248.822 83.1207 264.592 92.1307 266.092C101.141 267.592 103.391 266.092 103.391 266.092C103.391 266.092 112.401 249.572 112.021 246.572C111.641 243.572 103.761 229.682 103.761 229.682L129.291 277.362C129.291 277.362 121.411 287.872 93.2507 305.892C93.2507 305.892 111.651 325.412 179.221 318.652C179.221 318.652 182.601 298.382 181.851 296.132C181.101 293.882 191.241 320.372 191.241 320.082C191.241 319.792 204.071 315.282 207.011 304.772C207.011 304.772 191.991 280.742 189.371 274.362L173.111 251.332L155.401 223.682C155.401 223.682 199.141 228.942 161.221 196.842L145.001 198.262C145.001 198.262 134.191 205.292 134.751 223.312L148.451 247.712L143.571 252.972L130.431 230.452C130.431 230.452 100.401 218.302 98.1407 214.992V214.962Z" fill="#EB5628" stroke="#231F20" stroke-width="2" stroke-miterlimit="10"/>
<path d="M154.101 222.542L173.061 245.812C176.441 242.062 170.681 245.942 177.821 248.562C177.821 248.562 173.071 247.812 174.571 251.942C174.571 251.942 178.821 241.682 151.041 276.972C151.041 276.972 176.571 288.612 177.691 291.612C177.691 291.612 201.721 258.952 203.591 251.072C205.471 243.192 176.561 208.322 160.041 196.662" fill="#EB5628"/>
<path d="M154.101 222.542L173.061 245.812C176.441 242.062 170.681 245.942 177.821 248.562C177.821 248.562 173.071 247.812 174.571 251.942C174.571 251.942 178.821 241.682 151.041 276.972C151.041 276.972 176.571 288.612 177.691 291.612C177.691 291.612 201.721 258.952 203.591 251.072C205.471 243.192 176.561 208.322 160.041 196.662" stroke="#231F20" stroke-width="2" stroke-miterlimit="10"/>
<ellipse opacity="0.5" cx="75.9427" cy="116.218" rx="40.5406" ry="22.5225" transform="rotate(-23.1673 75.9427 116.218)" fill="url(#paint0_radial_1891_1594)"/>
<path d="M68.4309 243.043C68.4309 243.043 63.4809 248.983 60.2409 248.143C57.0009 247.303 66.2209 235.543 66.2209 235.543L68.4209 243.043H68.4309Z" fill="#A53A23" stroke="#231F20" stroke-miterlimit="10"/>
<path d="M95.6503 379.593C95.6503 379.593 88.8903 381.843 84.9503 379.593C81.0103 377.343 70.8702 377.623 67.4902 390.293C67.4902 390.293 98.1803 398.173 112.26 386.353V378.513C112.26 378.513 98.0703 378.983 95.6503 379.593Z" fill="#231F20" stroke="#231F20" stroke-width="2" stroke-miterlimit="10"/>
<path d="M153.461 382.413C153.461 382.413 150.551 387.203 144.081 389.733C138.411 391.953 121.321 393.993 129.401 401.033C132.681 403.893 137.241 404.733 141.441 403.563C143.701 402.933 146.541 401.873 150.001 400.153C160.701 394.803 161.541 393.493 163.511 393.443C165.481 393.393 173.931 391.983 170.551 380.723C170.551 380.723 159.571 381.033 153.471 382.413H153.461Z" fill="#231F20" stroke="#231F20" stroke-width="2" stroke-miterlimit="10"/>
<path d="M151.091 336.633C150.401 337.173 149.64 337.593 148.85 337.983C148.05 338.353 147.2 338.653 146.29 338.803C145.4 338.953 144.38 339.173 143.44 338.763C142.52 338.353 141.72 337.603 141.48 336.613L141.62 336.473C142.62 336.643 143.29 336.763 143.99 336.843C144.68 336.883 145.37 337.183 146.16 337.213C146.93 337.243 147.74 337.153 148.55 337.033C149.37 336.913 150.18 336.703 150.99 336.463L151.091 336.643V336.633Z" fill="#231F20"/>
<path d="M155.662 279.962C155.662 279.962 137.382 284.392 136.532 286.362C135.682 288.332 139.352 289.742 142.722 288.612C146.092 287.482 148.912 285.512 148.912 285.512C148.912 285.512 130.332 300.432 130.332 302.122C130.332 303.812 132.022 306.622 143.702 298.462C143.702 298.462 133.142 312.822 137.362 310.852C141.582 308.882 148.062 301.002 148.902 300.432C149.532 300.012 144.532 305.862 141.982 308.812C141.742 309.092 142.082 309.482 142.392 309.282C146.372 306.702 155.532 300.682 157.072 298.922C157.072 298.922 145.342 307.932 145.342 309.712C145.342 311.492 169.452 295.652 168.982 286.272L155.642 279.942L155.662 279.962Z" fill="#F6A965" stroke="#231F20" stroke-width="1.5" stroke-miterlimit="10"/>
<path d="M145.342 292.683C146.842 294.373 148.512 295.783 150.442 296.713C151.392 297.193 152.412 297.563 153.462 297.783C154.512 298.053 155.612 298.123 156.742 298.243C155.652 298.533 154.492 298.693 153.342 298.553C152.182 298.473 151.042 298.113 150.002 297.603C148.962 297.083 148.002 296.393 147.202 295.543C146.412 294.713 145.742 293.743 145.342 292.673V292.683Z" fill="#231F20"/>
<path d="M151.541 281.833C151.541 281.833 164.631 290.423 162.051 296.753C162.051 296.753 168.201 290.933 168.151 286.853L155.571 280.803L151.531 281.833H151.541Z" fill="#EF9B3D"/>
<path d="M102.77 229.673L102.41 264.753L111.03 246.573L102.77 229.673Z" fill="#CE4928"/>
<path d="M67.3616 247.013L86.3316 262.683L65.6016 249.433L67.3616 247.013Z" fill="#F47C57"/>
<path d="M99.822 219.123L95.712 223.093L96.062 222.223C95.882 227.373 95.892 232.583 96.142 237.753C96.272 240.343 96.492 242.923 96.832 245.493C97.192 248.053 97.6519 250.633 98.7319 253.003C97.4619 250.723 96.772 248.143 96.212 245.603C95.662 243.043 95.222 240.463 94.882 237.863C94.202 232.673 93.762 227.473 93.522 222.213L93.502 221.763L93.8719 221.343L97.642 217.053L99.812 219.123H99.822Z" fill="#F47C57"/>
<path d="M129.78 270.96C130.409 270.626 126.006 261.112 119.946 249.71C113.886 238.308 108.464 229.336 107.834 229.67C107.205 230.004 111.608 239.519 117.668 250.921C123.728 262.323 129.151 271.295 129.78 270.96Z" fill="#F47C57"/>
<path d="M116.22 291.692C106.39 300.062 95.5504 305.642 96.2104 306.422C96.8704 307.202 108.78 302.882 118.62 294.512C128.45 286.142 133.67 277.822 133.01 277.042C132.35 276.262 126.06 283.322 116.23 291.692H116.22Z" fill="#F47C57"/>
<path d="M171.401 256.103C161.911 264.853 153.171 276.283 153.951 276.943C154.731 277.603 163.651 269.723 171.951 259.823C180.251 249.933 183.211 247.243 179.271 246.163C178.281 245.893 181.921 246.403 171.401 256.093V256.103Z" fill="#F47C57"/>
<path d="M173.753 242.707C174.317 242.271 170.884 236.889 166.086 230.685C161.288 224.482 156.941 219.806 156.378 220.242C155.814 220.678 159.247 226.06 164.045 232.264C168.843 238.467 173.189 243.143 173.753 242.707Z" fill="#F47C57"/>
<path d="M181.701 246.602C181.701 246.602 183.331 241.632 186.671 241.242L181.701 246.602Z" fill="#231F20"/>
<path d="M181.701 246.602C181.701 246.602 183.331 241.632 186.671 241.242" stroke="#231F20" stroke-width="0.75" stroke-miterlimit="10"/>
<path d="M182.291 246.913C182.291 246.913 186.841 245.213 189.321 246.933L182.291 246.913Z" fill="#231F20"/>
<path d="M182.291 246.913C182.291 246.913 186.841 245.213 189.321 246.933" stroke="#231F20" stroke-width="0.75" stroke-miterlimit="10"/>
<path d="M164.632 201.492C164.632 201.492 163.842 205.662 169.852 212.602C175.862 219.542 187.682 234.562 189.182 236.812C190.682 239.062 195.942 249.762 195.752 251.082C195.562 252.392 192.372 255.962 192.372 255.962C192.372 255.962 186.742 266.662 184.492 268.352C182.242 270.042 166.512 280.082 171.202 284.642C175.782 289.092 177.502 289.242 177.542 289.192C177.542 289.192 177.772 290.092 177.772 290.082C177.942 289.852 205.282 251.652 202.642 250.322C201.162 249.572 203.542 239.352 164.632 201.492Z" fill="#CE4928"/>
<path d="M151.592 222.893C151.592 222.893 153.372 225.423 154.692 225.613C156.012 225.803 171.682 251.143 171.682 251.143L160.612 263.153C160.612 263.153 159.982 257.093 160.172 255.403C160.362 253.713 151.602 222.893 151.602 222.893H151.592Z" fill="#CE4928"/>
<path d="M170.791 288.252C170.791 288.252 167.791 295.952 182.991 294.262C182.991 294.262 190.121 290.882 194.441 297.832C198.761 304.782 201.791 311.532 201.791 311.532L205.541 306.072C205.911 305.542 205.921 304.842 205.571 304.292C202.931 300.142 191.951 282.752 189.321 276.992L178.491 292.012L170.791 288.262V288.252Z" fill="#CE4928"/>
<path d="M181.002 298.323C181.002 298.323 178.622 292.833 175.992 304.663C173.362 316.493 173.552 316.113 172.422 316.673C171.292 317.233 166.212 318.643 168.152 318.553C170.322 318.453 178.242 317.423 178.242 317.423L181.002 298.323Z" fill="#CE4928"/>
<path d="M138.821 326.793C138.821 326.793 157.311 327.303 158.151 326.883C158.991 326.463 152.101 333.643 153.081 340.963C154.061 348.283 155.331 348.843 156.181 351.103C157.031 353.363 161.741 378.303 163.571 379.013L168.291 378.533C168.291 378.533 160.901 351.843 160.051 348.463C159.211 345.083 156.651 336.093 156.651 336.093C158.591 332.993 164.531 321.393 164.531 321.393H141.421C141.001 321.373 139.831 323.953 139.751 324.363L138.811 326.803L138.821 326.793Z" fill="#888888"/>
<path d="M86.9205 317.682C96.1805 314.582 104.101 319.112 109.441 320.212C109.441 320.212 95.5405 324.352 96.2405 330.832C96.9405 337.312 99.3405 351.102 99.3405 351.102L104.61 377.692L111.23 377.082L102.97 336.542L101.691 329.902L100.86 330.962C101.18 330.492 104.1 327.112 103.72 326.362C103.34 325.612 102.73 322.002 106.86 325.002L120.001 319.232L107.61 315.432C107.26 315.292 97.1005 309.822 96.7705 309.992L91.5205 312.532C90.5005 313.342 85.6905 318.112 86.9205 317.692V317.682Z" fill="#888888"/>
<path d="M143.971 199.043C143.971 199.043 134.411 210.633 135.351 225.653C135.351 225.653 134.221 221.523 131.411 223.403C131.411 223.403 129.651 209.573 131.911 206.193L143.981 199.043H143.971Z" fill="#C6C6C5" stroke="#231F20" stroke-width="1.5" stroke-miterlimit="10"/>
<path d="M132.7 221.133L149.22 248.733C149.22 248.733 144.15 251.913 143.59 253.603L127.82 223.753C127.82 223.753 129.7 220.183 132.7 221.123V221.133Z" fill="#C6C6C5" stroke="#231F20" stroke-width="1.5" stroke-miterlimit="10"/>
<path d="M97.9816 217.382L131.352 230.442L127.822 223.762C127.822 223.762 113.932 214.192 108.112 213.442C108.112 213.442 102.672 214.992 98.7216 215.252C94.7716 215.512 97.9716 217.382 97.9716 217.382H97.9816Z" fill="#C6C6C5" stroke="#231F20" stroke-width="1.5" stroke-miterlimit="10"/>
<path d="M131.352 208.003C131.352 208.003 140.592 204.213 140.822 203.803L131.352 208.003Z" fill="#888888"/>
<path d="M131.352 208.003C131.352 208.003 140.592 204.213 140.822 203.803" stroke="#231F20" stroke-miterlimit="10"/>
<path d="M130.752 211.533L138.242 209.133" stroke="#231F20" stroke-miterlimit="10"/>
<path d="M130.752 213.973L137.082 212.343" stroke="#231F20" stroke-miterlimit="10"/>
<path d="M130.832 216.512L136.232 215.442" stroke="#231F20" stroke-miterlimit="10"/>
<path d="M130.832 219.323L135.642 218.603" stroke="#231F20" stroke-miterlimit="10"/>
<path d="M132.701 221.132L135.541 220.452" stroke="#231F20" stroke-miterlimit="10"/>
<path d="M111.571 214.452L99.7715 218.082" stroke="#231F20" stroke-miterlimit="10"/>
<path d="M113.812 215.442L104.102 219.322" stroke="#231F20" stroke-miterlimit="10"/>
<path d="M116.781 216.963L106.721 220.793" stroke="#231F20" stroke-miterlimit="10"/>
<path d="M119.581 218.083L110.701 221.943" stroke="#231F20" stroke-miterlimit="10"/>
<path d="M121.521 219.702L113.811 223.352" stroke="#231F20" stroke-miterlimit="10"/>
<path d="M123.821 221.133L117.201 224.903" stroke="#231F20" stroke-miterlimit="10"/>
<path d="M126.152 222.893L120.512 226.203" stroke="#231F20" stroke-miterlimit="10"/>
<path d="M127.822 223.763L124.932 227.213" stroke="#231F20" stroke-miterlimit="10"/>
<path d="M129.242 226.452L126.832 228.672" stroke="#231F20" stroke-miterlimit="10"/>
<path d="M128.432 224.902C128.432 224.902 132.772 222.492 133.762 222.892L128.432 224.902Z" fill="#888888"/>
<path d="M128.432 224.902C128.432 224.902 132.772 222.492 133.762 222.892" stroke="#231F20" stroke-miterlimit="10"/>
<path d="M129.832 227.563C129.832 227.563 133.652 225.033 135.352 225.653L129.832 227.563Z" fill="#888888"/>
<path d="M129.832 227.563C129.832 227.563 133.652 225.033 135.352 225.653" stroke="#231F20" stroke-miterlimit="10"/>
<path d="M131.352 230.442L136.682 227.772" stroke="#231F20" stroke-miterlimit="10"/>
<path d="M133.07 233.692L138.52 230.862" stroke="#231F20" stroke-miterlimit="10"/>
<path d="M134.502 236.402L140.222 233.692" stroke="#231F20" stroke-miterlimit="10"/>
<path d="M136.23 239.682L141.841 236.402" stroke="#231F20" stroke-miterlimit="10"/>
<path d="M137.361 242.313L143.801 239.683" stroke="#231F20" stroke-miterlimit="10"/>
<path d="M139.041 244.983L145.381 242.312" stroke="#231F20" stroke-miterlimit="10"/>
<path d="M140.82 248.372L146.33 244.982" stroke="#231F20" stroke-miterlimit="10"/>
<path d="M142.211 250.983L148.021 246.933" stroke="#231F20" stroke-miterlimit="10"/>
<path d="M133.071 270.942C132.871 272.262 132.421 273.432 131.931 274.582C131.671 275.142 131.401 275.712 131.101 276.252C130.801 276.792 130.481 277.322 130.131 277.842L128.641 276.642C129.101 276.262 129.441 276.142 129.851 275.982C130.241 275.832 130.631 275.742 131.031 275.672C131.821 275.542 132.591 275.592 133.341 275.702C134.081 275.822 134.791 276.042 135.471 276.312C136.141 276.592 136.771 276.952 137.371 277.352C137.011 277.302 136.661 277.272 136.311 277.212C135.961 277.182 135.611 277.142 135.271 277.102C134.581 277.072 133.911 277.002 133.261 277.072C132.611 277.092 131.971 277.192 131.391 277.362C131.101 277.452 130.821 277.542 130.571 277.682C130.331 277.792 130.041 278.002 129.971 278.072L126.041 281.642L128.491 276.882C128.771 276.332 129.081 275.792 129.411 275.262C129.731 274.732 130.101 274.232 130.461 273.722C131.221 272.732 132.031 271.772 133.091 270.952L133.071 270.942Z" fill="#231F20"/>
<path d="M98.3813 259.622C97.8013 259.122 97.4813 258.562 97.2313 257.982C97.1213 257.692 97.0113 257.392 96.9713 257.092C96.9313 256.782 96.9713 256.452 97.0312 256.122C97.0912 255.792 97.1313 255.462 97.1013 255.152C97.0713 254.842 96.9613 254.552 96.8413 254.262C96.5513 253.692 96.1013 253.162 95.9013 252.572L94.7812 249.412L97.5713 251.912C97.6613 251.992 97.9113 252.232 98.1313 252.372C98.3513 252.542 98.6213 252.672 98.8713 252.802C99.3913 253.062 99.9513 253.292 100.541 253.512C101.131 253.752 101.761 253.902 102.411 254.102C102.741 254.172 103.071 254.272 103.411 254.362C103.751 254.452 104.101 254.532 104.461 254.662V254.862C103.791 255.172 103.071 255.372 102.331 255.472C101.591 255.562 100.831 255.572 100.061 255.452C99.3013 255.332 98.5213 255.092 97.8213 254.672C97.4813 254.452 97.1413 254.202 96.8413 253.912C96.5313 253.602 96.2813 253.342 95.9913 252.832L97.6613 252.172C97.7313 252.792 97.5713 253.462 97.5613 254.102C97.5713 254.422 97.6113 254.722 97.7213 255.022C97.8213 255.312 98.0113 255.592 98.2113 255.862C98.4113 256.132 98.5913 256.412 98.7013 256.702C98.8013 256.992 98.8413 257.302 98.8713 257.622C98.9113 258.252 98.8713 258.892 98.5713 259.602L98.3813 259.652V259.622Z" fill="#231F20"/>
<path d="M148.801 220.252C149.961 220.712 151.121 221.192 152.251 221.702C153.391 222.212 154.511 222.742 155.671 223.212L154.501 224.702C154.091 224.262 153.921 223.952 153.721 223.552C153.541 223.172 153.411 222.772 153.321 222.372C153.141 221.572 153.171 220.772 153.271 220.012C153.371 219.242 153.611 218.532 153.881 217.842C154.191 217.162 154.551 216.522 155.011 215.942L155.201 216.012C155.201 216.382 155.171 216.742 155.141 217.082L155.081 218.122C155.061 218.802 155.031 219.462 155.081 220.092C155.111 220.722 155.211 221.342 155.341 221.902C155.421 222.182 155.491 222.462 155.591 222.722C155.661 222.962 155.831 223.272 155.881 223.372L157.401 226.932L154.711 224.862C153.721 224.102 152.691 223.402 151.681 222.672C150.671 221.942 149.671 221.192 148.691 220.422L148.791 220.252H148.801Z" fill="#231F20"/>
<path d="M89.9102 180.523C95.9202 180.823 100.5 174.863 100.62 172.403C100.74 169.943 95.5402 176.383 89.8102 174.323C83.2902 171.973 80.3102 174.983 80.1902 177.443C80.0702 179.903 83.9102 180.223 89.9202 180.523H89.9102Z" fill="#F1A244"/>
<path d="M88.312 171.673C88.452 171.583 88.592 171.513 88.752 171.463C89.902 171.083 95.102 169.373 96.812 168.363C98.752 167.213 101.662 166.673 100.232 169.933C99.722 171.103 95.312 174.603 88.712 175.793C79.922 177.373 86.952 172.563 88.302 171.673H88.312Z" fill="#FED09E"/>
<path d="M83.681 172.032C83.321 173.062 82.961 174.082 83.011 174.912C83.021 175.322 83.191 175.552 83.331 175.602C83.471 175.662 83.7009 175.732 84.0509 175.792C84.7609 175.882 85.701 175.862 86.621 175.752C87.551 175.652 88.471 175.522 89.381 175.302C91.221 174.892 93.051 174.292 94.901 173.582C96.761 172.862 98.621 172.052 100.641 171.192C99.581 173.132 97.9909 174.682 96.2209 175.982C94.4309 177.252 92.371 178.222 90.141 178.722C89.031 178.972 87.8809 179.092 86.7309 179.092C85.5909 179.062 84.411 178.972 83.141 178.422C82.521 178.142 81.7909 177.672 81.3609 176.852C80.9309 176.012 81.061 175.122 81.311 174.532C81.871 173.332 82.7009 172.592 83.6709 172.032H83.681Z" fill="#231F20"/>
<ellipse opacity="0.5" cx="118.245" cy="155.167" rx="40.5406" ry="22.5225" transform="rotate(-23.1673 118.245 155.167)" fill="url(#paint1_radial_1891_1594)"/>
<ellipse opacity="0.3" cx="132.306" cy="183.567" rx="26.6982" ry="14.8323" transform="rotate(-25.9036 132.306 183.567)" fill="url(#paint2_radial_1891_1594)"/>
<ellipse opacity="0.5" cx="63.688" cy="171.606" rx="40.5406" ry="22.5225" transform="rotate(-8.51379 63.688 171.606)" fill="url(#paint3_radial_1891_1594)"/>
<defs>
<radialGradient id="paint0_radial_1891_1594" cx="0" cy="0" r="1" gradientUnits="userSpaceOnUse" gradientTransform="translate(75.9427 116.218) rotate(92.2069) scale(17.4033 31.3259)">
<stop stop-color="#EA3741" stop-opacity="0.9"/>
<stop offset="1" stop-color="#FF6D6D" stop-opacity="0"/>
</radialGradient>
<radialGradient id="paint1_radial_1891_1594" cx="0" cy="0" r="1" gradientUnits="userSpaceOnUse" gradientTransform="translate(118.245 155.167) rotate(92.2069) scale(17.4033 31.3259)">
<stop stop-color="#EA3741" stop-opacity="0.9"/>
<stop offset="1" stop-color="#FF6D6D" stop-opacity="0"/>
</radialGradient>
<radialGradient id="paint2_radial_1891_1594" cx="0" cy="0" r="1" gradientUnits="userSpaceOnUse" gradientTransform="translate(132.306 183.567) rotate(92.2069) scale(11.461 20.6298)">
<stop stop-color="#EA3741" stop-opacity="0.9"/>
<stop offset="1" stop-color="#FF6D6D" stop-opacity="0"/>
</radialGradient>
<radialGradient id="paint3_radial_1891_1594" cx="0" cy="0" r="1" gradientUnits="userSpaceOnUse" gradientTransform="translate(63.688 171.606) rotate(92.2069) scale(17.4033 31.3259)">
<stop stop-color="#EA3741" stop-opacity="0.9"/>
<stop offset="1" stop-color="#FF6D6D" stop-opacity="0"/>
</radialGradient>
</defs>
</svg>
