<svg width="235" height="388" viewBox="0 0 235 388" fill="none" xmlns="http://www.w3.org/2000/svg">
<path d="M172.998 222.11H143.469V243.498H172.998V222.11Z" fill="#FDC077"/>
<path d="M181.282 373.824C181.282 373.824 160.782 372.821 161.786 384.825C161.786 384.825 162.283 390.32 195.284 381.824L194.396 373.807L181.282 373.824Z" fill="#231F20" stroke="#231F20" stroke-width="2.6635" stroke-miterlimit="10"/>
<path d="M145.742 370.122C145.742 370.122 125.241 369.119 126.245 381.122C126.245 381.122 126.742 386.618 159.743 378.122L160.098 370.602L145.75 370.122H145.742Z" fill="#231F20" stroke="#231F20" stroke-width="2.6635" stroke-miterlimit="10"/>
<path d="M175.263 325.304C175.263 325.304 160.889 331.137 157.791 328.607C157.533 328.403 157.356 328.136 157.267 327.808C156.104 323.475 158.936 335.638 158.936 338.142C158.936 340.646 158.767 352.978 158.936 353.475C159.105 353.972 160.268 369.305 160.268 369.305C160.268 369.305 152.606 372.306 146.267 370.308C146.267 370.308 139.936 336.642 140.931 328.811C141.934 320.98 140.824 323.315 140.824 323.315C140.824 323.315 147.767 319.151 148.433 319.151C149.099 319.151 173.594 326.813 175.263 325.322V325.304Z" fill="#AFAFAE" stroke="#231F20" stroke-width="2.6635" stroke-miterlimit="10"/>
<path d="M211.762 325.811C211.762 325.811 196.26 333.473 191.599 334.476C186.938 335.479 194.263 373.807 194.263 373.807H181.931C181.931 373.807 169.43 331.475 177.429 325.811H211.762Z" fill="#AFAFAE" stroke="#231F20" stroke-width="2.6635" stroke-miterlimit="10"/>
<path d="M120.84 253.061V296.813C120.84 296.813 135.338 298.313 140.337 292.818C140.337 292.818 138.339 257.313 132.835 253.069H120.84V253.061Z" fill="#9859A3" stroke="#231F20" stroke-width="2.6635" stroke-miterlimit="10"/>
<path d="M143.505 253.745L159.504 282.999C159.504 282.999 166.5 290.998 151.505 297L143.505 300.995L127.729 309.492C127.729 309.492 180.004 335.488 218.004 323.493C218.004 323.493 220.001 309.998 220.001 306.997C220.001 303.996 225 324.328 224.503 326.663C224.005 328.998 232.999 326.663 232.999 326.663C232.999 326.663 203.363 201.842 180.368 197.447L171.623 229.622L169.51 242.576L162.514 260.998L156.512 263.298L148.513 251.49L143.514 253.745H143.505Z" fill="#9859A3" stroke="#231F20" stroke-width="2.6635" stroke-miterlimit="10"/>
<path d="M124.416 258.886C125.925 270.277 125.987 281.934 125.419 293.387L125.366 293.076C125.304 292.917 125.33 293.023 125.339 293.032C126.325 293.991 127.914 293.902 129.264 293.929C130.986 293.902 132.744 293.636 134.52 293.387C133.703 293.76 132.886 294.133 132.025 294.417C129.539 295.216 125.428 296.477 123.546 293.92C123.466 293.778 123.386 293.591 123.395 293.378C122.827 281.925 122.889 270.268 124.398 258.877L124.416 258.886Z" fill="#B072B0"/>
<path d="M125.51 257.385C125.51 257.385 135.161 265.615 138.845 290.963C138.845 290.963 136.279 261.052 133.642 257.385H125.51Z" fill="#81388C"/>
<path d="M144.847 303.269V307.77C144.847 307.77 157.347 319.463 174.758 320.031C192.168 320.599 186.229 322.437 197.948 320.768C209.668 319.099 209.517 320.768 211.763 318.433C214.009 316.098 215.51 312.36 215.51 312.36C215.51 312.36 218.013 299.434 218.679 299.602C219.345 299.771 223.012 298.599 220.348 304.272C217.685 309.937 217.347 316.267 217.347 316.267L216.513 323.263C216.513 323.263 185.208 332.852 137.531 312.52C113.098 302.097 114.172 300.952 136.022 308.836L144.847 303.26V303.269Z" fill="#81388C"/>
<path d="M123.351 297.453C123.351 297.453 114.189 301.786 116.515 308.116C118.85 314.446 124.337 323.6 124.337 323.6C124.337 323.6 128.678 327.435 122.011 310.522C122.011 310.522 130.347 319.613 131.511 319.942C132.674 320.27 128.847 312.608 128.847 312.608C128.847 312.608 151.842 311.108 136.012 307.938L126.681 311.774C126.681 311.774 145.343 304.112 139.013 294.443C139.013 294.443 134.343 299.113 123.351 297.444V297.453Z" fill="#FDC077" stroke="#231F20" stroke-width="1.33175" stroke-miterlimit="10"/>
<path d="M148.787 258.886C151.646 262.322 154.265 265.926 156.778 269.602C159.965 274.396 163.259 279.155 165.638 284.464C166.055 285.539 165.771 286.755 165.709 287.918C165.372 292.837 161.98 297.143 157.346 298.634C155.171 299.451 152.88 299.637 150.66 299.7C154.744 298.608 159.095 297.009 161.448 293.405C163.037 291.096 163.241 288.247 163.294 285.468C163.321 285.237 163.25 285.521 163.294 285.61L163.214 285.379C158.642 276.447 153.075 268.004 148.787 258.877V258.886Z" fill="#B072B0"/>
<path d="M182.935 283.975C182.935 283.975 181.008 284.641 181.479 293.386C181.949 302.131 181.408 299.752 181.408 299.752C181.408 299.752 178.123 302.007 177.706 302.558C177.288 303.108 174.625 305.399 176.143 305.887C177.661 306.375 180.023 308.488 181.843 305.887C183.663 303.286 184.391 304.378 185.03 300.915C185.669 297.453 185.669 298.234 185.669 295.57C185.669 292.907 186.033 295.499 185.669 292.108C185.305 288.716 187.126 288.716 185.03 286.346C182.935 283.975 187.481 281.791 182.935 283.975Z" fill="#B072B0"/>
<path d="M166.898 311.126C180.136 305.169 192.584 298.661 182.897 282.627C184.247 283.737 185.365 285.113 186.306 286.613C194.554 300.614 179.257 309.848 166.898 311.126Z" fill="#231F20"/>
<path d="M178.851 299.699C179.588 296.068 178.629 292.934 178.851 289.196C181.079 291.975 181.949 297.24 178.851 299.699Z" fill="#231F20"/>
<path d="M197.167 230.732C197.167 230.732 203.089 271.298 199.342 280.797C195.595 290.297 164.068 268.581 164.068 268.581C164.068 268.581 194.992 259.418 197.167 230.732Z" fill="#81388C"/>
<path d="M195.453 225.041C195.453 225.041 204.42 242.62 188.421 274.608C188.421 274.608 172.423 275.106 156.424 264.105C156.424 264.105 163.926 251.764 159.922 238.181C159.922 238.181 177.421 248.115 177.421 250.104C177.421 252.093 179.41 223.815 179.41 223.815" fill="#9859A3"/>
<path d="M195.453 225.041C201.499 238.918 197.557 255.734 192.159 269.22C192.07 269.495 189.185 275.719 189.185 275.781C177.235 275.897 165.515 271.857 155.678 265.198L154.666 264.532C157.898 259.161 159.78 252.768 159.851 246.474C159.984 242.905 159.025 239.282 158.173 235.846C162.408 238.297 166.625 240.854 170.709 243.544C173.24 245.364 176.045 246.838 177.998 249.386C178.123 249.581 178.22 249.91 178.22 250.149C178.22 250.105 178.238 250.078 178.123 249.839C178.238 249.475 175.637 250.016 176.693 249.927C176.658 250.016 176.658 250.034 176.658 250.052V250.034C176.684 249.918 176.755 249.27 176.773 249.146C177.572 241.564 178.558 231.354 179.41 223.843C179.099 232.694 178.842 241.555 178.211 250.389C178.211 250.389 178.202 250.442 178.176 250.513C179.232 250.433 176.622 250.984 176.738 250.611C176.64 250.433 176.64 250.274 176.64 250.309C176.64 250.256 176.631 250.185 176.631 250.132C176.613 250.149 176.613 250.194 176.631 250.22C176.48 249.998 176.107 249.625 175.734 249.315C170.647 245.426 164.912 242.381 159.363 239.193L161.032 237.871C161.636 240.117 162.15 242.399 162.248 244.725C162.577 249.341 161.822 254.02 160.366 258.397C159.62 260.599 158.75 262.686 157.56 264.79L157.179 263.023C164.104 267.693 171.943 271.005 180.173 272.532C182.89 273.055 185.722 273.411 188.395 273.428L187.383 274.076C189.016 270.676 191.271 265.935 192.541 262.437C196.714 250.913 199.688 236.921 195.471 225.024L195.453 225.041Z" fill="#231F20"/>
<path d="M197.219 235.926C197.219 235.926 188.358 275.319 183.102 269.619C182.552 269.024 163.002 264.638 158.634 263.795C157.595 263.6 171.472 270.329 172.475 270.667L187.471 273.543C195.727 260.244 198.657 241.43 197.219 235.926Z" fill="#81388C"/>
<path d="M138.843 295.589C141.924 302.549 134.529 306.296 130.152 305.55C125.775 304.805 123.342 298.137 123.342 298.137C123.342 298.137 125.26 298.847 130.587 298.217C135.159 297.684 138.843 295.589 138.843 295.589Z" fill="#EFA142"/>
<path d="M186.379 205.207C186.379 205.207 207.909 232.037 229.448 323.103L186.379 205.207Z" fill="#81388C"/>
<path d="M164.068 244.236C167.273 245.462 170.345 246.944 173.346 248.551C175.797 250.007 178.576 251.144 180.538 253.301C180.156 252.555 179.002 252.475 178.496 253.106C178.398 253.221 178.345 253.31 178.291 253.443C178.291 253.47 178.3 253.372 178.318 253.301C178.913 246.101 179.091 238.794 180.369 231.611C181.328 238.847 181.612 246.083 180.964 253.372C180.902 253.869 180.76 254.748 180.174 255.068C179.668 255.441 178.744 255.299 178.38 254.739C178.336 254.686 178.274 254.571 178.256 254.562C178.256 254.562 178.229 254.588 178.247 254.58C178.034 254.393 177.723 254.136 177.395 253.905C172.947 250.691 168.339 247.743 164.068 244.219V244.236Z" fill="#B072B0"/>
<path d="M178.68 333.029L184.86 333.819C185.641 333.917 186.112 334.742 185.792 335.47C185.579 335.959 185.259 336.598 184.806 337.424C183.421 339.918 185.898 345.885 186.449 347.145C186.52 347.305 186.555 347.483 186.547 347.651L186.254 356.61C186.254 356.681 186.254 356.752 186.263 356.823L188.438 371.206C188.526 371.783 189.024 372.209 189.61 372.209H191.172C191.882 372.209 192.433 371.587 192.344 370.886L188.757 341.712C187.754 332.549 193.179 332.789 194.093 332.39L204.339 327.702C205.502 327.196 192.85 327.728 191.59 327.702L178.174 327.054C177.375 327.054 177.029 328.732 176.709 329.54C176.683 329.611 176.665 329.673 176.647 329.744L176.248 331.963C175.919 333.038 177.562 332.887 178.671 333.038L178.68 333.029Z" fill="#878787"/>
<path d="M142.681 323.822L148.354 320.555L168.996 326.086C168.996 326.086 161.45 328.51 158.919 327.959C158.635 327.897 157.818 326.157 157.721 325.873C157.543 325.331 155.35 325.429 155.83 327.693C157.259 334.369 157.499 337.956 157.499 337.956L157.454 347.785L158.831 368.409L154.205 369.537C154.205 369.537 153.202 335.541 153.459 334.165C153.708 332.789 153.956 329.664 153.956 329.664L152.456 327.036L142.672 323.813L142.681 323.822Z" fill="#878787"/>
<path d="M19.3066 143.155C19.6529 146.112 24.1986 160.965 32.9349 170.483C41.6712 180 42.3637 183.605 42.3637 183.605C42.3637 183.605 21.7482 152.797 22.4496 142.986L19.3066 143.155Z" fill="#432613" stroke="#231F20" stroke-width="1.77567" stroke-miterlimit="10"/>
<path d="M17.7695 136.507C17.7695 136.507 27.2693 155.488 34.0613 159.439C40.8532 163.39 52.759 185.169 52.759 185.169L51.3385 161.792L44.1026 143.556L30.5188 128.276C30.5188 128.276 21.676 138.122 17.7695 136.507Z" fill="#271711" stroke="#231F20" stroke-width="1.77567" stroke-miterlimit="10"/>
<path d="M179.302 158.08C179.302 158.08 177.908 149.601 183.493 140.936C183.493 140.936 189.779 129.474 198.861 132.271C198.861 132.271 203.052 108.166 198.861 100.477C194.671 92.7887 181.744 57.151 163.925 50.5189C163.925 50.5189 185.588 35.4967 159.033 48.0773C159.033 48.0773 148.903 15.9377 153.795 48.4236C153.795 48.4236 156.938 41.019 136.322 33.8897C136.322 33.8897 127.941 32.7 136.322 21.1671C144.703 9.63408 115.707 3.00195 115.707 3.00195C115.707 3.00195 126.884 11.7382 128.287 13.1321C129.681 14.526 125.126 27.1067 126.005 29.5571C126.884 32.0075 133.179 39.8471 133.179 39.8471C133.179 39.8471 106.278 27.2398 96.4938 28.0478C86.7099 28.8557 90.9005 31.6524 90.9005 31.6524L100.329 34.0939C100.329 34.0939 88.1038 25.7128 63.6439 37.592C39.1841 49.4712 19.6251 89.6457 19.6251 89.6457C19.6251 89.6457 9.49493 108.166 9.49493 110.608C9.49493 113.049 8.10102 129.35 8.10102 129.35C8.10102 129.35 4.39876 139.773 2.23245 143.537C0.0661297 147.302 21.383 144.132 23.8245 142.925C26.2661 141.717 45.1326 122.966 54.9165 117.843C64.7005 112.721 59.4622 108.086 84.9608 104.286C110.468 100.486 121.992 99.2166 135.274 78.1927L149.95 56.8136C149.95 56.8136 135.976 65.4434 140.166 87.5061C144.357 109.569 149.95 123.57 164.626 138.166C179.302 152.762 176.159 156.642 179.302 158.089V158.08Z" fill="#432613" stroke="#231F20" stroke-width="2.6635" stroke-miterlimit="10"/>
<path d="M143.79 229.098L157.96 237.541C157.96 237.541 164.903 246.703 157.01 261.566C157.01 261.566 140.949 252.323 139.955 249.944L142.468 245.176L143.799 229.107L143.79 229.098Z" fill="#FDC077" stroke="#231F20" stroke-width="1.77567" stroke-miterlimit="10"/>
<path d="M150.316 254.597C154.862 254.597 158.546 250.248 158.546 244.884C158.546 239.52 154.862 235.171 150.316 235.171C145.771 235.171 142.086 239.52 142.086 244.884C142.086 250.248 145.771 254.597 150.316 254.597Z" fill="#EFA142"/>
<path d="M165.525 219.812L164.504 240.738L169.067 243.508L171.234 222.2L165.525 219.812Z" fill="#AFAFAE" stroke="#231F20" stroke-width="1.77567" stroke-miterlimit="10"/>
<path d="M34.6758 131.951C34.6758 131.951 35.1996 148.083 48.3485 166.399C48.3485 166.399 52.0597 170.811 54.6077 188.754C54.6077 188.754 54.8829 227.206 113.951 231.219C113.951 231.219 184.684 233.208 182.278 159.642C182.278 159.642 197.522 172.622 200.816 136.319C201.021 134.117 200.55 131.862 199.289 130.042C197.993 128.168 195.738 126.473 191.867 126.89C187.845 127.325 184.409 129.935 182.5 133.495C181.133 136.052 180.085 139.284 181.222 142.143L183.068 131.436L174.528 148.34C174.528 148.34 152.128 129.775 144.394 108.663C144.394 108.663 135.907 91.9714 137.167 77.7572C137.301 76.2479 135.383 75.4755 134.433 76.6652C128.307 84.2828 116.135 96.384 98.8396 99.2961C73.1013 103.629 82.0418 94.848 49.263 117.665L34.6758 131.96V131.951Z" fill="#FCBD74" stroke="#231F20" stroke-width="2.6635" stroke-miterlimit="10"/>
<path d="M149.047 79.4265L164.912 94.6973C164.912 94.6973 165.294 77.5532 171.145 85.6858C171.145 85.6858 170.328 75.3869 174.421 72.5369C174.421 72.5369 163.652 58.589 159.15 57.1152C159.15 57.1152 168.144 69.8912 155.617 69.6248L149.047 79.4265Z" fill="white" stroke="#231F20" stroke-width="0.887835" stroke-miterlimit="10"/>
<path d="M140.913 50.3594C140.913 50.3594 129.558 36.5624 105.959 41.3567C105.959 41.3567 126.353 51.5668 107.619 52.135C107.619 52.135 109.848 62.6914 96.6457 64.0054C96.6457 64.0054 93.8135 68.4002 120.093 70.3889C120.093 70.3889 118.309 62.6026 125.074 63.1797C131.839 63.7568 119.241 51.771 140.904 50.3594H140.913Z" fill="white" stroke="#231F20" stroke-width="0.887835" stroke-miterlimit="10"/>
<path d="M150.288 55.1533C146.382 63.8452 141.09 72.2619 136.367 80.5365C137.468 75.7777 139.741 71.4007 142.076 67.1569C144.5 62.9485 147.119 58.8645 150.288 55.1622V55.1533Z" fill="#231F20"/>
<path d="M191.755 145.206C193.342 141.528 192.447 137.605 189.755 136.442C187.063 135.28 183.594 137.32 182.006 140.998C180.418 144.676 181.313 148.599 184.005 149.762C186.697 150.924 190.167 148.884 191.755 145.206Z" fill="#F1A244"/>
<path d="M186.486 152.859C181.221 148.509 179.588 138.832 187.383 136.257C181.727 141.016 183.823 147.071 186.486 152.859Z" fill="#231F20"/>
<path d="M182.445 143.387C183.839 142.002 186.37 142.392 187.692 143.724C188.758 144.701 189.299 145.988 189.521 147.346C189.637 148.891 189.628 148.936 188.713 147.675C187.044 145.455 185.642 143.484 182.445 143.387Z" fill="#231F20"/>
<path d="M153.263 219.056C151.123 220.343 120.644 178.988 122.491 177.31C131.369 169.213 170.088 184.928 172.272 176.626C179.712 148.34 180.458 161.879 180.458 161.879C180.458 161.879 184.941 199.905 153.272 219.056H153.263Z" fill="#F1A244"/>
<path d="M181.007 146.006L176.036 154.476C176.036 154.476 155.42 132.129 150.546 127.53L150.128 139.658C150.128 139.658 138.018 95.2216 108.977 135.512C108.977 135.512 108.161 124.964 119.951 113.191C119.951 113.191 108.977 112.845 97.0271 112.366C85.068 111.886 66.0949 110.013 55.5031 126.029C45.071 141.815 45.8434 137.651 45.8434 137.651C45.8434 137.651 44.5738 153.668 48.8532 156.766C48.8532 156.766 51.7298 136.568 80.2648 148.065C80.2648 148.065 92.6944 162.901 89.9688 169.214C87.2431 175.526 59.8711 174.63 59.8711 174.63L50.7087 166.284C50.7087 166.284 39.9571 154.627 35.7754 132.369C35.7754 132.369 49.8564 118.501 55.0058 115.358C55.0058 115.358 65.6598 107.607 72.9845 103.976C74.5115 103.221 80.1848 101.339 81.8895 101.419C89.3828 101.774 113.789 102.005 132.017 81.5045C132.088 81.4246 132.15 81.3358 132.221 81.2648L136.385 76.7812C136.793 77.234 136.997 77.8289 136.935 78.4326C136.536 82.8807 134.556 102.919 156.334 132.253L175.068 150.96L179.471 142.25L181.034 146.032L181.007 146.006Z" fill="#F1A244"/>
<path d="M84.2875 217.991C84.2875 217.991 69.1588 205.57 65.8295 192.972C62.4912 180.374 57.9277 178.438 57.9809 182.345C58.0431 187.015 59.4991 207.488 84.2964 217.991H84.2875Z" fill="#FED5A3"/>
<path d="M21.6316 97.7783C21.6316 97.7783 40.285 61.6079 61.9748 52.0193C83.6646 42.4307 97.0709 36.9084 97.0709 36.9084C97.0709 36.9084 83.1675 30.4272 65.7215 41.7027C65.7215 41.7027 34.7183 53.0581 19.5541 96.8372C19.5541 96.8372 18.2312 103.816 21.6316 97.7783Z" fill="#6E4019"/>
<path d="M127.373 74.1795C129.602 70.1132 132.842 66.988 135.736 63.4189C135.195 67.8848 131.164 72.0487 127.373 74.1795Z" fill="#231F20"/>
<path d="M133.348 57.3908C132.842 55.9703 134.432 54.6918 135.657 54.4166C136.935 54.1058 138.232 54.2657 139.35 55.0114C138.747 55.3666 138.187 55.5353 137.655 55.7128C136.101 56.2633 134.618 56.1923 133.348 57.3908Z" fill="#231F20"/>
<path d="M150.607 120.632C150.607 120.632 158.864 124.6 168.888 125.16C174.916 125.497 185.783 125.231 185.783 125.231L174.011 148.625C174.011 148.625 157.355 133.319 150.607 120.632Z" fill="#271710"/>
<path d="M56.0098 157.654C58.6289 155.488 62.6064 152.798 65.4031 150.809C66.9746 149.726 68.5194 148.598 70.0198 147.426C71.467 146.21 73.0473 145.082 73.8463 143.298C73.1805 149.371 61.39 155.878 56.0098 157.645V157.654Z" fill="#231F20"/>
<ellipse opacity="0.9" cx="148.971" cy="170.609" rx="44.9255" ry="24.9586" transform="rotate(-23.1673 148.971 170.609)" fill="url(#paint0_radial_1891_2230)"/>
<ellipse opacity="0.9" cx="88.5122" cy="188.826" rx="44.9255" ry="24.9586" transform="rotate(-8.51379 88.5122 188.826)" fill="url(#paint1_radial_1891_2230)"/>
<ellipse opacity="0.9" cx="92.9516" cy="124.922" rx="44.9255" ry="24.9586" transform="rotate(-8.51379 92.9516 124.922)" fill="url(#paint2_radial_1891_2230)"/>
<path d="M144.357 131.072C140.007 124.085 131.049 122.806 123.591 124.582C121.948 125.523 117.962 127.148 115.343 127.832C112.671 128.435 108.675 129.563 106.695 127.024C108.924 129.083 112.502 127.565 115.014 126.793C117.838 125.772 120.563 124.369 123.218 123.002C130.942 120.693 141.383 122.664 144.357 131.072Z" fill="#231F20"/>
<path d="M75.0176 132.431C78.196 137.136 79.3413 143.733 76.882 148.989C76.8465 143.342 75.8521 138.006 75.0176 132.431Z" fill="#231F20"/>
<path d="M96.6191 117.87C100.295 119.3 104.69 122.052 104.858 126.482C104.734 128.284 105.648 129.829 106.785 131.205C107.983 132.653 109.422 133.958 110.94 135.245C107.362 133.922 103.163 131.046 103.1 126.802C103.242 124.955 102.053 123.268 100.845 121.874C99.5934 120.463 98.1373 119.166 96.628 117.879L96.6191 117.87Z" fill="#231F20"/>
<path d="M100.817 177.879C102.531 187.13 100.196 194.49 97.6922 194.952C95.1885 195.413 99.9649 187.316 96.4935 178.678C92.5515 168.867 88.5297 162.839 91.0334 162.368C93.5371 161.906 99.1037 168.627 100.817 177.87V177.879Z" fill="#F1A244"/>
<path d="M93.3691 162.422C99.8947 168.148 102.762 177.835 100.747 186.234C100.205 177.773 97.8438 169.649 93.3691 162.422Z" fill="#231F20"/>
<path d="M133.891 173.991C138.57 172.029 147.333 170.999 151.044 175.18C148.327 174.026 145.504 174.159 142.627 174.088C140.026 174.071 136.483 174.177 133.891 173.991Z" fill="#231F20"/>
<path d="M76.2695 195.485C76.9354 193.026 78.7199 190.975 81.0283 189.901C81.8096 189.572 82.7684 189.323 83.6207 189.661C82.8572 190.078 82.3334 190.584 81.7652 191.09C80.0517 192.635 78.3471 194.375 76.2695 195.494V195.485Z" fill="#231F20"/>
<path d="M99.5488 106.631C99.5488 106.631 117.891 109.25 124.177 106.631V112.393C124.177 112.393 104.263 120.774 99.5488 106.631Z" fill="#432613" stroke="#231F20" stroke-width="1.77567" stroke-miterlimit="10"/>
<path d="M54.4815 137.216L57.6245 141.691C57.6245 141.691 75.4434 132.431 67.0533 121.368C67.0533 121.368 60.2436 135.316 54.4727 137.225L54.4815 137.216Z" fill="#432613" stroke="#231F20" stroke-width="1.77567" stroke-miterlimit="10"/>
<path d="M149.011 246.757C149.011 246.757 144.012 228.565 154.009 226.914C154.009 226.914 174.003 230.261 179.011 224.756C179.011 224.756 170.514 201.948 179.011 180.853C179.011 180.853 170.514 176.201 151.515 181.474C132.515 186.757 121.515 174.523 121.515 174.523C121.515 174.523 99.0169 163.86 92.0207 180.302C85.0246 196.745 84.0213 202.747 70.0202 211.243C56.019 219.74 61.5236 218.923 61.5236 218.923C61.5236 218.923 80.5233 232.747 79.0228 246.748C79.0228 246.748 93.5211 243.747 100.517 237.745C107.513 231.744 116.96 256.248 124.737 256.745C132.515 257.242 147.013 256.248 149.011 246.748V246.757Z" fill="#631011" stroke="#231F20" stroke-width="2.6635" stroke-miterlimit="10"/>
<path d="M179.382 224.206C182.04 224.206 184.194 214.702 184.194 202.978C184.194 191.254 182.04 181.75 179.382 181.75C176.725 181.75 174.57 191.254 174.57 202.978C174.57 214.702 176.725 224.206 179.382 224.206Z" fill="#F7B528" stroke="#231F20" stroke-width="1.77567" stroke-miterlimit="10"/>
<path d="M78.538 247.127C80.7641 245.675 78.4454 238.175 73.359 230.376C68.2726 222.576 62.3446 217.43 60.1185 218.882C57.8924 220.334 60.2112 227.834 65.2976 235.633C70.384 243.433 76.3119 248.579 78.538 247.127Z" fill="#F7B528" stroke="#231F20" stroke-width="1.77567" stroke-miterlimit="10"/>
<path d="M117.12 250.966C117.12 250.966 131.13 236.938 148.043 241.625L146.853 232.96C146.853 232.96 124.862 229.24 111.908 244.28L117.12 250.974V250.966Z" fill="#C7BCA1" stroke="#231F20" stroke-width="1.77567" stroke-miterlimit="10"/>
<path d="M119.738 237.772L123.139 246.331" stroke="#231F20" stroke-width="0.887835" stroke-miterlimit="10"/>
<path d="M137.141 232.552L139.067 240.746" stroke="#231F20" stroke-width="0.887835" stroke-miterlimit="10"/>
<path d="M86.399 209.202C85.6266 204.318 86.0794 199.267 87.7396 194.597C88.5209 199.48 88.0504 204.532 86.399 209.202Z" fill="#231F20"/>
<path d="M126.779 181.271C131.645 182.789 136.119 185.488 139.724 189.092C134.85 187.583 130.393 184.866 126.779 181.271Z" fill="#231F20"/>
<path d="M133.273 190.635C134.266 188.736 134.011 186.643 132.704 185.958C131.396 185.274 129.53 186.258 128.537 188.157C127.544 190.056 127.798 192.149 129.106 192.834C130.414 193.518 132.279 192.533 133.273 190.635Z" fill="#F7B528" stroke="#231F20" stroke-width="0.887835" stroke-miterlimit="10"/>
<path d="M90.9249 202.008C91.6628 200.73 91.5106 199.26 90.5849 198.726C89.6592 198.191 88.3105 198.794 87.5725 200.072C86.8346 201.351 86.9868 202.82 87.9125 203.354C88.8382 203.889 90.1869 203.286 90.9249 202.008Z" fill="#F7B528" stroke="#231F20" stroke-width="0.887835" stroke-miterlimit="10"/>
<path d="M132.363 198.29C139.927 220.859 104.307 232.223 97.4088 209.441C87.9978 181.829 123.413 172.747 132.363 198.29Z" fill="#F7B528" stroke="#231F20" stroke-width="1.77567" stroke-miterlimit="10"/>
<path d="M155.536 220.761L151.327 205.09L152.748 193.566L150.431 184.937C150.431 184.937 143.372 212.442 155.527 220.761H155.536Z" fill="#F7B528"/>
<path d="M153.45 185.923C150.529 196.692 150.36 207.986 153.45 218.737C147.936 208.811 148.114 195.893 153.45 185.923Z" fill="#231F20"/>
<path d="M90.6437 236.538L87.9624 222.866L81.9074 214.635L80.4336 207.106C80.4336 207.106 98.208 225.263 90.6437 236.529V236.538Z" fill="#F7B528"/>
<path d="M81.4199 211.262C81.4199 211.262 93.2902 219.11 93.379 232.96" stroke="#231F20" stroke-width="1.77567" stroke-miterlimit="10"/>
<path d="M106.041 185.271L103.568 186.108L115.61 221.662L118.082 220.825L106.041 185.271Z" fill="#631011"/>
<path d="M118.077 220.833L115.627 221.738L115.565 221.765L115.538 221.694C111.942 211.857 106.571 196.284 103.144 186.26L103.002 185.843L103.428 185.701C103.712 185.603 106.109 184.804 106.314 184.733C109.883 195.254 114.659 210.125 118.077 220.842V220.833ZM118.077 220.833C114.357 210.445 109.101 195.698 105.621 185.417L106.171 185.692L103.703 186.536L103.979 185.976C107.361 196.071 112.528 211.608 115.662 221.65L115.574 221.605L118.068 220.833H118.077Z" fill="#231F20"/>
<path d="M111.493 183.416L109.164 184.205L121.205 219.759L123.535 218.97L111.493 183.416Z" fill="#631011"/>
<path d="M123.53 218.985L121.222 219.837L121.16 219.855L121.133 219.793C117.324 209.432 112.219 194.525 108.588 183.942C109.174 183.747 111.172 183.081 111.758 182.886C115.327 193.407 120.112 208.278 123.521 218.994L123.53 218.985ZM123.53 218.985C119.81 208.597 114.554 193.851 111.074 183.569L111.624 183.845L109.298 184.644L109.573 184.084C113.089 194.587 118.017 209.343 121.257 219.758L121.177 219.713L123.53 218.985Z" fill="#231F20"/>
<path d="M129.947 215.159L127.514 216.837L117.082 185.105L119.47 185.141L129.947 215.159Z" fill="#631011"/>
<path d="M129.947 215.159L127.568 216.908L127.47 216.979L127.426 216.864C124.221 207.941 119.693 194.357 116.656 185.239L116.461 184.645L117.091 184.662C117.251 184.662 119.728 184.733 119.782 184.724C123.271 194.81 126.707 205.065 129.947 215.159ZM129.947 215.159C126.174 205.154 122.587 195.299 119.062 185.284L119.462 185.568L117.074 185.541L117.5 184.964C120.483 194.153 124.869 207.675 127.603 216.811L127.47 216.766L129.947 215.168V215.159Z" fill="#231F20"/>
<path d="M110.968 221.347L108.012 221.498L97.9082 191.667L100.261 188.781L110.968 221.347Z" fill="#631011"/>
<path d="M110.967 221.347L108.02 221.587H107.949C107.052 219.101 106.12 216.624 105.25 214.12C103.501 209.281 99.1414 196.603 97.4102 191.578L97.57 191.392L99.9316 188.506L100.429 187.894L100.669 188.639C103.794 198.13 107.975 211.679 110.967 221.338V221.347ZM110.967 221.347C107.656 211.838 102.95 198.317 99.8606 188.915L100.597 189.048L98.2537 191.951L98.3335 191.525C99.9938 196.488 104.211 209.139 105.729 213.952C106.431 216.322 107.576 219.332 108.011 221.4L110.967 221.338V221.347Z" fill="#231F20"/>
<path d="M101.725 187.867C105.995 198.725 109.715 209.877 112.84 221.125C108.57 210.258 104.85 199.116 101.725 187.867Z" fill="#631011"/>
<path d="M123.199 187.858C126.44 195.636 129.13 203.689 131.225 211.857C127.985 204.079 125.295 196.018 123.199 187.858Z" fill="#631011"/>
<path d="M107.381 184.396C112.033 196.479 116.144 208.846 119.651 221.312C114.999 209.228 110.888 196.861 107.381 184.396Z" fill="#631011"/>
<path d="M114.623 183.996C119.009 195.272 122.853 206.831 126.085 218.488C121.699 207.213 117.855 195.653 114.623 183.996Z" fill="#631011"/>
<path d="M96.6641 196.541C99.736 203.404 102.275 210.551 104.202 217.814C101.13 210.951 98.5907 203.804 96.6641 196.541Z" fill="#631011"/>
<path d="M78.9075 238.661C78.9075 238.661 85.3087 235.767 82.5565 230.901C79.8042 226.036 73.3496 216.421 73.3496 216.421C73.3496 216.421 75.8533 208.803 78.9075 216.421C81.9616 224.038 81.6953 226.613 83.249 228.664C84.7938 230.706 83.8171 232.544 89.7212 232.713C95.6253 232.881 96.4599 232.357 98.2977 233.449C100.136 234.541 100.97 236.211 100.97 236.211C100.97 236.211 93.7432 243.136 80.4434 245.178C80.4434 245.178 79.529 240.801 78.9164 238.679L78.9075 238.661Z" fill="#411312"/>
<path d="M70.0195 211.262C70.0195 211.262 85.1926 229.24 87.8294 244.28" stroke="#231F20" stroke-width="1.77567" stroke-miterlimit="10"/>
<path d="M155.535 225.973C155.535 225.973 155.952 220.078 160.454 221.117C164.955 222.156 164.786 224.651 164.955 222.156C165.124 219.652 159.708 193.701 163.126 189.226C166.544 184.751 164.742 177.24 167.521 182.532C170.291 187.823 170.806 185.071 170.22 190.282C169.634 195.494 168.959 198.681 169.128 202.339C169.297 205.997 170.646 208.385 170.22 211.271C169.794 214.156 169.98 217.015 170.22 218.001C170.46 218.986 166.917 219.492 170.442 219.821L173.967 220.158L177.039 224.216C177.039 224.216 175.973 228.974 155.553 225.982L155.535 225.973Z" fill="#411312"/>
<path d="M170.212 227.767C170.212 227.767 157.267 200.83 169.359 178.102" stroke="#231F20" stroke-width="1.77567" stroke-miterlimit="10"/>
<path d="M120.787 253.221C120.787 253.221 130.456 246.935 136.475 247.077C142.495 247.219 143.249 247.184 144.661 247.077L147.582 246.846L146.916 242.372C146.916 242.372 134.504 237.515 118.932 250.717L120.787 253.221Z" fill="#411312"/>
<path d="M179.381 206.857C180.21 206.857 180.882 205.12 180.882 202.978C180.882 200.835 180.21 199.098 179.381 199.098C178.553 199.098 177.881 200.835 177.881 202.978C177.881 205.12 178.553 206.857 179.381 206.857Z" fill="#631011"/>
<path d="M70.2097 235.414C70.9273 235 70.8751 233.566 70.093 232.211C69.3109 230.857 68.0951 230.094 67.3775 230.509C66.6598 230.923 66.7121 232.357 67.4942 233.712C68.2763 235.066 69.492 235.828 70.2097 235.414Z" fill="#631011" stroke="#231F20" stroke-width="0.887835" stroke-miterlimit="10"/>
<path d="M61.959 222.111C64.0188 224.748 65.8299 227.545 67.3748 230.51C65.315 227.873 63.5127 225.077 61.959 222.111Z" fill="#231F20"/>
<path d="M67.3826 224.357C67.6845 225.938 67.6845 227.518 67.3826 229.098C67.0808 227.518 67.0808 225.938 67.3826 224.357Z" fill="#231F20"/>
<path d="M70.9791 229.471C70.8016 230.137 70.3843 230.616 69.7539 230.882C69.9315 230.217 70.3488 229.737 70.9791 229.471Z" fill="#231F20"/>
<path d="M70.0905 227.979C69.9396 228.885 69.5313 229.666 68.8477 230.279C68.9897 229.373 69.4158 228.592 70.0905 227.979Z" fill="#231F20"/>
<path d="M72.338 231.664C71.6633 232.143 70.9086 232.33 70.0918 232.214C70.7577 231.735 71.5212 231.549 72.338 231.664Z" fill="#231F20"/>
<path d="M74.4771 234.514C73.2874 234.399 72.1954 233.99 71.2188 233.307C72.4084 233.422 73.5005 233.83 74.4771 234.514Z" fill="#231F20"/>
<path d="M71.2188 234.479C73.0122 235.323 74.6369 236.424 76.093 237.773C74.2995 236.93 72.6748 235.829 71.2188 234.479Z" fill="#231F20"/>
<path d="M71.1289 236.538C73.0289 238.767 74.6802 241.164 76.083 243.738C74.183 241.51 72.5317 239.113 71.1289 236.538Z" fill="#231F20"/>
<path d="M70.4892 236.059C70.9332 237.612 71.0841 239.202 70.9154 240.809C70.4715 239.255 70.3294 237.666 70.4892 236.059Z" fill="#231F20"/>
<path d="M70.3294 236.05C70.4626 237.408 70.2939 238.74 69.8145 240.027C69.6813 238.669 69.8588 237.337 70.3294 236.05Z" fill="#231F20"/>
<path d="M68.7936 236.13C68.838 236.796 68.5983 237.355 68.0833 237.781C68.0389 237.115 68.2787 236.556 68.7936 236.13Z" fill="#231F20"/>
<path d="M68.0846 235.304C68.1289 235.97 67.8893 236.529 67.3743 236.955C67.33 236.289 67.5696 235.73 68.0846 235.304Z" fill="#231F20"/>
<path d="M67.7004 234.469C67.4873 235.099 67.0522 235.525 66.4219 235.721C66.635 235.09 67.0701 234.664 67.7004 234.469Z" fill="#231F20"/>
<path d="M66.4603 231.664C64.7112 229.533 63.202 227.234 61.959 224.766C63.7169 226.896 65.2084 229.205 66.4603 231.664Z" fill="#231F20"/>
<path d="M66.7065 233.882C65.7476 233.447 64.9841 232.773 64.4336 231.885C65.3925 232.32 66.156 232.995 66.7065 233.882Z" fill="#231F20"/>
<path d="M179.543 185.372C179.773 189.722 179.711 194.073 179.338 198.423C179.099 194.073 179.17 189.722 179.543 185.372Z" fill="#231F20"/>
<path d="M182.97 192.946C182.268 194.917 181.292 196.755 180.049 198.433C180.75 196.462 181.727 194.633 182.97 192.946Z" fill="#231F20"/>
<path d="M183.672 200.972C183.024 201.434 182.296 201.603 181.506 201.478C182.154 201.017 182.882 200.848 183.672 200.972Z" fill="#231F20"/>
<path d="M183.956 198.353C183.157 199.107 182.207 199.596 181.133 199.809C181.932 199.054 182.882 198.566 183.956 198.353Z" fill="#231F20"/>
<path d="M183.369 204.274C182.401 204.105 181.566 203.67 180.883 202.969C181.851 203.129 182.685 203.572 183.369 204.274Z" fill="#231F20"/>
<path d="M183.298 209.219C182.313 208.003 181.585 206.635 181.141 205.126C182.126 206.342 182.845 207.71 183.298 209.219Z" fill="#231F20"/>
<path d="M180.289 206.405C181.292 208.9 182.012 211.484 182.438 214.147C181.426 211.652 180.715 209.069 180.289 206.405Z" fill="#231F20"/>
<path d="M179.418 208.102C179.702 212.132 179.684 216.163 179.356 220.194C179.072 216.163 179.09 212.132 179.418 208.102Z" fill="#231F20"/>
<path d="M178.476 207.515C177.73 209.512 176.718 211.368 175.439 213.072C176.185 211.075 177.206 209.219 178.476 207.515Z" fill="#231F20"/>
<path d="M178.213 206.574C177.326 208.075 176.207 209.38 174.857 210.481C175.745 208.98 176.864 207.675 178.213 206.574Z" fill="#231F20"/>
<path d="M177.58 205.669C177.127 206.317 176.506 206.725 175.725 206.868C176.169 206.211 176.799 205.811 177.58 205.669Z" fill="#231F20"/>
<path d="M176.781 203.422C176.301 204.363 175.6 205.118 174.686 205.641C175.165 204.691 175.866 203.955 176.781 203.422Z" fill="#231F20"/>
<path d="M177.413 202.214C176.756 202.605 176.045 202.703 175.309 202.499C175.966 202.099 176.676 202.01 177.413 202.214Z" fill="#231F20"/>
<path d="M178.875 198.334C178.174 194.605 177.766 190.841 177.668 187.05C178.378 190.779 178.778 194.543 178.875 198.334Z" fill="#231F20"/>
<path d="M178.132 200.554C177.049 199.63 176.196 198.53 175.602 197.242C176.685 198.157 177.537 199.275 178.132 200.554Z" fill="#231F20"/>
<path d="M158.875 13.958C160.783 16.293 166.386 23.449 160.739 24.5765C156.584 24.7541 152.651 23.1382 148.691 22.3303C147.386 22.0906 146.028 21.7621 144.838 22.1172C144.545 22.2237 144.403 22.348 144.296 22.5256C144.066 22.863 143.959 23.6887 144.003 24.5499C144.465 29.4596 144.865 34.5114 144.572 39.5276L144.305 39.5632C143.08 35.6744 142.299 31.7236 141.624 27.755C139.36 15.9379 147.937 19.8444 154.968 22.0995C156.762 22.6055 158.777 23.2803 160.588 23.2536C161.005 23.227 161.405 23.1382 161.654 22.9429C163.332 21.1051 159.789 15.9379 158.653 14.1267L158.866 13.9669L158.875 13.958Z" fill="#231F20"/>
<path d="M138 80.9805C138 80.9805 129.619 109.267 143.239 122.877C143.239 122.877 141.143 103.185 143.239 98.1689L138 80.9805Z" fill="#432613" stroke="#231F20" stroke-width="1.77567" stroke-miterlimit="10"/>
<path d="M52.76 109.817C52.76 109.817 43.8106 117.985 32.4552 127.175C21.0998 136.364 20.8335 136.754 19.3065 136.63C17.7794 136.506 15.3378 137.651 13.7664 137.704C12.1949 137.758 8.69682 138.29 8.69682 138.29L5.73143 139.578L3.98242 142.987C3.98242 142.987 17.2556 143.839 22.8489 139.578C28.4423 135.316 33.3609 129.439 35.2697 128.275C37.1786 127.112 52.7689 109.817 52.7689 109.817H52.76Z" fill="#6C3F18"/>
<path d="M164.938 230.731H170.362" stroke="#231F20" stroke-width="1.77567" stroke-miterlimit="10"/>
<path d="M164.504 234.23H170.008" stroke="#231F20" stroke-width="1.77567" stroke-miterlimit="10"/>
<path d="M164.504 237.143L169.511 238.474" stroke="#231F20" stroke-width="1.77567" stroke-miterlimit="10"/>
<path d="M196.953 247.228C199.466 245.337 203.141 245.141 205.956 246.446C202.902 246.384 199.936 246.508 196.953 247.228Z" fill="#231F20"/>
<path d="M176.454 256.622C176.383 254.393 176.613 252.129 176.48 249.927C176.276 248.968 177.208 248.356 177.936 249.039C179.126 250.424 179.801 252.031 180.626 253.612L179.073 254.464L177.785 252.342C177.111 251.206 176.311 249.759 175.637 248.613L177.359 249.039C179.659 249.776 182.509 250.336 184.329 251.987C184.089 251.783 183.76 251.747 183.467 251.659C181.781 251.277 178.78 250.842 177.04 250.54L177.847 249.386C178.673 250.567 179.792 252.307 180.573 253.541L179.019 254.393C178.336 252.981 177.688 251.472 176.871 250.149C177.164 250.407 177.768 250.265 177.91 249.838C177.936 249.75 177.927 249.785 177.936 249.75C177.936 249.732 177.936 249.705 177.936 249.696C177.936 249.705 177.936 249.776 177.927 249.874C177.794 252.218 177.182 254.446 176.445 256.648L176.454 256.622Z" fill="#231F20"/>
<path d="M87.8564 179.335C87.4658 180.41 86.9864 180.969 86.4892 180.836C84.8201 180.356 76.208 184.707 70.9964 187.477C68.617 188.737 66.948 189.67 66.948 189.67C66.948 189.67 60.4756 184.52 56.3561 172.579C52.2454 160.629 61.4256 154.476 61.4256 154.476C61.4256 154.476 74.2104 145.145 82.6448 155.311C89.3391 163.399 89.3657 175.198 87.8564 179.344V179.335Z" fill="#EBDBD9" stroke="#231F20" stroke-width="2.6635" stroke-miterlimit="10"/>
<path d="M88.4856 177.372C88.1127 178.393 87.651 178.935 87.1804 178.802C86.7986 178.695 86.0174 178.846 84.9875 179.192C82.5371 180.018 78.6838 181.882 75.3278 183.614C74.2891 184.146 73.3035 184.67 72.4068 185.141C71.1639 183.489 70.1606 181.447 69.5569 179.139C68.9088 176.68 68.7845 174.229 69.113 172.027C70.7821 165.555 73.348 162.625 78.6839 163.335C82.6791 164.099 86.4347 168.103 87.9085 173.679C88.2281 174.922 88.4234 176.156 88.4944 177.372H88.4856Z" fill="#5C2819" stroke="#231F20" stroke-width="1.33175" stroke-miterlimit="10"/>
<path d="M58.0946 174.434C58.0946 174.434 71.9094 154.795 81.2671 155.142C81.2671 155.142 78.9765 149.823 70.2135 151.43C54.4101 154.334 55.3778 173.973 58.0946 174.425V174.434Z" fill="#E99641"/>
<path d="M58.042 174.309C57.9532 174.363 58.0242 174.309 58.0153 174.309C58.2462 173.848 58.6635 173.093 58.9209 172.64C63.3512 165.493 69.0689 158.257 77.2814 155.381C78.5599 154.963 79.9005 154.679 81.2767 154.742L80.886 155.31C77.8407 149.628 67.018 152.673 63.2536 156.242C59.5424 159.447 57.5447 164.632 57.2074 169.568C57.1896 171.131 56.9677 173.102 58.0331 174.318L58.042 174.309ZM58.1485 174.558C57.7756 174.558 57.6158 174.407 57.385 174.203C56.2841 172.951 56.0355 171.184 55.8224 169.595C55.3075 163.975 57.0387 158.062 61.3625 154.102C66.8848 149.113 77.4766 147.834 81.6406 154.981L81.9602 155.558H81.25C76.1094 155.816 72.6202 160.388 68.9623 163.513C67.1156 165.253 65.3488 167.082 63.5643 168.92C62.0017 170.536 59.72 172.978 58.1485 174.549V174.558Z" fill="#231F20"/>
<path d="M77.8421 172.046C79.4161 172.046 80.6921 170.52 80.6921 168.637C80.6921 166.754 79.4161 165.228 77.8421 165.228C76.2681 165.228 74.9922 166.754 74.9922 168.637C74.9922 170.52 76.2681 172.046 77.8421 172.046Z" fill="#FAF7F6"/>
<path d="M74.5582 174.253C75.0958 173.516 74.6037 172.241 73.459 171.406C72.3143 170.571 70.9505 170.491 70.4129 171.228C69.8753 171.964 70.3674 173.239 71.5121 174.074C72.6568 174.909 74.0206 174.989 74.5582 174.253Z" fill="#FAF7F6"/>
<path d="M85.9119 178.625C83.0442 179.744 78.5162 182.203 74.5653 184.476C74.0415 183.597 73.6065 182.585 73.278 181.466C71.822 176.37 73.3579 171.069 76.7228 169.631C80.0788 168.193 83.9942 171.149 85.4502 176.246C85.681 177.045 85.8231 177.844 85.9119 178.625Z" fill="#010101"/>
<path d="M150.067 154.228C149.624 156.385 148.967 158.436 148.15 160.336C147.857 160.442 147.555 160.54 147.244 160.655C147.013 160.735 146.765 160.833 146.525 160.922C142.21 162.573 137.283 165.228 132.79 167.891C131.849 168.46 130.917 169.019 130.02 169.578C127.587 171.087 125.377 172.535 123.565 173.742C114.288 170.12 109.023 157.921 111.66 145.234C114.492 131.588 125.386 122.541 135.995 125.018C146.605 127.504 152.909 140.573 150.076 154.219L150.067 154.228Z" fill="white" stroke="#231F20" stroke-width="2.6635" stroke-miterlimit="10"/>
<path d="M147.244 160.655C141.881 162.599 135.418 166.239 130.011 169.578C125.802 167.065 122.819 161.738 122.668 155.488C122.588 152.229 123.281 149.166 124.542 146.609C124.71 146.272 124.941 145.979 125.145 145.668C130.836 136.976 140.958 139.631 145.068 145.056C146.8 147.701 147.874 151.075 147.972 154.769C148.025 156.837 147.758 158.817 147.244 160.646V160.655Z" fill="#472914" stroke="#231F20" stroke-width="0.887835" stroke-miterlimit="10"/>
<path d="M142.208 147.116C141.64 149.841 139.296 151.608 136.97 151.067C134.644 150.525 133.215 147.87 133.783 145.145C134.351 142.419 136.695 141.54 139.021 142.082C141.347 142.623 142.777 144.39 142.208 147.116Z" fill="white" stroke="#231F20" stroke-width="0.887835" stroke-miterlimit="10"/>
<path d="M150.171 140.316C132.725 136.303 119.541 140.36 111.523 144.329C111.568 142.527 111.79 147.205 112.172 145.359C115.004 131.713 125.897 122.666 136.507 125.143C144.95 127.123 149.15 136.312 150.18 140.316H150.171Z" fill="#ED9F43"/>
<path d="M150.269 140.413C143.753 139.818 137.112 139.347 130.604 140.12C123.936 140.901 117.153 142.002 111.062 145.012C111.089 144.657 111.089 144.133 111.16 143.795C111.267 143.36 111.95 143.511 111.924 143.689C112.119 144.284 112.101 145.003 112.288 145.518C112.279 145.518 112.261 145.456 112.128 145.393C112.048 145.358 111.941 145.358 111.862 145.393C111.799 145.411 111.746 145.456 111.737 145.473C111.675 145.544 111.702 145.527 111.693 145.518C112.474 141.425 113.762 137.43 115.963 133.834C119.994 127.14 127.825 122.097 135.86 123.553C143.797 124.973 149.293 132.795 150.269 140.404V140.413ZM150.083 140.226C149.914 140.049 149.781 139.729 149.683 139.498C147.845 135.467 145.111 131.552 141.551 128.96C129.121 120.303 115.191 133.026 112.572 145.553C112.519 145.749 112.501 145.864 112.323 146.077C112.172 146.281 111.711 146.246 111.586 145.988C111.293 145.402 111.373 145.012 111.258 144.452C111.231 144.31 111.205 144.115 111.187 144.053C111.187 144.053 111.187 144.071 111.222 144.133C111.134 144.222 111.666 144.435 111.87 144.186C111.95 144.088 111.95 144.035 111.95 144.044C111.968 143.991 111.95 144.026 111.95 144.026V144.115V144.337L111.338 143.946C117.269 140.901 123.634 138.246 130.373 137.758C137.041 137.19 143.797 137.909 150.083 140.217V140.226Z" fill="#231F20"/>
<path d="M130.642 157.508C132.146 157.229 133.094 155.541 132.76 153.738C132.425 151.935 130.935 150.699 129.431 150.978C127.926 151.257 126.978 152.945 127.313 154.748C127.647 156.551 129.138 157.787 130.642 157.508Z" fill="white"/>
<path d="M147.588 161.028C142.883 162.928 137.494 165.982 132.584 169.036C131.705 167.811 130.995 166.337 130.533 164.695C128.819 158.613 131.154 152.354 135.745 150.711C140.335 149.069 145.431 152.674 147.127 158.755C147.34 159.51 147.482 160.273 147.579 161.028H147.588Z" fill="#010101"/>
<path d="M155.954 158.64C144.483 163.976 131.982 168.725 122.482 177.302C128.697 166.461 143.995 160.122 155.954 158.64Z" fill="#231F20"/>
<path d="M62.7031 194.605C66.4409 190.282 71.2353 187.014 76.2782 184.386C81.3388 181.803 86.8256 179.894 92.5166 179.379C82.5551 184.138 72.3983 189.269 62.7031 194.605Z" fill="#231F20"/>
<path d="M133.224 190.61C133.224 190.61 147.048 218.417 117.758 223.833C117.758 223.833 101.777 232.729 93.3695 214.164C93.3695 214.164 87.128 216.881 94.4527 224.81C101.786 232.729 108.383 231.655 108.383 231.655L127.205 226.683L138.605 216.508C138.605 216.508 144.367 177.115 133.224 190.619V190.61Z" fill="#411312"/>
<path d="M111.908 236.645C111.908 236.645 120.511 223.718 139.982 227.767L111.908 236.645Z" fill="#F7B528"/>
<path d="M111.908 236.645C111.908 236.645 120.511 223.718 139.982 227.767" stroke="#231F20" stroke-width="1.77567" stroke-miterlimit="10"/>
<path d="M136.297 197.704C145.699 225.769 101.414 239.903 92.8282 211.563C81.1176 177.231 125.163 165.929 136.297 197.704Z" stroke="#231F20" stroke-width="1.77567" stroke-miterlimit="10"/>
<defs>
<radialGradient id="paint0_radial_1891_2230" cx="0" cy="0" r="1" gradientUnits="userSpaceOnUse" gradientTransform="translate(148.971 170.609) rotate(92.2069) scale(19.2856 34.7141)">
<stop stop-color="#EA3741" stop-opacity="0.9"/>
<stop offset="1" stop-color="#FF6D6D" stop-opacity="0"/>
</radialGradient>
<radialGradient id="paint1_radial_1891_2230" cx="0" cy="0" r="1" gradientUnits="userSpaceOnUse" gradientTransform="translate(88.5122 188.826) rotate(92.2069) scale(19.2856 34.7141)">
<stop stop-color="#EA3741" stop-opacity="0.9"/>
<stop offset="1" stop-color="#FF6D6D" stop-opacity="0"/>
</radialGradient>
<radialGradient id="paint2_radial_1891_2230" cx="0" cy="0" r="1" gradientUnits="userSpaceOnUse" gradientTransform="translate(92.9516 124.922) rotate(92.2069) scale(19.2856 34.7141)">
<stop stop-color="#EA3741" stop-opacity="0.9"/>
<stop offset="1" stop-color="#FF6D6D" stop-opacity="0"/>
</radialGradient>
</defs>
</svg>
