<svg width="207" height="390" viewBox="0 0 207 390" fill="none" xmlns="http://www.w3.org/2000/svg">
<path d="M124.723 210.024L147.819 197.762L145.389 225.084L136.276 228.177L124.723 210.024Z" fill="#F0A243"/>
<path d="M9.92578 104.269C9.92578 104.269 14.7035 124.227 20.2453 129.438C25.7778 134.648 32.2125 157.763 32.2125 157.763L35.996 135.44L33.1791 116.679L23.7342 99.3076C23.7342 99.3076 13.249 106.635 9.92578 104.26V104.269Z" fill="#271711" stroke="#221F1F" stroke-width="1.84112" stroke-miterlimit="10"/>
<path d="M149.936 153.087L122.853 94.7699C122.549 94.1163 121.85 93.7389 121.141 93.8493L33.7429 106.986C33.5588 107.013 26.4153 106.351 26.2312 106.323L2.59121 102.033C2.02046 101.932 1.79955 101.223 2.21381 100.818C4.41394 98.6547 9.46781 93.1497 10.2135 87.6172C11.5299 77.9145 15.967 65.7079 33.6417 45.2622C33.6693 45.2346 33.6877 45.207 33.7153 45.1702C34.7095 43.7894 61.3413 13.5398 99.9219 17.9032C100.078 17.9216 100.327 17.9953 100.465 18.0689L104.902 20.0021L104.12 19.0816C103.208 18.7041 102.72 18.161 103.282 17.3509C103.871 16.4856 104.451 16.6605 105.537 17.2588C107.986 18.6213 111.466 20.5176 115.461 22.7086C116.345 23.1965 108.124 -0.857753 112.294 6.93018C117.431 16.504 123.378 21.5579 123.387 19.1C123.387 10.9714 129.306 0.587525 128.92 2.16168C123.387 24.6601 148.702 41.1013 154.244 44.8848C155.192 45.5292 156.49 45.0045 156.72 43.8814C157.936 38.0359 161.213 25.5163 163.698 45.9711C163.818 46.9745 164.729 47.6925 165.733 47.5544C170.833 46.8824 183.969 45.5752 169.7 52.1572C168.789 52.5807 168.476 53.713 169.047 54.5323C174.423 62.3386 196.461 97.7986 178.022 131.528C177.985 131.601 177.949 131.684 177.921 131.767L171.689 150.114C171.495 150.685 170.989 151.108 170.391 151.2L151.657 154.017C150.949 154.128 150.249 153.75 149.945 153.097L149.936 153.087Z" fill="#432B18" stroke="#221F1F" stroke-width="2.76168" stroke-miterlimit="10"/>
<path d="M26.2227 106.313C26.2227 106.313 23.1756 121.621 31.5435 141.745C31.5435 141.745 34.0751 146.707 32.5377 164.17C32.5377 164.17 24.3723 200.44 79.118 217.166C79.118 217.166 145.288 234.546 159.161 164.74C159.161 164.74 170.668 180.307 181.733 146.836C182.405 144.801 182.46 142.573 181.668 140.585C180.858 138.532 179.1 136.442 175.372 135.991C171.487 135.522 167.676 137.225 165.098 140.161C163.248 142.27 161.554 145.077 161.996 148.023L166.083 138.348L154.337 152.396C154.337 152.396 137.307 130.008 134.665 108.421C134.665 108.421 130.329 90.8379 134.637 77.7292C135.097 76.3391 133.459 75.1884 132.299 76.0998C124.861 81.9361 110.748 90.663 93.8193 89.6136C68.6329 88.0486 78.9707 81.7428 43.1057 96.0483L26.2319 106.303L26.2227 106.313Z" fill="#FBBC73" stroke="#010101" stroke-width="2.76168" stroke-miterlimit="10"/>
<path d="M146.051 79.2959L157.641 97.1547C157.641 97.1547 161.765 81.0909 165.484 90.0388C165.484 90.0388 166.966 80.1612 171.449 78.3753C171.449 78.3753 164.37 62.8823 160.448 60.498C160.448 60.498 166.119 74.4997 154.382 71.5079L146.051 79.2959Z" fill="white" stroke="#221F1F" stroke-width="1.84112" stroke-miterlimit="10"/>
<path d="M145.242 52.0935C145.242 52.0935 137.574 36.6097 114.302 35.9561C114.302 35.9561 131.268 50.0406 113.51 46.4688C113.51 46.4688 113.298 56.8988 100.576 55.2418C100.576 55.2418 96.9493 58.7583 121.261 66.3897C121.261 66.3897 121.289 58.6662 127.53 60.6915C133.772 62.7259 124.538 48.669 145.251 52.0935H145.242Z" fill="white" stroke="#221F1F" stroke-width="1.84112" stroke-miterlimit="10"/>
<path d="M133.882 77.5655C138.734 70.3023 152.551 56.7148 152.551 56.7148C152.551 56.7148 125.947 78.0994 102.629 78.0718C79.3117 78.0442 72.9322 72.2078 62.1156 76.9487C51.299 81.6896 25.5602 103.442 2.21484 100.8L25.4958 104.694C25.4958 104.694 52.818 87.7469 69.8115 84.9852C79.7259 83.3742 100.715 96.9525 130.163 75.9729L145.435 63.9873" fill="#271710"/>
<path d="M177.356 153.19C179.769 149.922 179.786 145.841 177.394 144.074C175.002 142.307 171.106 143.523 168.692 146.791C166.279 150.058 166.262 154.139 168.654 155.907C171.046 157.674 174.942 156.457 177.356 153.19Z" fill="#F0A243"/>
<path d="M168.697 159.18C167.693 157.855 167.003 156.308 166.561 154.679C166.128 153.059 165.935 151.31 166.248 149.561C166.542 147.83 167.38 146.09 168.743 144.93C170.059 143.724 171.762 143.126 173.401 142.997C171.983 143.862 170.685 144.765 169.783 145.924C168.844 147.066 168.338 148.438 168.071 149.874C167.822 151.328 167.84 152.865 167.979 154.412C168.135 155.968 168.402 157.542 168.706 159.171L168.697 159.18Z" fill="#221F1F"/>
<path d="M166.882 148.898C167.683 148.392 168.714 148.337 169.662 148.631C170.62 148.926 171.457 149.616 172.001 150.426C172.581 151.236 172.829 152.166 172.958 153.068C172.986 153.529 172.995 153.98 172.958 154.431C172.884 154.882 172.811 155.324 172.663 155.766C172.406 155.361 172.24 154.965 172.065 154.569C171.899 154.182 171.697 153.814 171.559 153.437C171.2 152.728 170.896 152.028 170.472 151.448C169.69 150.27 168.65 149.414 166.873 148.889L166.882 148.898Z" fill="#221F1F"/>
<path d="M73.9531 215.464C73.9531 215.464 101.929 173.109 121.04 168.837C139.902 164.612 130.825 208.403 134.075 200.311C145.886 170.863 156.951 166.453 156.951 166.453C156.951 166.453 148.767 230.763 73.9623 215.464H73.9531Z" fill="#F0A243"/>
<path d="M160.955 151.623L154.419 158.509C154.419 158.509 139.911 132.945 136.32 127.541L122.807 121.042C122.825 118.851 113.73 111.606 111.677 112.37C104.405 115.068 97.0954 103.689 89.243 101.526C78.0858 98.4515 60.6229 92.5231 47.1459 105.291C33.853 117.875 35.5008 114.119 35.5008 114.119L29.0661 128.719C29.0661 128.719 27.0685 124.172 27.1697 106.921C27.1697 106.921 43.4637 96.9509 49.0054 95.119C49.0054 95.119 60.7333 90.1572 68.4292 88.3437C70.031 87.9663 75.7845 87.4416 77.3678 87.8926C84.3457 89.8718 107.277 95.4412 128.938 80.1231C129.02 80.0679 129.103 79.9942 129.186 79.939L134.093 76.625C134.378 77.1405 134.433 77.7389 134.249 78.3004C132.905 82.3969 126.636 100.836 140.721 133.23L154.253 154.946L160.31 147.711L160.955 151.614V151.623Z" fill="#F0A243"/>
<path d="M126.801 69.6013C127.546 68.6991 128.356 67.9443 129.185 67.2078C130.014 66.4806 130.86 65.7994 131.726 65.1458C132.591 64.4922 133.466 63.857 134.349 63.231C135.233 62.6051 136.126 62.0067 137.047 61.2979C136.761 62.4486 136.062 63.4243 135.334 64.2897C134.589 65.155 133.751 65.9283 132.849 66.6003C131.956 67.2815 131.008 67.8799 130.004 68.3954C129.001 68.9017 127.961 69.3435 126.81 69.5921L126.801 69.6013Z" fill="#221F1F"/>
<path d="M136.108 55.112C135.961 54.4032 136.467 53.722 137.028 53.3353C137.618 52.9395 138.29 52.7738 138.934 52.7554C139.578 52.7462 140.195 52.8658 140.757 53.096C141.318 53.3353 141.843 53.6759 142.285 54.1822C141.631 54.4124 141.07 54.4584 140.527 54.5228C139.983 54.5689 139.477 54.5873 138.989 54.5965C138.501 54.6149 138.059 54.6241 137.608 54.6609C137.157 54.707 136.679 54.7622 136.117 55.112H136.108Z" fill="#221F1F"/>
<path d="M79.8261 163.196C78.5465 172.917 71.2188 187.618 68.0245 179.066C66.8738 175.973 74.9563 173.018 74.1738 163.242C73.2901 152.14 69.1936 145.576 72.4524 146.11C75.702 146.653 80.986 154.303 79.8261 163.187V163.196Z" fill="#F0A243"/>
<path d="M74.5879 147.224C75.9411 148.963 76.8893 150.989 77.5889 153.078C78.2978 155.168 78.7212 157.368 78.8869 159.578C78.9421 160.13 78.9421 160.682 78.9421 161.244C78.9329 161.796 78.979 162.358 78.9237 162.91C78.8133 164.015 78.7672 165.119 78.5095 166.206C78.1413 168.387 77.3772 170.486 76.4014 172.438C76.65 170.247 76.9998 168.157 77.0918 166.031C77.2391 163.923 77.2115 161.814 77.055 159.716C76.9445 157.617 76.6131 155.536 76.2081 153.456C75.7846 151.375 75.2599 149.313 74.5879 147.233V147.224Z" fill="#221F1F"/>
<path d="M81.3188 182.859C87.4497 184.203 93.1848 178.854 93.7371 176.35C94.2895 173.837 87.8271 179.572 82.2762 176.461C75.9703 172.926 72.3894 175.503 71.8371 178.016C71.2847 180.53 75.1879 181.515 81.3188 182.859Z" fill="#F0A243"/>
<path d="M81.1874 173.486C81.3439 173.412 81.5096 173.366 81.6753 173.348C82.9273 173.164 88.5703 172.289 90.5035 171.543C92.6944 170.696 95.7875 170.641 93.7531 173.753C93.0258 174.867 87.8891 177.711 80.8928 177.803C71.5768 177.923 79.6409 174.176 81.1782 173.495L81.1874 173.486Z" fill="#FED09D"/>
<path d="M76.3555 173.055C75.7755 174.012 75.2048 174.988 75.0759 175.872C75.0023 176.304 75.1036 176.608 75.2508 176.737C75.3981 176.875 75.6466 177.013 76.0149 177.151C76.7605 177.4 77.7363 177.547 78.7213 177.611C79.6971 177.685 80.6913 177.694 81.6763 177.639C83.6647 177.538 85.6623 177.206 87.6968 176.755C89.7312 176.304 91.784 175.734 93.9565 175.126C92.4837 176.866 90.5781 178.155 88.5253 179.14C86.4632 180.106 84.1987 180.741 81.8512 180.861C80.6821 180.925 79.4946 180.861 78.3163 180.658C77.1564 180.438 75.9781 180.152 74.7906 179.397C74.2106 179.02 73.5662 178.44 73.2808 177.575C72.9955 176.691 73.2532 175.835 73.5938 175.273C74.3302 174.15 75.2968 173.506 76.3555 173.064V173.055Z" fill="#221F1F"/>
<path d="M95.0873 150.445C95.8606 149.469 96.8916 148.742 97.9963 148.19C99.1102 147.638 100.334 147.269 101.614 147.168C102.894 147.058 104.219 147.297 105.398 147.812C106.604 148.291 107.552 149.239 108.215 150.252C107.036 149.819 106.033 149.35 104.946 149.175C103.879 148.982 102.82 148.917 101.743 149C99.5796 149.156 97.4348 149.773 95.0781 150.436L95.0873 150.445Z" fill="#231F20"/>
<path d="M52.2369 202.613C52.2369 202.613 40.1592 186.872 39.7633 173.671C39.3675 160.47 35.2987 157.515 34.461 161.372C33.4483 166.002 30.1804 186.54 52.2369 202.604V202.613Z" fill="#FDD4A2"/>
<path d="M64.2035 152.148C62.0218 152.986 60.1346 153.87 58.6249 155.205C57.8792 155.868 57.1796 156.604 56.618 157.488C56.2866 157.902 56.0565 158.381 55.7619 158.85C55.4765 159.329 55.2649 159.844 54.9335 160.351C54.869 159.771 54.8414 159.172 54.9058 158.574C55.0163 157.994 55.0807 157.377 55.3385 156.825C55.7343 155.674 56.4984 154.625 57.4373 153.815C58.3763 152.995 59.5086 152.415 60.6777 152.13C61.856 151.854 63.0804 151.799 64.2219 152.148H64.2035Z" fill="#231F20"/>
<path d="M109.606 109.517L110.444 104.5C110.444 104.5 100.336 105.586 86.7579 96.5645C86.7579 96.5645 85.1469 101.453 88.7462 106.028C88.7462 106.028 96.9852 111.376 109.606 109.517Z" fill="#432A17" stroke="#231F20" stroke-width="1.38084" stroke-miterlimit="10"/>
<path d="M54.3921 100.477C54.3921 100.477 50.7098 113.402 35.3457 112.463C35.3457 112.463 35.7968 116.403 40.6205 116.375C45.435 116.357 55.9939 110.299 56.537 107.022C57.0801 103.754 58.1756 104.417 54.3921 100.468V100.477Z" fill="#432A17" stroke="#231F20" stroke-width="1.38084" stroke-miterlimit="10"/>
<ellipse opacity="0.7" cx="118.913" cy="160.717" rx="46.0908" ry="25.606" transform="rotate(-15.7163 118.913 160.717)" fill="url(#paint0_radial_1891_1697)"/>
<ellipse opacity="0.7" cx="54.9855" cy="171.205" rx="46.0908" ry="25.606" transform="rotate(-1.06284 54.9855 171.205)" fill="url(#paint1_radial_1891_1697)"/>
<path d="M58.8383 175.126C58.8383 175.126 93.571 165.672 121.04 168.848C121.04 168.848 138.669 193.27 121.04 208.827C121.04 208.827 84.752 221.264 65.052 208.827C65.052 208.827 56.2423 202.089 58.829 175.135L58.8383 175.126Z" fill="#F3FAFB" stroke="#231F20" stroke-width="2.76168" stroke-miterlimit="10"/>
<path d="M63.4761 180.888C63.4761 180.888 72.1294 183.567 82.2003 183.448C92.2712 183.328 103.18 175.291 103.272 183.65C103.364 192.009 104.92 197.67 100.041 201.831C95.1618 205.992 76.6401 211.469 76.6401 211.469C76.6401 211.469 95.8798 215.474 119.152 207.603C119.152 207.603 135.979 194.752 119.152 170.412C119.152 170.412 93.9558 168.222 61.2852 176.258L63.4761 180.898V180.888Z" fill="#D5E5E5"/>
<path d="M120.072 170.402L164.001 142.997" stroke="#221F1F" stroke-width="2.76168" stroke-miterlimit="10"/>
<path d="M158.782 164.622L128.873 197.762" stroke="#221F1F" stroke-width="2.76168" stroke-miterlimit="10"/>
<path d="M58.838 175.126C58.838 175.126 21.3804 162.477 32.2062 157.773" stroke="#221F1F" stroke-width="2.76168" stroke-miterlimit="10"/>
<path d="M61.6717 203.791C61.6717 203.791 35.758 201.904 42.9568 197.762" stroke="#221F1F" stroke-width="2.76168" stroke-miterlimit="10"/>
<path d="M33.5221 50.9416C33.5221 50.9416 59.7027 28.1301 79.9182 27.3569C100.134 26.5836 112.506 26.4271 112.506 26.4271C112.506 26.4271 103.521 16.9085 86.1412 20.3606C86.1412 20.3606 57.9813 19.6058 32.178 49.5515C32.178 49.5515 28.9377 54.6698 33.5313 50.9508L33.5221 50.9416Z" fill="#6E4019"/>
<path d="M140.758 121.052C140.758 121.052 146.705 126.124 154.852 128.775C159.749 130.368 168.78 132.513 168.78 132.513L153.977 149.248C153.977 149.248 143.566 133.001 140.767 121.052H140.758Z" fill="#271710"/>
<path d="M105.205 219.625C105.205 219.625 89.6562 263.168 89.6562 292.718L105.205 295.314C105.205 295.314 114.539 228.343 119.197 222.949C123.855 217.554 119.197 325.379 119.197 325.379C119.197 325.379 121.268 334.714 170.518 325.379V291.687L177.772 320.712C177.772 320.712 188.138 320.712 191.249 319.156C191.249 319.156 182.955 295.314 182.955 292.718C182.955 290.122 172.138 225.894 165.851 208.22C165.851 208.22 178.877 258.16 183.13 289.864C183.13 289.864 188.92 292.193 202.655 285.979C202.655 285.979 193.072 247.481 192.704 245.189C191.93 240.467 184.52 213.145 182.439 208.735C180.368 204.326 170.003 178.412 156.001 179.968L144.853 230.773L147.707 254.717H141.484C141.484 254.717 139.928 231.814 138.888 229.475C138.888 229.475 122.557 217.039 118.93 217.039C118.93 217.039 109.08 219.635 105.195 219.635L105.205 219.625Z" fill="#EA509C" stroke="#0C0C0C" stroke-width="1.84112" stroke-miterlimit="10"/>
<path d="M90.1923 293.307C90.1923 293.307 102.896 295.903 104.452 294.862C106.007 293.822 106.523 302.116 106.781 303.414C107.038 304.712 104.709 311.193 104.709 311.193L102.896 304.712C102.896 304.712 104.967 314.047 104.194 315.603C103.421 317.158 104.323 320.307 98.5049 307.051C98.5049 307.051 105.75 329.862 95.1264 308.606C95.1264 308.606 105.234 329.08 91.7572 311.202C91.7572 311.202 87.3477 305.762 90.2015 293.316L90.1923 293.307Z" fill="#FDBF75" stroke="#231F20" stroke-width="1.38084" stroke-miterlimit="10"/>
<path d="M142.352 274.445C142.352 274.445 151.76 294.698 151.309 317.03L142.352 274.445Z" fill="#C92C7C"/>
<path d="M142.352 274.445C144.174 277.63 145.629 281.027 146.872 284.489C148.133 287.941 149.108 291.503 149.909 295.093C150.305 296.889 150.609 298.711 150.913 300.525C151.042 301.436 151.134 302.357 151.253 303.268L151.419 304.64L151.511 306.02C151.833 309.684 151.704 313.394 151.327 317.04C150.94 313.385 150.664 309.767 150.084 306.177C149.55 302.587 148.924 299.024 148.123 295.489C147.369 291.945 146.485 288.429 145.518 284.93C144.542 281.432 143.493 277.943 142.361 274.455L142.352 274.445Z" fill="#231F20"/>
<path d="M124.998 329.853L128.883 378.578C128.883 378.578 131.994 381.689 143.142 378.578L137.177 329.853C137.177 329.853 131.212 330.626 124.998 329.853Z" fill="#AFAFAE" stroke="#231F20" stroke-width="1.84112" stroke-miterlimit="10"/>
<path d="M153.508 328.04L165.687 326.106L174.239 377.023C174.239 377.023 171.643 380.392 163.873 378.321L153.508 328.04Z" fill="#AFAFAE" stroke="#231F20" stroke-width="1.84112" stroke-miterlimit="10"/>
<path d="M163.532 378.385C163.532 378.385 161.719 384.866 165.088 387.452C168.457 390.039 193.34 388.75 194.38 388.75C195.42 388.75 202.417 383.825 190.238 380.972C190.238 380.972 182.459 381.745 174.689 377.087C174.689 377.087 171.836 379.416 163.542 378.385H163.532Z" fill="#231F20" stroke="#231F20" stroke-width="0.920559" stroke-miterlimit="10"/>
<path d="M143.144 378.579C143.144 378.579 144.957 385.059 141.588 387.646C138.219 390.242 113.336 388.944 112.296 388.944C111.256 388.944 104.259 384.019 116.438 381.165C116.438 381.165 121.105 383.237 128.875 378.569C128.875 378.569 134.84 379.61 143.134 378.569L143.144 378.579Z" fill="#231F20" stroke="#231F20" stroke-width="0.920559" stroke-miterlimit="10"/>
<path d="M153.83 186.356L144.864 230.773L142.793 221.567C142.793 221.567 143.723 202.677 144.238 201.251C144.754 199.824 151.106 193.997 153.83 186.347V186.356Z" fill="#F3FAFB" stroke="#231F20" stroke-width="1.38084" stroke-miterlimit="10"/>
<path d="M147.716 255.002L140.959 255.416C140.959 255.416 139.145 226.216 136.945 222.718L141.751 220.398C141.751 220.398 149.005 250.077 147.716 255.002Z" fill="#F3FAFB" stroke="#231F20" stroke-width="1.38084" stroke-miterlimit="10"/>
<path d="M129.315 213.145C129.315 213.145 139.036 221.697 138.125 228.177L120.781 216.422C120.781 216.422 126.627 214.986 129.315 213.145Z" fill="#F3FAFB" stroke="#231F20" stroke-width="1.38084" stroke-miterlimit="10"/>
<path d="M143.887 203.985L151.757 196.639" stroke="#231F20" stroke-width="0.920559" stroke-miterlimit="10"/>
<path d="M150.801 201.381L143.621 207.355" stroke="#231F20" stroke-width="0.920559" stroke-miterlimit="10"/>
<path d="M149.768 206.479L143.389 210.843" stroke="#231F20" stroke-width="0.920559" stroke-miterlimit="10"/>
<path d="M148.758 211.488L143.621 214.342" stroke="#231F20" stroke-width="0.920559" stroke-miterlimit="10"/>
<path d="M147.875 215.879L142.904 217.37" stroke="#231F20" stroke-width="0.920559" stroke-miterlimit="10"/>
<path d="M147.213 220.086H142.904" stroke="#231F20" stroke-width="0.920559" stroke-miterlimit="10"/>
<path d="M143.389 223.159L146.196 224.172" stroke="#231F20" stroke-width="0.920559" stroke-miterlimit="10"/>
<path d="M123.186 217.369L130.578 214.341" stroke="#231F20" stroke-width="0.920559" stroke-miterlimit="10"/>
<path d="M132.05 215.879L124.723 219.092" stroke="#231F20" stroke-width="0.920559" stroke-miterlimit="10"/>
<path d="M133.457 217.48L127.041 220.666" stroke="#231F20" stroke-width="0.920559" stroke-miterlimit="10"/>
<path d="M135.408 220.086L130.244 222.838" stroke="#231F20" stroke-width="0.920559" stroke-miterlimit="10"/>
<path d="M136.947 222.718L132.832 224.172" stroke="#231F20" stroke-width="0.920559" stroke-miterlimit="10"/>
<path d="M137.508 224.173L134.885 225.986" stroke="#231F20" stroke-width="0.920559" stroke-miterlimit="10"/>
<path d="M140.758 252.332L147.818 251.918" stroke="#231F20" stroke-width="0.920559" stroke-miterlimit="10"/>
<path d="M140.502 248.825H147.02" stroke="#231F20" stroke-width="0.920559" stroke-miterlimit="10"/>
<path d="M145.389 236.674H139.902" stroke="#231F20" stroke-width="0.920559" stroke-miterlimit="10"/>
<path d="M139.092 233.811L144.293 232.099" stroke="#231F20" stroke-width="0.920559" stroke-miterlimit="10"/>
<path d="M143.888 229.613L139.23 230.773" stroke="#231F20" stroke-width="0.920559" stroke-miterlimit="10"/>
<path d="M138.127 228.177L143.245 226.741" stroke="#231F20" stroke-width="0.920559" stroke-miterlimit="10"/>
<path d="M137.939 225.986L142.413 224.173" stroke="#231F20" stroke-width="0.920559" stroke-miterlimit="10"/>
<path d="M139.902 240.007H146.042" stroke="#231F20" stroke-width="0.920559" stroke-miterlimit="10"/>
<path d="M146.578 244.286H140.502" stroke="#231F20" stroke-width="0.920559" stroke-miterlimit="10"/>
<path d="M115.469 224.173C115.469 224.173 98.0152 272.659 103.962 291.843L115.469 224.173Z" fill="#C92C7C"/>
<path d="M96.5519 256.558C96.5519 256.558 90.1541 279.921 93.063 291.612L96.5519 256.558Z" fill="#F173AC"/>
<path d="M123.186 240.007C123.186 240.007 125.414 318.024 124.723 320.878C124.723 320.878 143.052 327.975 148.308 326.107C148.308 326.107 136.957 330.912 121.041 325.379L123.186 240.007Z" fill="#F173AC"/>
<path d="M169.387 296.658C169.387 296.658 168.347 300.276 165.88 307.585C164.002 313.136 159.482 320.096 157.899 320.611C156.316 321.127 153.508 327.119 153.508 327.119L169.48 324.385L169.378 296.658H169.387Z" fill="#C92C7C"/>
<path d="M141.872 284.406C142.075 286.486 142.111 288.557 142.102 290.61C142.102 292.672 142.019 294.725 141.927 296.769C141.808 298.812 141.688 300.865 141.522 302.9L141.292 305.956C141.255 306.462 141.228 306.978 141.209 307.484C141.209 307.99 141.172 308.506 141.32 309.003C140.997 308.58 140.841 308.046 140.703 307.539C140.565 307.024 140.482 306.508 140.39 305.993C140.243 304.953 140.141 303.912 140.086 302.881C139.957 300.801 140.003 298.739 140.086 296.668C140.206 294.605 140.381 292.543 140.666 290.5C140.942 288.456 141.301 286.413 141.863 284.396L141.872 284.406Z" fill="#C92C7C"/>
<path d="M142.349 308.661C142.349 308.661 140.167 292.67 142.349 287.479V308.661Z" fill="#F173AC"/>
<path d="M142.35 308.661C141.742 306.948 141.356 305.19 141.061 303.423C140.776 301.655 140.582 299.869 140.518 298.074C140.444 296.279 140.518 294.475 140.73 292.67C140.96 290.894 141.356 289.025 142.35 287.479C142.083 289.264 142.129 290.995 142.166 292.753L142.359 298.01C142.433 299.768 142.479 301.526 142.497 303.303C142.516 305.08 142.497 306.856 142.359 308.67L142.35 308.661Z" fill="#231F20"/>
<path d="M161.544 182.849C162.713 183.171 163.688 183.778 164.637 184.432C165.576 185.095 166.45 185.85 167.269 186.651C168.917 188.252 170.353 190.047 171.67 191.907C174.302 195.644 176.466 199.686 178.362 203.828C182.1 212.141 184.843 220.84 187.19 229.604C188.304 233.995 189.547 238.312 190.734 242.667C191.922 247.012 192.962 251.393 193.883 255.803C194.785 260.212 195.65 264.64 196.387 269.096C197.132 273.551 197.795 278.016 198.219 282.554L197.767 282.665C196.083 278.439 194.638 274.15 193.266 269.841C191.885 265.533 190.642 261.197 189.436 256.852C186.997 248.171 185.368 239.279 183.554 230.478C181.704 221.733 179.448 213.052 176.217 204.74C174.625 200.579 172.784 196.501 170.464 192.708C169.304 190.811 168.024 188.989 166.551 187.341C165.815 186.512 165.042 185.721 164.186 185.021C163.339 184.331 162.4 183.668 161.424 183.309L161.525 182.858L161.544 182.849Z" fill="#C92C7C"/>
<path d="M193.691 286.155L189.318 287.986C188.572 288.364 187.486 288.41 186.667 287.959C185.82 287.545 185.221 286.596 185.102 285.713L183.261 276.415C182.073 270.21 180.858 264.006 179.606 257.81C178.971 254.717 178.327 251.624 177.636 248.54C176.964 245.457 176.403 242.354 175.915 239.234C174.93 233.001 174.276 226.732 173.42 220.463L173.77 220.344C175.27 223.225 176.228 226.291 177.157 229.328C178.078 232.375 178.833 235.459 179.542 238.552C180.978 244.729 181.604 251.054 182.515 257.313C183.399 263.582 184.255 269.851 185.083 276.12L186.234 285.538C186.28 286.228 186.593 286.771 187.145 287.121C187.707 287.462 188.361 287.526 189.06 287.25L193.58 285.805L193.709 286.155H193.691Z" fill="#F173AC"/>
<path d="M162.418 210.843C162.418 210.843 164.655 229.724 175.168 269.465C175.168 269.465 181.197 289.864 180.673 295.737C180.148 301.61 182.035 307.447 183.167 309.021C184.3 310.595 185.644 319.313 185.644 319.313L189.418 318.245C189.418 318.245 178.997 272.594 171.108 242.179C168.687 232.845 164.719 201.389 162.418 210.853V210.843Z" fill="#C92C7C"/>
<path d="M184.105 290.977C183.331 290.968 182.291 315.087 187.216 301.6L188.514 296.16C188.514 296.16 195.252 316.118 197.066 315.86C198.879 315.602 194.737 299.271 194.737 298.231C194.737 297.191 201.227 312.417 201.273 313.485C201.402 317.112 206.069 312.058 199.073 296.767C199.073 296.767 211.049 329.429 202.055 295.994C202.93 298.728 210.212 311.275 202.681 285.979C202.902 286.43 200.849 291.272 184.123 290.977H184.105Z" fill="#FDBF75" stroke="#231F20" stroke-width="1.38084" stroke-miterlimit="10"/>
<path d="M126.5 336.168H134.077L137.253 378.578C137.253 378.578 141.487 378.412 141.828 377.804L136.295 330.976C136.295 330.976 129.382 331.325 125.93 330.976L126.5 336.158V336.168Z" fill="#838383"/>
<path d="M154.611 328.914L164.801 327.119L173.178 376.341C173.178 376.341 173.096 377.814 169.036 377.98L161.497 332.532L155.642 333.305L154.602 328.896L154.611 328.914Z" fill="#838383"/>
<path d="M105.861 132.854C104.038 136.195 101.939 139.325 99.61 142.317C99.0208 143.072 98.4317 143.808 97.7597 144.535C97.4191 144.904 97.0969 145.263 96.6274 145.64C96.4709 145.751 96.4065 145.824 96.1763 145.962L96.0199 146.054C95.9646 146.082 95.9462 146.1 95.7989 146.156C95.6792 146.202 95.5596 146.229 95.4399 146.257C95.357 146.266 95.3663 146.275 95.2098 146.284C95.1269 146.284 95.044 146.284 94.9612 146.284L94.8415 146.266C94.7679 146.238 94.8783 146.312 94.4549 146.137C94.1143 145.999 93.7369 145.557 93.654 145.161C93.562 144.71 93.6172 144.6 93.6264 144.489C93.6816 144.213 93.8289 143.928 94.0038 143.735L94.0959 143.642L94.1419 143.606L94.234 143.532L94.3628 143.44L94.4457 143.385L94.6758 143.247L95.0441 143.053C96.8484 142.17 98.5882 141.516 100.383 140.862C103.973 139.61 107.656 138.607 111.439 138.055C113.326 137.76 115.25 137.613 117.183 137.64C119.098 137.723 121.105 137.917 122.817 138.81C120.93 138.625 119.107 138.874 117.312 139.224C115.508 139.555 113.731 140.034 111.964 140.513C108.429 141.525 104.931 142.685 101.451 143.9C99.7297 144.508 97.9438 145.143 96.342 145.806L96.0751 145.925L96.0014 145.962C96.0014 145.962 96.0014 145.962 96.0567 145.916L96.1119 145.87L96.2131 145.769C96.388 145.585 96.5261 145.318 96.5722 145.051C96.5722 144.94 96.6366 144.839 96.5537 144.397C96.4709 144.011 96.1027 143.578 95.7713 143.44C95.3478 143.274 95.4675 143.348 95.403 143.32L95.3018 143.302C95.2374 143.302 95.1637 143.293 95.0993 143.302H94.952C94.8875 143.32 94.8139 143.339 94.7587 143.366C94.6758 143.403 94.7035 143.394 94.6942 143.394C94.6942 143.394 94.7863 143.339 94.8231 143.32C95.0992 143.127 95.4399 142.832 95.7621 142.538C96.4157 141.939 97.0785 141.304 97.7413 140.66C100.374 138.045 103.007 135.376 105.861 132.872V132.854Z" fill="#231F20"/>
<path d="M48.7209 140.927C51.2248 141.967 53.6366 143.155 56.0117 144.406C58.3867 145.649 60.7157 146.975 63.0171 148.337L61.9309 148.126C61.8296 148.144 61.7283 148.172 61.6363 148.218C61.3601 148.319 60.9551 148.715 60.8538 149.074C60.7894 149.23 60.725 149.58 60.7986 149.893C60.8538 150.215 61.0932 150.519 61.2129 150.629C61.2681 150.685 61.3325 150.74 61.3969 150.786C61.4522 150.823 61.5719 150.887 61.5535 150.878C61.5811 150.887 61.5995 150.906 61.6271 150.915C61.6639 150.933 61.6271 150.915 61.5995 150.915L61.3049 150.869L60.596 150.768C60.1082 150.703 59.6111 150.648 59.114 150.602C58.1106 150.491 57.1072 150.418 56.0946 150.335C54.0785 150.197 52.0533 150.068 50.028 150.022C48.0028 149.967 45.9868 149.976 43.9708 150.077C41.9639 150.234 39.9572 150.445 37.9688 151.173C39.5061 149.681 41.5957 148.816 43.6394 148.227C45.7106 147.619 47.8371 147.306 49.9544 147.15C52.0809 147.002 54.1982 146.993 56.3155 147.141C57.3741 147.205 58.4236 147.315 59.4822 147.454C60.0069 147.527 60.5408 147.61 61.0748 147.711C61.3417 147.757 61.6179 147.813 61.9033 147.877L62.3636 147.997C62.4556 148.024 62.5385 148.052 62.7042 148.116L62.8699 148.19C62.8699 148.19 62.9987 148.254 63.0724 148.31C63.1552 148.365 63.2288 148.429 63.3025 148.494C63.4314 148.604 63.6615 148.926 63.726 149.249C63.8088 149.571 63.7444 149.93 63.68 150.096C63.5695 150.464 63.1552 150.869 62.8606 150.979C62.741 151.034 62.6029 151.071 62.474 151.099L61.8664 151.219L61.3878 150.887C59.1876 149.359 57.0243 147.794 54.907 146.146C52.7805 144.508 50.7001 142.805 48.7117 140.954L48.7209 140.927Z" fill="#231F20"/>
<ellipse opacity="0.5" cx="119.329" cy="111.101" rx="24.505" ry="16.4764" transform="rotate(-15.7163 119.329 111.101)" fill="url(#paint2_radial_1891_1697)"/>
<ellipse opacity="0.5" cx="76.5048" cy="113.354" rx="37.32" ry="20.7333" transform="rotate(-1.06284 76.5048 113.354)" fill="url(#paint3_radial_1891_1697)"/>
<defs>
<radialGradient id="paint0_radial_1891_1697" cx="0" cy="0" r="1" gradientUnits="userSpaceOnUse" gradientTransform="translate(118.913 160.717) rotate(92.2069) scale(19.7858 35.6145)">
<stop stop-color="#EA3741" stop-opacity="0.9"/>
<stop offset="1" stop-color="#FF6D6D" stop-opacity="0"/>
</radialGradient>
<radialGradient id="paint1_radial_1891_1697" cx="0" cy="0" r="1" gradientUnits="userSpaceOnUse" gradientTransform="translate(54.9855 171.205) rotate(92.2069) scale(19.7858 35.6145)">
<stop stop-color="#EA3741" stop-opacity="0.9"/>
<stop offset="1" stop-color="#FF6D6D" stop-opacity="0"/>
</radialGradient>
<radialGradient id="paint2_radial_1891_1697" cx="0" cy="0" r="1" gradientUnits="userSpaceOnUse" gradientTransform="translate(119.329 111.101) rotate(91.8238) scale(12.7284 18.9395)">
<stop stop-color="#EA3741" stop-opacity="0.9"/>
<stop offset="1" stop-color="#FF6D6D" stop-opacity="0"/>
</radialGradient>
<radialGradient id="paint3_radial_1891_1697" cx="0" cy="0" r="1" gradientUnits="userSpaceOnUse" gradientTransform="translate(76.5048 113.354) rotate(92.2069) scale(16.0207 28.8373)">
<stop stop-color="#EA3741" stop-opacity="0.9"/>
<stop offset="1" stop-color="#FF6D6D" stop-opacity="0"/>
</radialGradient>
</defs>
</svg>
